<svg xmlns="http://www.w3.org/2000/svg" xmlns:xlink="http://www.w3.org/1999/xlink" width="400" zoomAndPan="magnify" viewBox="0 0 375 374.999991" height="500" preserveAspectRatio="xMidYMid meet" version="1.0"><defs><clipPath id="598df969b2"><path d="M 88 10.410156 L 287 10.410156 L 287 101 L 88 101 Z M 88 10.410156 " clip-rule="nonzero"/></clipPath><clipPath id="c090c08691"><path d="M 50.566406 93 L 324.445312 93 L 324.445312 364.410156 L 50.566406 364.410156 Z M 50.566406 93 " clip-rule="nonzero"/></clipPath><clipPath id="1d815dbd44"><path d="M 121 206 L 254 206 L 254 337.910156 L 121 337.910156 Z M 121 206 " clip-rule="nonzero"/></clipPath><clipPath id="4ae290f1ba"><path d="M 150 149.660156 L 283 149.660156 L 283 265 L 150 265 Z M 150 149.660156 " clip-rule="nonzero"/></clipPath></defs><g clip-path="url(#598df969b2)"><path fill="#ffffff" d="M 109.617188 18.101562 C 102.339844 18.101562 96.410156 24.347656 96.410156 32.027344 L 96.410156 79.207031 C 96.410156 86.894531 102.339844 93.140625 109.617188 93.140625 L 265.402344 93.140625 C 272.679688 93.140625 278.589844 86.894531 278.589844 79.207031 L 278.589844 32.027344 C 278.589844 24.347656 272.679688 18.101562 265.402344 18.101562 Z M 265.402344 100.839844 L 109.617188 100.839844 C 98.09375 100.839844 88.707031 91.136719 88.707031 79.207031 L 88.707031 32.027344 C 88.707031 20.113281 98.09375 10.410156 109.617188 10.410156 L 265.402344 10.410156 C 276.921875 10.410156 286.292969 20.113281 286.292969 32.027344 L 286.292969 79.207031 C 286.292969 91.136719 276.921875 100.839844 265.402344 100.839844 " fill-opacity="1" fill-rule="nonzero"/></g><g clip-path="url(#c090c08691)"><path fill="#ffffff" d="M 114.835938 100.839844 C 114.761719 111.308594 112.394531 119.277344 107.792969 124.558594 C 98.003906 135.792969 82.574219 143.457031 73.371094 148.035156 L 71.96875 148.742188 C 58.425781 155.503906 58.40625 158.222656 58.359375 164.777344 C 58.351562 166.011719 58.328125 167.34375 58.253906 168.785156 L 58.273438 321.414062 C 58.273438 340.878906 77.78125 356.714844 101.753906 356.714844 L 273.253906 356.714844 C 297.234375 356.714844 316.746094 340.878906 316.746094 321.414062 L 316.746094 168.582031 C 316.671875 167.34375 316.65625 166.011719 316.65625 164.777344 C 316.609375 158.222656 316.59375 155.503906 303.046875 148.742188 L 301.644531 148.035156 C 292.425781 143.457031 277.011719 135.792969 267.203125 124.558594 C 262.601562 119.265625 260.242188 111.300781 260.1875 100.839844 Z M 273.253906 364.410156 L 101.753906 364.410156 C 73.535156 364.410156 50.566406 345.125 50.566406 321.414062 L 50.566406 168.582031 C 50.648438 167.0625 50.648438 165.851562 50.667969 164.71875 C 50.726562 155.789062 51.578125 150.320312 68.527344 141.859375 L 69.945312 141.152344 C 78.636719 136.824219 93.195312 129.578125 101.992188 119.492188 C 105.78125 115.164062 107.527344 107.433594 107.074219 97.164062 C 107.011719 96.121094 107.40625 95.089844 108.125 94.332031 C 108.859375 93.574219 109.859375 93.140625 110.90625 93.140625 L 264.109375 93.140625 C 265.164062 93.140625 266.167969 93.574219 266.890625 94.332031 C 267.613281 95.097656 268 96.121094 267.945312 97.171875 C 267.476562 107.433594 269.234375 115.164062 273.011719 119.492188 C 281.8125 129.578125 296.363281 136.824219 305.070312 141.152344 L 306.484375 141.859375 C 323.421875 150.320312 324.296875 155.789062 324.347656 164.71875 C 324.347656 165.851562 324.371094 167.0625 324.433594 168.390625 L 324.445312 321.414062 C 324.445312 345.125 301.480469 364.410156 273.253906 364.410156 " fill-opacity="1" fill-rule="nonzero"/></g><g clip-path="url(#1d815dbd44)"><path fill="#ffffff" d="M 187.789062 206.136719 C 186.710938 206.136719 185.632812 206.160156 184.554688 206.214844 C 183.476562 206.265625 182.398438 206.347656 181.324219 206.453125 C 180.25 206.558594 179.179688 206.691406 178.113281 206.847656 C 177.042969 207.007812 175.980469 207.191406 174.921875 207.402344 C 173.863281 207.609375 172.808594 207.847656 171.761719 208.109375 C 170.714844 208.371094 169.675781 208.660156 168.644531 208.972656 C 167.609375 209.285156 166.585938 209.625 165.570312 209.984375 C 164.554688 210.347656 163.546875 210.738281 162.550781 211.148438 C 161.550781 211.5625 160.566406 212 159.589844 212.460938 C 158.613281 212.921875 157.648438 213.40625 156.699219 213.914062 C 155.746094 214.421875 154.808594 214.953125 153.882812 215.507812 C 152.957031 216.0625 152.042969 216.640625 151.148438 217.238281 C 150.25 217.839844 149.367188 218.457031 148.5 219.101562 C 147.632812 219.742188 146.78125 220.40625 145.949219 221.089844 C 145.113281 221.773438 144.296875 222.480469 143.496094 223.203125 C 142.695312 223.925781 141.914062 224.671875 141.152344 225.433594 C 140.390625 226.195312 139.644531 226.976562 138.921875 227.773438 C 138.195312 228.574219 137.492188 229.390625 136.804688 230.222656 C 136.121094 231.058594 135.457031 231.90625 134.8125 232.773438 C 134.171875 233.640625 133.550781 234.519531 132.949219 235.417969 C 132.351562 236.3125 131.773438 237.222656 131.21875 238.148438 C 130.664062 239.074219 130.132812 240.011719 129.621094 240.964844 C 129.113281 241.914062 128.628906 242.878906 128.167969 243.851562 C 127.707031 244.828125 127.269531 245.8125 126.855469 246.808594 C 126.441406 247.804688 126.054688 248.808594 125.691406 249.824219 C 125.328125 250.839844 124.988281 251.863281 124.675781 252.894531 C 124.363281 253.929688 124.074219 254.96875 123.8125 256.011719 C 123.550781 257.058594 123.3125 258.109375 123.101562 259.167969 C 122.890625 260.226562 122.707031 261.289062 122.546875 262.355469 C 122.390625 263.421875 122.257812 264.492188 122.152344 265.5625 C 122.046875 266.636719 121.96875 267.710938 121.914062 268.789062 C 121.863281 269.867188 121.835938 270.945312 121.835938 272.023438 C 121.835938 273.101562 121.863281 274.179688 121.914062 275.253906 C 121.96875 276.332031 122.046875 277.40625 122.152344 278.480469 C 122.257812 279.554688 122.390625 280.625 122.546875 281.691406 C 122.707031 282.757812 122.890625 283.820312 123.101562 284.875 C 123.3125 285.933594 123.550781 286.984375 123.8125 288.03125 C 124.074219 289.078125 124.363281 290.117188 124.675781 291.148438 C 124.988281 292.179688 125.328125 293.203125 125.691406 294.21875 C 126.054688 295.234375 126.441406 296.238281 126.855469 297.238281 C 127.269531 298.234375 127.707031 299.21875 128.167969 300.191406 C 128.628906 301.167969 129.113281 302.128906 129.621094 303.082031 C 130.132812 304.03125 130.664062 304.96875 131.21875 305.894531 C 131.773438 306.820312 132.351562 307.730469 132.949219 308.628906 C 133.550781 309.523438 134.171875 310.40625 134.8125 311.269531 C 135.457031 312.136719 136.121094 312.988281 136.804688 313.820312 C 137.492188 314.65625 138.195312 315.46875 138.921875 316.269531 C 139.644531 317.070312 140.390625 317.847656 141.152344 318.613281 C 141.914062 319.375 142.695312 320.117188 143.496094 320.839844 C 144.296875 321.566406 145.113281 322.269531 145.949219 322.953125 C 146.78125 323.636719 147.632812 324.300781 148.5 324.945312 C 149.367188 325.585938 150.25 326.207031 151.148438 326.804688 C 152.042969 327.40625 152.957031 327.980469 153.882812 328.535156 C 154.808594 329.089844 155.746094 329.621094 156.699219 330.128906 C 157.648438 330.636719 158.613281 331.121094 159.589844 331.582031 C 160.566406 332.042969 161.550781 332.480469 162.550781 332.894531 C 163.546875 333.308594 164.554688 333.695312 165.570312 334.058594 C 166.585938 334.421875 167.609375 334.757812 168.644531 335.074219 C 169.675781 335.386719 170.714844 335.671875 171.761719 335.933594 C 172.808594 336.195312 173.863281 336.433594 174.921875 336.644531 C 175.980469 336.855469 177.042969 337.039062 178.113281 337.195312 C 179.179688 337.355469 180.25 337.488281 181.324219 337.59375 C 182.398438 337.699219 183.476562 337.777344 184.554688 337.832031 C 185.632812 337.882812 186.710938 337.910156 187.789062 337.910156 C 188.867188 337.910156 189.945312 337.882812 191.023438 337.832031 C 192.101562 337.777344 193.179688 337.699219 194.253906 337.59375 C 195.328125 337.488281 196.398438 337.355469 197.464844 337.195312 C 198.535156 337.039062 199.597656 336.855469 200.65625 336.644531 C 201.714844 336.433594 202.765625 336.195312 203.816406 335.933594 C 204.863281 335.671875 205.902344 335.386719 206.933594 335.074219 C 207.96875 334.757812 208.992188 334.421875 210.007812 334.058594 C 211.023438 333.695312 212.03125 333.308594 213.027344 332.894531 C 214.027344 332.480469 215.011719 332.046875 215.988281 331.582031 C 216.964844 331.121094 217.925781 330.636719 218.878906 330.128906 C 219.832031 329.621094 220.769531 329.089844 221.695312 328.535156 C 222.621094 327.980469 223.535156 327.40625 224.429688 326.804688 C 225.328125 326.207031 226.210938 325.585938 227.078125 324.945312 C 227.945312 324.300781 228.796875 323.636719 229.628906 322.953125 C 230.464844 322.269531 231.28125 321.566406 232.082031 320.839844 C 232.878906 320.117188 233.664062 319.375 234.425781 318.613281 C 235.1875 317.847656 235.933594 317.070312 236.65625 316.269531 C 237.382812 315.46875 238.085938 314.65625 238.773438 313.820312 C 239.457031 312.988281 240.121094 312.136719 240.765625 311.269531 C 241.40625 310.40625 242.027344 309.523438 242.628906 308.628906 C 243.226562 307.730469 243.804688 306.820312 244.359375 305.894531 C 244.914062 304.96875 245.445312 304.03125 245.957031 303.082031 C 246.464844 302.128906 246.949219 301.167969 247.410156 300.191406 C 247.871094 299.21875 248.308594 298.234375 248.722656 297.238281 C 249.136719 296.238281 249.523438 295.234375 249.886719 294.21875 C 250.25 293.203125 250.589844 292.179688 250.902344 291.148438 C 251.214844 290.117188 251.503906 289.078125 251.765625 288.03125 C 252.027344 286.984375 252.265625 285.933594 252.476562 284.875 C 252.6875 283.820312 252.871094 282.757812 253.027344 281.691406 C 253.1875 280.625 253.320312 279.554688 253.425781 278.480469 C 253.53125 277.40625 253.609375 276.332031 253.664062 275.253906 C 253.714844 274.179688 253.742188 273.101562 253.742188 272.023438 C 253.742188 270.945312 253.714844 269.867188 253.664062 268.789062 C 253.609375 267.710938 253.53125 266.636719 253.425781 265.5625 C 253.320312 264.492188 253.1875 263.421875 253.027344 262.355469 C 252.871094 261.289062 252.6875 260.226562 252.476562 259.167969 C 252.265625 258.109375 252.027344 257.058594 251.765625 256.011719 C 251.503906 254.96875 251.214844 253.929688 250.902344 252.894531 C 250.589844 251.863281 250.25 250.839844 249.886719 249.824219 C 249.523438 248.808594 249.136719 247.804688 248.722656 246.808594 C 248.308594 245.8125 247.871094 244.828125 247.410156 243.851562 C 246.949219 242.878906 246.464844 241.914062 245.957031 240.964844 C 245.445312 240.011719 244.914062 239.074219 244.359375 238.148438 C 243.804688 237.222656 243.226562 236.3125 242.628906 235.417969 C 242.027344 234.519531 241.40625 233.640625 240.765625 232.773438 C 240.121094 231.90625 239.457031 231.058594 238.773438 230.222656 C 238.085938 229.390625 237.382812 228.574219 236.65625 227.773438 C 235.933594 226.976562 235.1875 226.195312 234.425781 225.433594 C 233.664062 224.671875 232.878906 223.925781 232.082031 223.203125 C 231.28125 222.480469 230.464844 221.773438 229.628906 221.089844 C 228.796875 220.40625 227.945312 219.742188 227.078125 219.101562 C 226.210938 218.457031 225.328125 217.839844 224.429688 217.238281 C 223.535156 216.640625 222.621094 216.0625 221.695312 215.507812 C 220.769531 214.953125 219.832031 214.421875 218.878906 213.914062 C 217.925781 213.40625 216.964844 212.921875 215.988281 212.460938 C 215.011719 212 214.027344 211.5625 213.027344 211.148438 C 212.03125 210.738281 211.023438 210.347656 210.007812 209.984375 C 208.992188 209.625 207.96875 209.285156 206.933594 208.972656 C 205.902344 208.660156 204.863281 208.371094 203.816406 208.109375 C 202.765625 207.847656 201.714844 207.609375 200.65625 207.402344 C 199.597656 207.191406 198.535156 207.007812 197.464844 206.847656 C 196.398438 206.691406 195.328125 206.558594 194.253906 206.453125 C 193.179688 206.347656 192.101562 206.265625 191.023438 206.214844 C 189.945312 206.160156 188.867188 206.136719 187.789062 206.136719 Z M 146.960938 246.921875 C 146.960938 246.507812 147.039062 246.105469 147.199219 245.722656 C 147.359375 245.335938 147.585938 244.996094 147.878906 244.703125 C 148.175781 244.410156 148.515625 244.183594 148.898438 244.023438 C 149.285156 243.863281 149.683594 243.785156 150.101562 243.785156 C 150.515625 243.785156 150.917969 243.863281 151.304688 244.023438 C 151.6875 244.183594 152.027344 244.410156 152.320312 244.703125 C 152.617188 244.996094 152.84375 245.335938 153.003906 245.722656 C 153.160156 246.105469 153.242188 246.507812 153.242188 246.921875 L 153.242188 253.199219 C 153.242188 253.613281 153.160156 254.011719 153.003906 254.398438 C 152.84375 254.78125 152.617188 255.121094 152.320312 255.414062 C 152.027344 255.710938 151.6875 255.9375 151.304688 256.097656 C 150.917969 256.253906 150.515625 256.335938 150.101562 256.335938 C 149.683594 256.335938 149.285156 256.253906 148.898438 256.097656 C 148.515625 255.9375 148.175781 255.710938 147.878906 255.414062 C 147.585938 255.121094 147.359375 254.78125 147.199219 254.398438 C 147.039062 254.011719 146.960938 253.613281 146.960938 253.199219 Z M 150.101562 297.121094 C 149.480469 297.121094 148.871094 297.0625 148.261719 296.941406 C 147.65625 296.820312 147.066406 296.640625 146.496094 296.40625 C 145.921875 296.167969 145.378906 295.878906 144.867188 295.535156 C 144.351562 295.191406 143.875 294.800781 143.4375 294.367188 C 143 293.929688 142.609375 293.453125 142.265625 292.9375 C 141.921875 292.425781 141.632812 291.882812 141.394531 291.3125 C 141.160156 290.742188 140.980469 290.152344 140.859375 289.546875 C 140.738281 288.941406 140.679688 288.328125 140.679688 287.710938 C 140.679688 287.089844 140.738281 286.480469 140.859375 285.875 C 140.980469 285.265625 141.160156 284.679688 141.394531 284.109375 C 141.632812 283.535156 141.921875 282.996094 142.265625 282.480469 C 142.609375 281.964844 143 281.492188 143.4375 281.054688 C 143.875 280.617188 144.351562 280.226562 144.867188 279.882812 C 145.378906 279.539062 145.921875 279.25 146.496094 279.015625 C 147.066406 278.777344 147.65625 278.597656 148.261719 278.476562 C 148.871094 278.359375 149.480469 278.296875 150.101562 278.296875 C 150.71875 278.296875 151.332031 278.359375 151.9375 278.476562 C 152.546875 278.597656 153.136719 278.777344 153.707031 279.015625 C 154.277344 279.25 154.820312 279.539062 155.335938 279.882812 C 155.851562 280.226562 156.324219 280.617188 156.761719 281.054688 C 157.199219 281.492188 157.589844 281.964844 157.933594 282.480469 C 158.277344 282.996094 158.570312 283.535156 158.804688 284.109375 C 159.042969 284.679688 159.222656 285.265625 159.34375 285.875 C 159.460938 286.480469 159.523438 287.089844 159.523438 287.710938 C 159.523438 288.328125 159.460938 288.941406 159.34375 289.546875 C 159.222656 290.152344 159.042969 290.742188 158.804688 291.3125 C 158.570312 291.882812 158.277344 292.425781 157.933594 292.9375 C 157.589844 293.453125 157.199219 293.929688 156.761719 294.367188 C 156.324219 294.800781 155.851562 295.191406 155.335938 295.535156 C 154.820312 295.878906 154.277344 296.167969 153.707031 296.40625 C 153.136719 296.640625 152.546875 296.820312 151.9375 296.941406 C 151.332031 297.0625 150.71875 297.121094 150.101562 297.121094 Z M 172.085938 315.949219 C 172.085938 316.363281 172.007812 316.761719 171.847656 317.148438 C 171.6875 317.53125 171.460938 317.871094 171.164062 318.164062 C 170.871094 318.460938 170.53125 318.6875 170.148438 318.847656 C 169.761719 319.003906 169.363281 319.085938 168.945312 319.085938 C 168.527344 319.085938 168.128906 319.003906 167.742188 318.847656 C 167.359375 318.6875 167.019531 318.460938 166.722656 318.164062 C 166.429688 317.871094 166.203125 317.53125 166.042969 317.148438 C 165.882812 316.761719 165.804688 316.363281 165.804688 315.949219 L 165.804688 309.671875 C 165.804688 309.257812 165.882812 308.855469 166.042969 308.472656 C 166.203125 308.085938 166.429688 307.746094 166.722656 307.453125 C 167.019531 307.160156 167.359375 306.933594 167.742188 306.773438 C 168.128906 306.613281 168.527344 306.535156 168.945312 306.535156 C 169.363281 306.535156 169.761719 306.613281 170.148438 306.773438 C 170.53125 306.933594 170.871094 307.160156 171.164062 307.453125 C 171.460938 307.746094 171.6875 308.085938 171.847656 308.472656 C 172.007812 308.855469 172.085938 309.257812 172.085938 309.671875 Z M 178.367188 284.574219 C 178.367188 284.988281 178.289062 285.386719 178.128906 285.773438 C 177.96875 286.15625 177.742188 286.496094 177.445312 286.789062 C 177.152344 287.085938 176.8125 287.3125 176.429688 287.472656 C 176.042969 287.628906 175.644531 287.710938 175.226562 287.710938 C 174.808594 287.710938 174.410156 287.628906 174.023438 287.472656 C 173.640625 287.3125 173.300781 287.085938 173.003906 286.789062 C 172.710938 286.496094 172.484375 286.15625 172.324219 285.773438 C 172.164062 285.386719 172.085938 284.988281 172.085938 284.574219 L 172.085938 278.296875 C 172.085938 277.882812 172.164062 277.480469 172.324219 277.097656 C 172.484375 276.710938 172.710938 276.371094 173.003906 276.078125 C 173.300781 275.785156 173.640625 275.558594 174.023438 275.398438 C 174.410156 275.238281 174.808594 275.160156 175.226562 275.160156 C 175.644531 275.160156 176.042969 275.238281 176.429688 275.398438 C 176.8125 275.558594 177.152344 275.785156 177.445312 276.078125 C 177.742188 276.371094 177.96875 276.710938 178.128906 277.097656 C 178.289062 277.480469 178.367188 277.882812 178.367188 278.296875 Z M 181.507812 243.785156 C 174.570312 243.785156 168.945312 240.976562 168.945312 237.511719 C 168.945312 234.042969 174.570312 231.234375 181.507812 231.234375 C 188.445312 231.234375 194.070312 234.042969 194.070312 237.511719 C 194.070312 240.976562 188.445312 243.785156 181.507812 243.785156 Z M 194.070312 325.359375 C 190.617188 325.359375 187.789062 318.335938 187.789062 309.671875 C 187.789062 301.007812 190.617188 293.984375 194.070312 293.984375 C 197.523438 293.984375 200.351562 301.007812 200.351562 309.671875 C 200.351562 318.335938 197.523438 325.359375 194.070312 325.359375 Z M 203.492188 265.746094 C 203.492188 266.164062 203.414062 266.5625 203.253906 266.949219 C 203.09375 267.332031 202.867188 267.671875 202.574219 267.964844 C 202.277344 268.261719 201.9375 268.488281 201.554688 268.644531 C 201.167969 268.804688 200.769531 268.886719 200.351562 268.886719 C 199.933594 268.886719 199.535156 268.804688 199.148438 268.644531 C 198.765625 268.488281 198.425781 268.261719 198.132812 267.964844 C 197.835938 267.671875 197.609375 267.332031 197.449219 266.949219 C 197.289062 266.5625 197.210938 266.164062 197.210938 265.746094 L 197.210938 259.472656 C 197.210938 259.054688 197.289062 258.65625 197.449219 258.273438 C 197.609375 257.886719 197.835938 257.546875 198.132812 257.253906 C 198.425781 256.960938 198.765625 256.734375 199.148438 256.574219 C 199.535156 256.414062 199.933594 256.335938 200.351562 256.335938 C 200.769531 256.335938 201.167969 256.414062 201.554688 256.574219 C 201.9375 256.734375 202.277344 256.960938 202.574219 257.253906 C 202.867188 257.546875 203.09375 257.886719 203.253906 258.273438 C 203.414062 258.65625 203.492188 259.054688 203.492188 259.472656 Z M 212.914062 237.511719 C 212.496094 237.511719 212.097656 237.429688 211.710938 237.269531 C 211.328125 237.113281 210.988281 236.886719 210.695312 236.589844 C 210.398438 236.296875 210.171875 235.957031 210.011719 235.574219 C 209.851562 235.1875 209.773438 234.789062 209.773438 234.371094 L 209.773438 228.097656 C 209.773438 227.679688 209.851562 227.28125 210.011719 226.898438 C 210.171875 226.511719 210.398438 226.171875 210.695312 225.878906 C 210.988281 225.585938 211.328125 225.359375 211.710938 225.199219 C 212.097656 225.039062 212.496094 224.960938 212.914062 224.960938 C 213.332031 224.960938 213.730469 225.039062 214.117188 225.199219 C 214.5 225.359375 214.839844 225.585938 215.136719 225.878906 C 215.429688 226.171875 215.65625 226.511719 215.816406 226.898438 C 215.976562 227.28125 216.054688 227.679688 216.054688 228.097656 L 216.054688 234.371094 C 216.054688 234.789062 215.976562 235.1875 215.816406 235.574219 C 215.65625 235.957031 215.429688 236.296875 215.136719 236.589844 C 214.839844 236.886719 214.5 237.113281 214.117188 237.269531 C 213.730469 237.429688 213.332031 237.511719 212.914062 237.511719 Z M 222.335938 303.398438 C 222.335938 303.8125 222.257812 304.214844 222.097656 304.597656 C 221.9375 304.980469 221.710938 305.320312 221.417969 305.617188 C 221.121094 305.910156 220.78125 306.136719 220.398438 306.296875 C 220.011719 306.457031 219.613281 306.535156 219.195312 306.535156 C 218.777344 306.535156 218.378906 306.457031 217.992188 306.296875 C 217.609375 306.136719 217.269531 305.910156 216.976562 305.617188 C 216.679688 305.320312 216.453125 304.980469 216.292969 304.597656 C 216.132812 304.214844 216.054688 303.8125 216.054688 303.398438 L 216.054688 297.121094 C 216.054688 296.707031 216.132812 296.304688 216.292969 295.921875 C 216.453125 295.539062 216.679688 295.199219 216.976562 294.902344 C 217.269531 294.609375 217.609375 294.382812 217.992188 294.222656 C 218.378906 294.0625 218.777344 293.984375 219.195312 293.984375 C 219.613281 293.984375 220.011719 294.0625 220.398438 294.222656 C 220.78125 294.382812 221.121094 294.609375 221.417969 294.902344 C 221.710938 295.199219 221.9375 295.539062 222.097656 295.921875 C 222.257812 296.304688 222.335938 296.707031 222.335938 297.121094 Z M 238.039062 267.316406 C 238.085938 267.984375 238.070312 268.652344 237.988281 269.316406 C 237.902344 269.980469 237.757812 270.632812 237.546875 271.269531 C 237.335938 271.90625 237.066406 272.515625 236.734375 273.101562 C 236.40625 273.683594 236.023438 274.230469 235.585938 274.738281 C 235.148438 275.25 234.667969 275.710938 234.140625 276.125 C 233.613281 276.539062 233.050781 276.902344 232.453125 277.207031 C 231.855469 277.511719 231.234375 277.753906 230.589844 277.9375 C 229.945312 278.121094 229.285156 278.242188 228.617188 278.296875 C 227.949219 278.242188 227.292969 278.121094 226.644531 277.9375 C 226 277.753906 225.378906 277.511719 224.78125 277.207031 C 224.183594 276.902344 223.621094 276.539062 223.09375 276.125 C 222.566406 275.710938 222.085938 275.25 221.648438 274.738281 C 221.210938 274.230469 220.828125 273.683594 220.5 273.101562 C 220.167969 272.515625 219.898438 271.90625 219.6875 271.269531 C 219.480469 270.632812 219.332031 269.980469 219.25 269.316406 C 219.164062 268.652344 219.148438 267.984375 219.195312 267.316406 C 219.148438 266.648438 219.164062 265.980469 219.25 265.316406 C 219.332031 264.648438 219.480469 264 219.6875 263.363281 C 219.898438 262.726562 220.167969 262.117188 220.5 261.53125 C 220.828125 260.949219 221.210938 260.402344 221.648438 259.890625 C 222.085938 259.382812 222.566406 258.921875 223.09375 258.507812 C 223.621094 258.089844 224.183594 257.730469 224.78125 257.425781 C 225.378906 257.121094 226 256.878906 226.644531 256.695312 C 227.292969 256.507812 227.949219 256.390625 228.617188 256.335938 C 229.285156 256.390625 229.945312 256.507812 230.589844 256.695312 C 231.234375 256.878906 231.855469 257.121094 232.453125 257.425781 C 233.050781 257.730469 233.613281 258.089844 234.140625 258.507812 C 234.667969 258.921875 235.148438 259.382812 235.585938 259.890625 C 236.023438 260.402344 236.40625 260.949219 236.734375 261.53125 C 237.066406 262.117188 237.335938 262.726562 237.546875 263.363281 C 237.757812 264 237.902344 264.648438 237.988281 265.316406 C 238.070312 265.980469 238.085938 266.648438 238.039062 267.316406 Z M 238.039062 267.316406 " fill-opacity="1" fill-rule="nonzero"/></g><g clip-path="url(#4ae290f1ba)"><path fill="#ffffff" d="M 216.054688 149.660156 C 214.003906 149.660156 211.960938 149.757812 209.917969 149.949219 C 207.878906 150.140625 205.851562 150.425781 203.835938 150.804688 C 201.824219 151.1875 199.832031 151.660156 197.859375 152.226562 C 195.890625 152.789062 193.953125 153.445312 192.042969 154.195312 C 190.132812 154.941406 188.265625 155.773438 186.433594 156.695312 C 184.601562 157.617188 182.820312 158.621094 181.082031 159.707031 C 179.34375 160.792969 177.660156 161.960938 176.035156 163.203125 C 174.40625 164.449219 172.839844 165.765625 171.332031 167.15625 C 169.828125 168.542969 168.390625 170 167.023438 171.527344 C 165.652344 173.050781 164.359375 174.632812 163.136719 176.277344 C 161.914062 177.921875 160.773438 179.621094 159.710938 181.371094 C 158.648438 183.121094 157.667969 184.917969 156.773438 186.761719 C 155.878906 188.605469 155.070312 190.484375 154.351562 192.402344 C 153.632812 194.320312 153.003906 196.265625 152.46875 198.242188 C 151.929688 200.21875 151.484375 202.214844 151.132812 204.230469 C 150.78125 206.25 150.527344 208.277344 150.363281 210.320312 C 153.199219 208.597656 156.140625 207.082031 159.1875 205.765625 C 162.234375 204.453125 165.355469 203.351562 168.554688 202.46875 C 171.753906 201.582031 174.996094 200.921875 178.285156 200.488281 C 181.578125 200.050781 184.878906 199.839844 188.199219 199.859375 C 191.515625 199.878906 194.820312 200.128906 198.101562 200.601562 C 201.386719 201.078125 204.621094 201.777344 207.808594 202.699219 C 210.996094 203.617188 214.105469 204.753906 217.136719 206.105469 C 220.167969 207.457031 223.089844 209.007812 225.90625 210.761719 C 225.632812 210.304688 225.488281 209.808594 225.476562 209.273438 L 225.476562 202.996094 C 225.476562 202.582031 225.558594 202.179688 225.714844 201.796875 C 225.875 201.414062 226.101562 201.074219 226.398438 200.777344 C 226.691406 200.484375 227.03125 200.257812 227.414062 200.097656 C 227.800781 199.9375 228.203125 199.859375 228.617188 199.859375 C 229.035156 199.859375 229.433594 199.9375 229.820312 200.097656 C 230.203125 200.257812 230.542969 200.484375 230.839844 200.777344 C 231.132812 201.074219 231.359375 201.414062 231.519531 201.796875 C 231.679688 202.179688 231.757812 202.582031 231.757812 202.996094 L 231.757812 209.273438 C 231.757812 209.6875 231.679688 210.089844 231.519531 210.472656 C 231.359375 210.855469 231.132812 211.195312 230.839844 211.492188 C 230.542969 211.785156 230.203125 212.011719 229.820312 212.171875 C 229.433594 212.332031 229.035156 212.410156 228.617188 212.410156 C 228.53125 212.410156 228.457031 212.367188 228.371094 212.359375 C 230.550781 213.839844 232.644531 215.433594 234.648438 217.140625 C 236.652344 218.847656 238.558594 220.660156 240.367188 222.578125 C 242.171875 224.492188 243.871094 226.503906 245.457031 228.605469 C 247.042969 230.707031 248.507812 232.886719 249.859375 235.148438 C 251.207031 237.410156 252.425781 239.738281 253.519531 242.136719 C 254.613281 244.53125 255.570312 246.976562 256.394531 249.476562 C 257.21875 251.976562 257.90625 254.515625 258.453125 257.089844 C 259 259.664062 259.40625 262.261719 259.667969 264.882812 C 260.917969 263.785156 262.121094 262.640625 263.28125 261.453125 C 264.441406 260.265625 265.554688 259.035156 266.625 257.761719 C 267.691406 256.488281 268.710938 255.175781 269.675781 253.828125 C 270.644531 252.476562 271.5625 251.09375 272.425781 249.675781 C 273.289062 248.253906 274.097656 246.804688 274.851562 245.324219 C 275.601562 243.847656 276.300781 242.339844 276.9375 240.808594 C 277.578125 239.273438 278.160156 237.71875 278.679688 236.144531 C 279.203125 234.566406 279.664062 232.972656 280.066406 231.359375 C 280.464844 229.75 280.804688 228.125 281.082031 226.488281 C 281.359375 224.851562 281.578125 223.207031 281.730469 221.550781 C 281.882812 219.898438 281.972656 218.242188 282 216.582031 C 282.027344 214.921875 281.992188 213.261719 281.894531 211.605469 C 281.796875 209.949219 281.636719 208.296875 281.414062 206.652344 C 281.191406 205.003906 280.90625 203.371094 280.558594 201.746094 C 280.210938 200.121094 279.804688 198.515625 279.335938 196.921875 C 278.867188 195.328125 278.339844 193.753906 277.75 192.203125 C 277.164062 190.648438 276.515625 189.121094 275.8125 187.617188 C 275.109375 186.113281 274.351562 184.636719 273.535156 183.1875 C 272.71875 181.742188 271.851562 180.328125 270.925781 178.949219 C 270.003906 177.566406 269.03125 176.222656 268.007812 174.914062 C 266.984375 173.605469 265.910156 172.339844 264.789062 171.113281 C 263.667969 169.886719 262.503906 168.703125 261.292969 167.566406 C 260.085938 166.425781 258.832031 165.335938 257.539062 164.292969 C 256.246094 163.25 254.917969 162.253906 253.550781 161.3125 C 252.179688 160.367188 250.78125 159.476562 249.34375 158.640625 C 247.910156 157.804688 246.445312 157.023438 244.949219 156.296875 C 243.453125 155.570312 241.933594 154.898438 240.390625 154.289062 C 238.84375 153.675781 237.277344 153.125 235.691406 152.628906 C 234.105469 152.136719 232.5 151.703125 230.878906 151.332031 C 229.261719 150.960938 227.628906 150.652344 225.984375 150.402344 C 224.34375 150.152344 222.691406 149.96875 221.035156 149.84375 C 219.378906 149.71875 217.71875 149.660156 216.054688 149.660156 Z M 181.507812 196.722656 C 181.507812 197.136719 181.429688 197.539062 181.269531 197.921875 C 181.109375 198.308594 180.882812 198.648438 180.585938 198.941406 C 180.292969 199.234375 179.953125 199.460938 179.570312 199.621094 C 179.183594 199.78125 178.785156 199.859375 178.367188 199.859375 C 177.949219 199.859375 177.550781 199.78125 177.164062 199.621094 C 176.78125 199.460938 176.441406 199.234375 176.144531 198.941406 C 175.851562 198.648438 175.625 198.308594 175.464844 197.921875 C 175.304688 197.539062 175.226562 197.136719 175.226562 196.722656 L 175.226562 190.449219 C 175.226562 190.03125 175.304688 189.632812 175.464844 189.246094 C 175.625 188.863281 175.851562 188.523438 176.144531 188.230469 C 176.441406 187.933594 176.78125 187.707031 177.164062 187.546875 C 177.550781 187.390625 177.949219 187.308594 178.367188 187.308594 C 178.785156 187.308594 179.183594 187.390625 179.570312 187.546875 C 179.953125 187.707031 180.292969 187.933594 180.585938 188.230469 C 180.882812 188.523438 181.109375 188.863281 181.269531 189.246094 C 181.429688 189.632812 181.507812 190.03125 181.507812 190.449219 Z M 209.773438 187.308594 C 202.835938 187.308594 197.210938 184.5 197.210938 181.035156 C 197.210938 177.566406 202.835938 174.761719 209.773438 174.761719 C 216.710938 174.761719 222.335938 177.566406 222.335938 181.035156 C 222.335938 184.5 216.710938 187.308594 209.773438 187.308594 Z M 244.320312 177.898438 C 244.320312 178.3125 244.242188 178.714844 244.082031 179.097656 C 243.921875 179.480469 243.695312 179.820312 243.402344 180.117188 C 243.105469 180.410156 242.765625 180.636719 242.382812 180.796875 C 241.996094 180.957031 241.597656 181.035156 241.179688 181.035156 C 240.765625 181.035156 240.363281 180.957031 239.980469 180.796875 C 239.59375 180.636719 239.253906 180.410156 238.960938 180.117188 C 238.664062 179.820312 238.4375 179.480469 238.277344 179.097656 C 238.121094 178.714844 238.039062 178.3125 238.039062 177.898438 L 238.039062 171.621094 C 238.039062 171.207031 238.121094 170.804688 238.277344 170.421875 C 238.4375 170.039062 238.664062 169.699219 238.960938 169.402344 C 239.253906 169.109375 239.59375 168.882812 239.980469 168.722656 C 240.363281 168.5625 240.765625 168.484375 241.179688 168.484375 C 241.597656 168.484375 241.996094 168.5625 242.382812 168.722656 C 242.765625 168.882812 243.105469 169.109375 243.402344 169.402344 C 243.695312 169.699219 243.921875 170.039062 244.082031 170.421875 C 244.242188 170.804688 244.320312 171.207031 244.320312 171.621094 Z M 266.304688 210.839844 C 266.351562 211.511719 266.335938 212.175781 266.253906 212.84375 C 266.167969 213.507812 266.023438 214.160156 265.8125 214.792969 C 265.601562 215.429688 265.332031 216.042969 265.003906 216.625 C 264.671875 217.210938 264.289062 217.753906 263.851562 218.265625 C 263.414062 218.773438 262.933594 219.234375 262.40625 219.652344 C 261.878906 220.066406 261.316406 220.425781 260.71875 220.730469 C 260.121094 221.035156 259.5 221.28125 258.855469 221.464844 C 258.210938 221.648438 257.550781 221.765625 256.882812 221.824219 C 256.214844 221.765625 255.558594 221.648438 254.914062 221.464844 C 254.265625 221.28125 253.644531 221.035156 253.046875 220.730469 C 252.449219 220.425781 251.886719 220.066406 251.359375 219.652344 C 250.832031 219.234375 250.351562 218.773438 249.914062 218.265625 C 249.476562 217.753906 249.09375 217.210938 248.765625 216.625 C 248.4375 216.042969 248.164062 215.429688 247.957031 214.792969 C 247.746094 214.160156 247.597656 213.507812 247.515625 212.84375 C 247.433594 212.175781 247.414062 211.511719 247.460938 210.839844 C 247.414062 210.171875 247.433594 209.503906 247.515625 208.839844 C 247.597656 208.175781 247.746094 207.523438 247.957031 206.886719 C 248.164062 206.25 248.4375 205.640625 248.765625 205.054688 C 249.09375 204.472656 249.476562 203.925781 249.914062 203.417969 C 250.351562 202.910156 250.832031 202.445312 251.359375 202.03125 C 251.886719 201.617188 252.449219 201.257812 253.046875 200.953125 C 253.644531 200.644531 254.265625 200.402344 254.914062 200.21875 C 255.558594 200.035156 256.214844 199.914062 256.882812 199.859375 C 257.550781 199.914062 258.210938 200.035156 258.855469 200.21875 C 259.5 200.402344 260.121094 200.644531 260.71875 200.953125 C 261.316406 201.257812 261.878906 201.617188 262.40625 202.03125 C 262.933594 202.445312 263.414062 202.910156 263.851562 203.417969 C 264.289062 203.925781 264.671875 204.472656 265.003906 205.054688 C 265.332031 205.640625 265.601562 206.25 265.8125 206.886719 C 266.023438 207.523438 266.167969 208.175781 266.253906 208.839844 C 266.335938 209.503906 266.351562 210.171875 266.304688 210.839844 Z M 266.304688 210.839844 " fill-opacity="1" fill-rule="nonzero"/></g><path fill="#ffffff" d="M 115.582031 270.863281 C 115.703125 262.5625 117.222656 254.523438 120.136719 246.75 C 119.773438 246.683594 119.414062 246.597656 119.0625 246.492188 C 118.710938 246.382812 118.363281 246.253906 118.027344 246.105469 C 117.6875 245.960938 117.359375 245.792969 117.042969 245.605469 C 116.726562 245.417969 116.417969 245.214844 116.125 244.992188 C 115.832031 244.769531 115.550781 244.53125 115.285156 244.277344 C 115.019531 244.019531 114.769531 243.75 114.535156 243.464844 C 114.300781 243.183594 114.082031 242.886719 113.882812 242.574219 C 113.683594 242.265625 113.503906 241.945312 113.34375 241.613281 C 113.179688 241.28125 113.039062 240.941406 112.917969 240.59375 C 112.796875 240.246094 112.695312 239.894531 112.613281 239.535156 C 112.535156 239.175781 112.476562 238.8125 112.4375 238.445312 C 112.398438 238.078125 112.382812 237.710938 112.390625 237.34375 C 112.394531 236.972656 112.421875 236.605469 112.472656 236.242188 C 112.519531 235.878906 112.589844 235.515625 112.679688 235.160156 C 112.773438 234.800781 112.882812 234.453125 113.015625 234.109375 C 113.148438 233.765625 113.300781 233.429688 113.472656 233.101562 C 113.644531 232.777344 113.835938 232.460938 114.042969 232.160156 C 114.253906 231.855469 114.476562 231.5625 114.722656 231.285156 C 114.964844 231.011719 115.222656 230.746094 115.496094 230.5 C 115.769531 230.253906 116.058594 230.023438 116.359375 229.8125 C 116.660156 229.597656 116.972656 229.402344 117.292969 229.226562 C 117.617188 229.050781 117.949219 228.890625 118.292969 228.753906 C 118.636719 228.617188 118.984375 228.5 119.339844 228.402344 C 119.695312 228.308594 120.054688 228.230469 120.421875 228.175781 C 120.785156 228.125 121.152344 228.089844 121.519531 228.078125 C 121.890625 228.066406 122.257812 228.078125 122.625 228.109375 C 122.992188 228.140625 123.355469 228.195312 123.71875 228.269531 C 124.078125 228.34375 124.433594 228.441406 124.785156 228.554688 C 125.136719 228.671875 125.476562 228.808594 125.8125 228.964844 C 126.144531 229.121094 126.46875 229.296875 126.78125 229.492188 C 127.09375 229.6875 127.394531 229.898438 127.683594 230.128906 C 127.972656 230.355469 128.246094 230.601562 128.503906 230.863281 C 132.792969 224.734375 137.902344 219.390625 143.839844 214.832031 C 143.910156 207.320312 145.128906 200 147.496094 192.871094 C 143.464844 191.816406 140.679688 189.734375 140.679688 187.308594 C 140.679688 183.953125 145.972656 181.234375 152.613281 181.066406 C 155.15625 176.421875 158.171875 172.105469 161.660156 168.121094 C 165.148438 164.136719 169.023438 160.574219 173.292969 157.433594 C 171.53125 157.054688 169.753906 156.75 167.96875 156.515625 C 166.183594 156.285156 164.386719 156.125 162.589844 156.039062 C 160.789062 155.953125 158.988281 155.941406 157.1875 156 C 155.386719 156.0625 153.589844 156.199219 151.800781 156.40625 C 150.011719 156.617188 148.234375 156.898438 146.464844 157.253906 C 144.699219 157.605469 142.949219 158.03125 141.21875 158.53125 C 139.488281 159.027344 137.777344 159.597656 136.09375 160.234375 C 134.40625 160.871094 132.753906 161.578125 131.125 162.351562 C 129.496094 163.125 127.90625 163.964844 126.347656 164.871094 C 124.789062 165.773438 123.269531 166.742188 121.792969 167.769531 C 120.3125 168.800781 118.878906 169.886719 117.488281 171.035156 C 116.101562 172.179688 114.761719 173.382812 113.46875 174.636719 C 112.179688 175.894531 110.941406 177.199219 109.757812 178.558594 C 108.574219 179.917969 107.449219 181.320312 106.382812 182.769531 C 105.316406 184.21875 104.308594 185.710938 103.363281 187.246094 C 102.417969 188.777344 101.535156 190.34375 100.71875 191.949219 C 99.902344 193.554688 99.152344 195.191406 98.472656 196.855469 C 97.789062 198.523438 97.175781 200.214844 96.632812 201.929688 C 96.089844 203.648438 95.617188 205.382812 95.21875 207.136719 C 94.816406 208.894531 94.488281 210.664062 94.234375 212.445312 C 93.980469 214.226562 93.796875 216.015625 93.6875 217.8125 C 93.582031 219.609375 93.546875 221.410156 93.585938 223.207031 C 93.625 225.007812 93.738281 226.804688 93.925781 228.59375 C 94.113281 230.382812 94.371094 232.164062 94.707031 233.933594 C 95.039062 235.703125 95.445312 237.453125 95.921875 239.191406 C 96.398438 240.925781 96.945312 242.640625 97.5625 244.332031 C 98.183594 246.023438 98.867188 247.683594 99.625 249.320312 C 100.378906 250.953125 101.199219 252.554688 102.085938 254.125 C 102.96875 255.691406 103.917969 257.21875 104.929688 258.710938 C 105.941406 260.199219 107.015625 261.644531 108.144531 263.046875 C 109.273438 264.449219 110.460938 265.800781 111.703125 267.105469 C 112.945312 268.410156 114.238281 269.664062 115.582031 270.863281 Z M 118.695312 196.722656 C 118.695312 196.304688 118.773438 195.90625 118.933594 195.523438 C 119.09375 195.136719 119.320312 194.796875 119.613281 194.503906 C 119.910156 194.210938 120.25 193.984375 120.632812 193.824219 C 121.019531 193.664062 121.417969 193.585938 121.835938 193.585938 C 122.25 193.585938 122.652344 193.664062 123.035156 193.824219 C 123.421875 193.984375 123.761719 194.210938 124.054688 194.503906 C 124.351562 194.796875 124.578125 195.136719 124.738281 195.523438 C 124.894531 195.90625 124.976562 196.304688 124.976562 196.722656 L 124.976562 202.996094 C 124.976562 203.414062 124.894531 203.8125 124.738281 204.199219 C 124.578125 204.582031 124.351562 204.921875 124.054688 205.214844 C 123.761719 205.511719 123.421875 205.738281 123.035156 205.894531 C 122.652344 206.054688 122.25 206.136719 121.835938 206.136719 C 121.417969 206.136719 121.019531 206.054688 120.632812 205.894531 C 120.25 205.738281 119.910156 205.511719 119.613281 205.214844 C 119.320312 204.921875 119.09375 204.582031 118.933594 204.199219 C 118.773438 203.8125 118.695312 203.414062 118.695312 202.996094 Z M 118.695312 196.722656 " fill-opacity="1" fill-rule="nonzero"/></svg>