<svg xmlns="http://www.w3.org/2000/svg" xmlns:xlink="http://www.w3.org/1999/xlink" width="500" zoomAndPan="magnify" viewBox="0 0 375 374.999991" height="500" preserveAspectRatio="xMidYMid meet" version="1.0"><defs><g/><clipPath id="bd543dd9a6"><path d="M 63.742188 63.742188 L 311.242188 63.742188 L 311.242188 311.242188 L 63.742188 311.242188 Z M 63.742188 63.742188 " clip-rule="nonzero"/></clipPath><clipPath id="53d1198936"><path d="M 121.636719 124.636719 L 253.636719 124.636719 L 253.636719 256.636719 L 121.636719 256.636719 Z M 121.636719 124.636719 " clip-rule="nonzero"/></clipPath></defs><g clip-path="url(#bd543dd9a6)"><path fill="#004aad" d="M 187.492188 63.742188 C 119.210938 63.742188 63.742188 119.210938 63.742188 187.492188 C 63.742188 255.769531 119.210938 311.242188 187.492188 311.242188 C 255.769531 311.242188 311.242188 255.769531 311.242188 187.492188 C 311.242188 119.210938 255.769531 63.742188 187.492188 63.742188 Z M 187.492188 69.121094 C 252.933594 69.121094 305.859375 122.046875 305.859375 187.492188 C 305.859375 252.933594 252.933594 305.859375 187.492188 305.859375 C 122.046875 305.859375 69.121094 252.933594 69.121094 187.492188 C 69.121094 122.046875 122.046875 69.121094 187.492188 69.121094 Z M 187.492188 69.121094 " fill-opacity="1" fill-rule="nonzero"/></g><g clip-path="url(#53d1198936)"><path fill="#004aad" d="M 187.636719 124.636719 C 151.222656 124.636719 121.636719 154.222656 121.636719 190.636719 C 121.636719 227.050781 151.222656 256.636719 187.636719 256.636719 C 224.050781 256.636719 253.636719 227.050781 253.636719 190.636719 C 253.636719 188.683594 253.515625 186.804688 253.355469 184.988281 C 253.257812 183.898438 252.605469 182.925781 251.625 182.4375 C 250.628906 181.945312 249.460938 182.007812 248.53125 182.59375 C 246.796875 183.699219 244.808594 184.351562 242.636719 184.351562 C 237.972656 184.351562 234.054688 181.464844 232.433594 177.414062 C 232.101562 176.578125 231.429688 175.929688 230.59375 175.621094 C 229.746094 175.316406 228.8125 175.375 228.015625 175.804688 C 225.363281 177.242188 222.320312 178.066406 219.066406 178.066406 C 208.617188 178.066406 200.207031 169.65625 200.207031 159.207031 C 200.207031 155.953125 201.03125 152.910156 202.46875 150.257812 C 202.898438 149.460938 202.957031 148.527344 202.652344 147.679688 C 202.34375 146.84375 201.695312 146.171875 200.859375 145.839844 C 196.808594 144.21875 193.921875 140.300781 193.921875 135.636719 C 193.921875 133.464844 194.574219 131.476562 195.679688 129.742188 C 196.265625 128.8125 196.328125 127.644531 195.835938 126.648438 C 195.347656 125.667969 194.375 125.015625 193.285156 124.917969 C 191.46875 124.757812 189.589844 124.636719 187.636719 124.636719 Z M 228.492188 124.636719 C 225.019531 124.636719 222.207031 127.449219 222.207031 130.921875 C 222.207031 134.398438 225.019531 137.207031 228.492188 137.207031 C 231.96875 137.207031 234.78125 134.398438 234.78125 130.921875 C 234.78125 127.449219 231.96875 124.636719 228.492188 124.636719 Z M 187.636719 130.921875 C 188.089844 130.921875 188.558594 130.972656 189.011719 130.996094 C 188.53125 132.554688 187.636719 133.917969 187.636719 135.636719 C 187.636719 141.726562 191.210938 146.585938 195.996094 149.65625 C 194.769531 152.628906 193.921875 155.808594 193.921875 159.207031 C 193.921875 173.054688 205.21875 184.351562 219.066406 184.351562 C 222.464844 184.351562 225.644531 183.503906 228.617188 182.277344 C 231.6875 187.0625 236.546875 190.636719 242.636719 190.636719 C 244.355469 190.636719 245.71875 189.742188 247.289062 189.261719 C 247.300781 189.714844 247.351562 190.183594 247.351562 190.636719 C 247.351562 223.648438 220.648438 250.351562 187.636719 250.351562 C 154.625 250.351562 127.921875 223.648438 127.921875 190.636719 C 127.921875 157.625 154.625 130.921875 187.636719 130.921875 Z M 223.78125 149.78125 C 221.175781 149.78125 219.066406 151.890625 219.066406 154.492188 C 219.066406 157.097656 221.175781 159.207031 223.78125 159.207031 C 226.382812 159.207031 228.492188 157.097656 228.492188 154.492188 C 228.492188 151.890625 226.382812 149.78125 223.78125 149.78125 Z M 176.636719 159.207031 C 174.035156 159.207031 171.921875 161.320312 171.921875 163.921875 C 171.921875 166.523438 174.035156 168.636719 176.636719 168.636719 C 179.238281 168.636719 181.351562 166.523438 181.351562 163.921875 C 181.351562 161.320312 179.238281 159.207031 176.636719 159.207031 Z M 250.492188 159.207031 C 248.761719 159.207031 247.351562 160.621094 247.351562 162.351562 C 247.351562 164.082031 248.761719 165.492188 250.492188 165.492188 C 252.226562 165.492188 253.636719 164.082031 253.636719 162.351562 C 253.636719 160.621094 252.226562 159.207031 250.492188 159.207031 Z M 156.207031 174.921875 C 151.003906 174.921875 146.78125 179.144531 146.78125 184.351562 C 146.78125 189.554688 151.003906 193.78125 156.207031 193.78125 C 161.414062 193.78125 165.636719 189.554688 165.636719 184.351562 C 165.636719 179.144531 161.414062 174.921875 156.207031 174.921875 Z M 186.066406 187.492188 C 183.460938 187.492188 181.351562 189.605469 181.351562 192.207031 C 181.351562 194.8125 183.460938 196.921875 186.066406 196.921875 C 188.667969 196.921875 190.78125 194.8125 190.78125 192.207031 C 190.78125 189.605469 188.667969 187.492188 186.066406 187.492188 Z M 162.492188 209.492188 C 159.019531 209.492188 156.207031 212.304688 156.207031 215.78125 C 156.207031 219.253906 159.019531 222.066406 162.492188 222.066406 C 165.96875 222.066406 168.78125 219.253906 168.78125 215.78125 C 168.78125 212.304688 165.96875 209.492188 162.492188 209.492188 Z M 204.921875 212.636719 C 200.589844 212.636719 197.066406 216.160156 197.066406 220.492188 C 197.066406 224.828125 200.589844 228.351562 204.921875 228.351562 C 209.257812 228.351562 212.78125 224.828125 212.78125 220.492188 C 212.78125 216.160156 209.257812 212.636719 204.921875 212.636719 Z M 204.921875 212.636719 " fill-opacity="1" fill-rule="nonzero"/></g><g fill="#004aad" fill-opacity="1"><g transform="translate(127.196566, 116.451256)"><g><path d="M -1.875 -14.5 C -1.125 -15.0625 -0.269531 -15.460938 0.6875 -15.703125 C 1.644531 -15.941406 2.570312 -15.988281 3.46875 -15.84375 L 3.296875 -12.96875 C 2.660156 -13.132812 2.023438 -13.160156 1.390625 -13.046875 C 0.765625 -12.941406 0.226562 -12.71875 -0.21875 -12.375 C -1.019531 -11.78125 -1.476562 -11 -1.59375 -10.03125 C -1.707031 -9.070312 -1.457031 -8.179688 -0.84375 -7.359375 C -0.207031 -6.503906 0.585938 -5.992188 1.546875 -5.828125 C 2.515625 -5.660156 3.398438 -5.875 4.203125 -6.46875 C 4.628906 -6.789062 4.988281 -7.226562 5.28125 -7.78125 C 5.582031 -8.34375 5.769531 -8.9375 5.84375 -9.5625 L 8.546875 -9.09375 C 8.410156 -8.132812 8.09375 -7.207031 7.59375 -6.3125 C 7.101562 -5.414062 6.488281 -4.6875 5.75 -4.125 C 4.21875 -2.988281 2.578125 -2.535156 0.828125 -2.765625 C -0.921875 -3.003906 -2.351562 -3.867188 -3.46875 -5.359375 C -4.550781 -6.804688 -4.941406 -8.40625 -4.640625 -10.15625 C -4.335938 -11.90625 -3.414062 -13.351562 -1.875 -14.5 Z M -1.875 -14.5 "/></g></g></g><g fill="#004aad" fill-opacity="1"><g transform="translate(141.238797, 106.411018)"><g><path d="M 1.0625 -14.625 C 2.832031 -15.46875 4.566406 -15.613281 6.265625 -15.0625 C 7.960938 -14.519531 9.207031 -13.425781 10 -11.78125 C 10.78125 -10.125 10.847656 -8.453125 10.203125 -6.765625 C 9.566406 -5.085938 8.367188 -3.828125 6.609375 -2.984375 C 4.847656 -2.148438 3.113281 -2.007812 1.40625 -2.5625 C -0.289062 -3.125 -1.535156 -4.238281 -2.328125 -5.90625 C -3.117188 -7.5625 -3.191406 -9.21875 -2.546875 -10.875 C -1.898438 -12.53125 -0.695312 -13.78125 1.0625 -14.625 Z M 2.265625 -12.203125 C 1.367188 -11.773438 0.757812 -11.085938 0.4375 -10.140625 C 0.113281 -9.203125 0.179688 -8.253906 0.640625 -7.296875 C 1.097656 -6.347656 1.800781 -5.691406 2.75 -5.328125 C 3.695312 -4.972656 4.609375 -5.003906 5.484375 -5.421875 C 6.367188 -5.847656 6.960938 -6.535156 7.265625 -7.484375 C 7.566406 -8.441406 7.488281 -9.394531 7.03125 -10.34375 C 6.570312 -11.300781 5.878906 -11.953125 4.953125 -12.296875 C 4.035156 -12.648438 3.140625 -12.617188 2.265625 -12.203125 Z M 2.265625 -12.203125 "/></g></g></g><g fill="#004aad" fill-opacity="1"><g transform="translate(158.804021, 98.581294)"><g><path d="M 4.0625 -14.078125 C 5.976562 -14.535156 7.707031 -14.328125 9.25 -13.453125 C 10.800781 -12.578125 11.789062 -11.25 12.21875 -9.46875 C 12.644531 -7.6875 12.367188 -6.035156 11.390625 -4.515625 C 10.410156 -3.003906 8.972656 -2.019531 7.078125 -1.5625 C 5.179688 -1.101562 3.457031 -1.320312 1.90625 -2.21875 C 0.351562 -3.125 -0.632812 -4.472656 -1.0625 -6.265625 C -1.5 -8.054688 -1.226562 -9.691406 -0.25 -11.171875 C 0.726562 -12.648438 2.164062 -13.617188 4.0625 -14.078125 Z M 4.734375 -11.484375 C 3.773438 -11.242188 3.035156 -10.695312 2.515625 -9.84375 C 2.003906 -8.988281 1.875 -8.046875 2.125 -7.015625 C 2.375 -5.992188 2.925781 -5.207031 3.78125 -4.65625 C 4.644531 -4.113281 5.546875 -3.957031 6.484375 -4.1875 C 7.429688 -4.414062 8.148438 -4.960938 8.640625 -5.828125 C 9.140625 -6.703125 9.265625 -7.648438 9.015625 -8.671875 C 8.765625 -9.703125 8.222656 -10.484375 7.390625 -11.015625 C 6.554688 -11.554688 5.671875 -11.710938 4.734375 -11.484375 Z M 4.734375 -11.484375 "/></g></g></g><g fill="#004aad" fill-opacity="1"><g transform="translate(177.64208, 94.577196)"><g><path d="M 9.5 -0.328125 L 5.984375 -5.1875 L 4.359375 -3.265625 L 4.46875 -0.15625 L 1.265625 -0.046875 L 0.828125 -12.671875 L 4.03125 -12.78125 L 4.21875 -7.328125 L 8.875 -12.953125 L 12.578125 -13.078125 L 8.09375 -7.703125 L 13.328125 -0.46875 Z M 9.5 -0.328125 "/></g></g></g><g fill="#004aad" fill-opacity="1"><g transform="translate(196.116744, 94.636991)"><g><path d="M 4.4375 0.546875 L 1.25 0.15625 L 2.796875 -12.375 L 5.984375 -11.984375 Z M 4.4375 0.546875 "/></g></g></g><g fill="#004aad" fill-opacity="1"><g transform="translate(206.883586, 96.193142)"><g><path d="M 11.609375 -9.984375 L 9.390625 -1.71875 C 9.046875 -0.425781 8.398438 0.472656 7.453125 0.984375 C 6.515625 1.503906 5.394531 1.59375 4.09375 1.25 C 2.414062 0.800781 1.179688 -0.226562 0.390625 -1.84375 L 2.390625 -3.53125 C 3.015625 -2.375 3.742188 -1.6875 4.578125 -1.46875 C 5.441406 -1.238281 6.007812 -1.628906 6.28125 -2.640625 L 7.8125 -8.3125 L 3.640625 -9.421875 L 4.3125 -11.9375 Z M 11.609375 -9.984375 "/></g></g></g><g fill="#004aad" fill-opacity="1"><g transform="translate(220.878402, 100.207407)"><g><path d="M 9.734375 2.015625 L 4.734375 -0.34375 L 2.90625 1.375 L -0.078125 -0.046875 L 10.25 -9.109375 L 13.234375 -7.703125 L 12.640625 5.984375 L 9.546875 4.515625 Z M 9.90625 -0.578125 L 10.265625 -5.578125 L 6.625 -2.140625 Z M 9.90625 -0.578125 "/></g></g></g><g fill="#004aad" fill-opacity="1"><g transform="translate(237.519832, 108.649003)"><g><path d="M 7.125 5.296875 L 7.75 1.3125 L 7.671875 1.265625 L 5.71875 -0.1875 L 3.59375 2.671875 L 1.015625 0.75 L 8.546875 -9.375 L 13.078125 -6 C 14.421875 -5 15.226562 -3.921875 15.5 -2.765625 C 15.78125 -1.617188 15.5 -0.484375 14.65625 0.640625 C 13.5 2.203125 12.082031 2.835938 10.40625 2.546875 L 10.0625 7.46875 Z M 7.21875 -2.203125 L 9.171875 -0.75 C 9.734375 -0.332031 10.269531 -0.148438 10.78125 -0.203125 C 11.300781 -0.253906 11.757812 -0.546875 12.15625 -1.078125 C 12.539062 -1.597656 12.679688 -2.109375 12.578125 -2.609375 C 12.472656 -3.109375 12.140625 -3.566406 11.578125 -3.984375 L 9.625 -5.4375 Z M 7.21875 -2.203125 "/></g></g></g><g fill="#004aad" fill-opacity="1"><g transform="translate(93.741734, 235.27888)"><g><path d="M 3.1875 5.609375 L 4.640625 3 C 4.585938 2.9375 4.519531 2.832031 4.4375 2.6875 L 3.453125 0.953125 L 1.25 2.203125 L 0.546875 0.96875 L 7.875 -3.1875 L 9.5625 -0.21875 C 10.09375 0.71875 10.285156 1.566406 10.140625 2.328125 C 9.992188 3.085938 9.523438 3.695312 8.734375 4.15625 C 8.140625 4.488281 7.566406 4.632812 7.015625 4.59375 C 6.472656 4.5625 5.96875 4.351562 5.5 3.96875 L 3.984375 7.015625 Z M 4.5625 0.3125 L 5.546875 2.046875 C 6.210938 3.222656 7.039062 3.535156 8.03125 2.984375 C 8.96875 2.441406 9.101562 1.582031 8.4375 0.40625 L 7.453125 -1.328125 Z M 4.5625 0.3125 "/></g></g></g><g fill="#004aad" fill-opacity="1"><g transform="translate(100.552152, 246.654844)"><g><path d="M 9.984375 1.46875 L 7.25 -2.21875 L 5.4375 -0.875 L 7.875 2.421875 L 6.84375 3.1875 L 4.40625 -0.109375 L 2.546875 1.265625 L 5.359375 5.0625 L 4.328125 5.828125 L 0.65625 0.890625 L 7.421875 -4.125 L 11.015625 0.703125 Z M 9.984375 1.46875 "/></g></g></g><g fill="#004aad" fill-opacity="1"><g transform="translate(108.160873, 256.634068)"><g><path d="M 6.859375 6.953125 L 5.84375 5.921875 L 9.109375 -0.109375 L 3.015625 3.0625 L 1.984375 2.015625 L 6.015625 -5.90625 L 7.09375 -4.8125 L 3.65625 1.453125 L 9.953125 -1.890625 L 10.9375 -0.921875 L 7.5 5.359375 L 13.796875 1.984375 L 14.828125 3.03125 Z M 6.859375 6.953125 "/></g></g></g><g fill="#004aad" fill-opacity="1"><g transform="translate(120.517421, 268.487144)"><g><path d="M 6.375 2.4375 L 2.984375 -0.125 L 1.1875 0.890625 L 0.015625 0.015625 L 8.0625 -4.46875 L 9.21875 -3.59375 L 7.0625 5.34375 L 5.859375 4.421875 Z M 6.6875 1.078125 L 7.6875 -2.84375 L 4.15625 -0.828125 Z M 6.6875 1.078125 "/></g></g></g><g fill="#004aad" fill-opacity="1"><g transform="translate(131.434471, 276.363947)"><g><path d="M 5.59375 3.203125 L 5.515625 0.234375 C 5.441406 0.191406 5.335938 0.128906 5.203125 0.046875 L 3.46875 -0.9375 L 2.203125 1.265625 L 0.96875 0.546875 L 5.15625 -6.765625 L 8.125 -5.0625 C 9.050781 -4.53125 9.644531 -3.894531 9.90625 -3.15625 C 10.175781 -2.425781 10.085938 -1.664062 9.640625 -0.875 C 9.296875 -0.289062 8.878906 0.125 8.390625 0.375 C 7.898438 0.632812 7.359375 0.71875 6.765625 0.625 L 7 4.015625 Z M 4.09375 -2.046875 L 5.828125 -1.0625 C 6.992188 -0.382812 7.863281 -0.535156 8.4375 -1.515625 C 8.96875 -2.453125 8.648438 -3.257812 7.484375 -3.9375 L 5.75 -4.921875 Z M 4.09375 -2.046875 "/></g></g></g><g fill="#004aad" fill-opacity="1"><g transform="translate(143.102125, 282.732985)"><g><path d="M 4.25 -7.359375 L 7.4375 -6.046875 C 8.601562 -5.554688 9.414062 -4.789062 9.875 -3.75 C 10.332031 -2.707031 10.328125 -1.617188 9.859375 -0.484375 C 9.390625 0.648438 8.617188 1.421875 7.546875 1.828125 C 6.484375 2.242188 5.363281 2.210938 4.1875 1.734375 L 1.03125 0.421875 Z M 5.0625 -5.625 L 2.828125 -0.21875 L 4.734375 0.5625 C 5.492188 0.875 6.234375 0.882812 6.953125 0.59375 C 7.671875 0.300781 8.191406 -0.234375 8.515625 -1.015625 C 8.847656 -1.804688 8.851562 -2.566406 8.53125 -3.296875 C 8.21875 -4.023438 7.675781 -4.546875 6.90625 -4.859375 Z M 5.0625 -5.625 "/></g></g></g><g fill="#004aad" fill-opacity="1"><g transform="translate(155.98748, 287.639246)"><g/></g></g><g fill="#004aad" fill-opacity="1"><g transform="translate(163.250648, 289.714246)"><g><path d="M 2.734375 -8.046875 L 6.03125 -7.390625 C 7.0625 -7.191406 7.8125 -6.789062 8.28125 -6.1875 C 8.757812 -5.582031 8.910156 -4.828125 8.734375 -3.921875 C 8.546875 -2.984375 8.113281 -2.3125 7.4375 -1.90625 C 6.757812 -1.507812 5.90625 -1.410156 4.875 -1.609375 L 2.96875 -2 L 2.484375 0.484375 L 1.09375 0.21875 Z M 3.875 -6.515625 L 3.21875 -3.25 L 5.0625 -2.875 C 6.382812 -2.613281 7.160156 -3.039062 7.390625 -4.15625 C 7.597656 -5.21875 7.039062 -5.878906 5.71875 -6.140625 Z M 3.875 -6.515625 "/></g></g></g><g fill="#004aad" fill-opacity="1"><g transform="translate(175.721921, 291.915037)"><g><path d="M 6.4375 0.46875 L 5.078125 -2.1875 C 4.992188 -2.1875 4.867188 -2.191406 4.703125 -2.203125 L 2.71875 -2.34375 L 2.53125 0.1875 L 1.109375 0.078125 L 1.71875 -8.328125 L 5.125 -8.078125 C 6.195312 -7.992188 7.007812 -7.679688 7.5625 -7.140625 C 8.125 -6.597656 8.375 -5.867188 8.3125 -4.953125 C 8.257812 -4.273438 8.066406 -3.710938 7.734375 -3.265625 C 7.398438 -2.828125 6.941406 -2.523438 6.359375 -2.359375 L 8.046875 0.578125 Z M 2.8125 -3.609375 L 4.796875 -3.46875 C 6.148438 -3.375 6.867188 -3.894531 6.953125 -5.03125 C 7.023438 -6.113281 6.382812 -6.703125 5.03125 -6.796875 L 3.046875 -6.9375 Z M 2.8125 -3.609375 "/></g></g></g><g fill="#004aad" fill-opacity="1"><g transform="translate(189.006451, 292.614124)"><g><path d="M 1.28125 -7.3125 C 2.09375 -8.175781 3.125 -8.644531 4.375 -8.71875 C 5.632812 -8.789062 6.71875 -8.445312 7.625 -7.6875 C 8.53125 -6.925781 9.015625 -5.945312 9.078125 -4.75 C 9.148438 -3.550781 8.78125 -2.515625 7.96875 -1.640625 C 7.15625 -0.765625 6.117188 -0.289062 4.859375 -0.21875 C 3.609375 -0.144531 2.53125 -0.492188 1.625 -1.265625 C 0.71875 -2.046875 0.226562 -3.035156 0.15625 -4.234375 C 0.09375 -5.429688 0.46875 -6.457031 1.28125 -7.3125 Z M 4.453125 -7.453125 C 3.628906 -7.410156 2.9375 -7.082031 2.375 -6.46875 C 1.820312 -5.863281 1.566406 -5.144531 1.609375 -4.3125 C 1.660156 -3.476562 2 -2.789062 2.625 -2.25 C 3.25 -1.707031 3.972656 -1.457031 4.796875 -1.5 C 5.617188 -1.550781 6.304688 -1.878906 6.859375 -2.484375 C 7.410156 -3.097656 7.660156 -3.820312 7.609375 -4.65625 C 7.566406 -5.488281 7.234375 -6.175781 6.609375 -6.71875 C 5.992188 -7.257812 5.273438 -7.503906 4.453125 -7.453125 Z M 4.453125 -7.453125 "/></g></g></g><g fill="#004aad" fill-opacity="1"><g transform="translate(203.320427, 291.456127)"><g><path d="M -0.515625 -8.484375 L 2.875 -9.140625 C 4.101562 -9.378906 5.195312 -9.1875 6.15625 -8.5625 C 7.113281 -7.945312 7.707031 -7.035156 7.9375 -5.828125 C 8.175781 -4.628906 7.960938 -3.5625 7.296875 -2.625 C 6.640625 -1.695312 5.691406 -1.109375 4.453125 -0.859375 L 1.09375 -0.21875 Z M 1.125 -7.5 L 2.234375 -1.734375 L 4.265625 -2.125 C 5.066406 -2.28125 5.6875 -2.679688 6.125 -3.328125 C 6.5625 -3.972656 6.695312 -4.710938 6.53125 -5.546875 C 6.375 -6.378906 5.960938 -7.015625 5.296875 -7.453125 C 4.640625 -7.898438 3.90625 -8.039062 3.09375 -7.875 Z M 1.125 -7.5 "/></g></g></g><g fill="#004aad" fill-opacity="1"><g transform="translate(216.930262, 288.496444)"><g><path d="M 5.171875 -10.609375 L 6.734375 -5.921875 C 7.085938 -4.890625 7.050781 -3.96875 6.625 -3.15625 C 6.207031 -2.34375 5.457031 -1.753906 4.375 -1.390625 C 3.300781 -1.035156 2.351562 -1.054688 1.53125 -1.453125 C 0.71875 -1.847656 0.132812 -2.5625 -0.21875 -3.59375 L -1.78125 -8.28125 L -0.4375 -8.734375 L 1.125 -4.046875 C 1.34375 -3.390625 1.707031 -2.929688 2.21875 -2.671875 C 2.738281 -2.421875 3.332031 -2.40625 4 -2.625 C 4.644531 -2.84375 5.09375 -3.203125 5.34375 -3.703125 C 5.59375 -4.210938 5.601562 -4.800781 5.375 -5.46875 L 3.8125 -10.15625 Z M 5.171875 -10.609375 "/></g></g></g><g fill="#004aad" fill-opacity="1"><g transform="translate(229.886475, 283.821931)"><g><path d="M 0.6875 -9.71875 C 1.21875 -9.976562 1.785156 -10.128906 2.390625 -10.171875 C 3.003906 -10.210938 3.582031 -10.132812 4.125 -9.9375 L 3.828125 -8.640625 C 3.410156 -8.816406 2.972656 -8.894531 2.515625 -8.875 C 2.054688 -8.863281 1.632812 -8.765625 1.25 -8.578125 C 0.488281 -8.210938 -0.0234375 -7.644531 -0.296875 -6.875 C -0.566406 -6.113281 -0.523438 -5.363281 -0.171875 -4.625 C 0.191406 -3.875 0.757812 -3.363281 1.53125 -3.09375 C 2.300781 -2.832031 3.066406 -2.882812 3.828125 -3.25 C 4.617188 -3.632812 5.175781 -4.273438 5.5 -5.171875 L 6.671875 -4.703125 C 6.472656 -4.128906 6.164062 -3.601562 5.75 -3.125 C 5.34375 -2.644531 4.875 -2.273438 4.34375 -2.015625 C 3.226562 -1.484375 2.109375 -1.40625 0.984375 -1.78125 C -0.128906 -2.15625 -0.945312 -2.882812 -1.46875 -3.96875 C -1.988281 -5.050781 -2.039062 -6.144531 -1.625 -7.25 C -1.207031 -8.351562 -0.4375 -9.175781 0.6875 -9.71875 Z M 0.6875 -9.71875 "/></g></g></g><g fill="#004aad" fill-opacity="1"><g transform="translate(241.383846, 277.932455)"><g><path d="M 1.96875 -9.703125 L -0.296875 -8.28125 L 3.53125 -2.25 L 2.328125 -1.484375 L -1.5 -7.515625 L -3.734375 -6.09375 L -4.421875 -7.171875 L 1.28125 -10.78125 Z M 1.96875 -9.703125 "/></g></g></g><g fill="#004aad" fill-opacity="1"><g transform="translate(250.850375, 271.591147)"><g><path d="M 2 -1.546875 L 0.875 -0.671875 L -4.265625 -7.34375 L -3.140625 -8.21875 Z M 2 -1.546875 "/></g></g></g><g fill="#004aad" fill-opacity="1"><g transform="translate(257.194849, 266.556879)"><g><path d="M 3.53125 -3.328125 L 2.46875 -2.328125 L -5.765625 -6.140625 L -4.640625 -7.203125 L 1.9375 -4 L -0.84375 -10.78125 L 0.234375 -11.796875 Z M 3.53125 -3.328125 "/></g></g></g><g fill="#004aad" fill-opacity="1"><g transform="translate(266.24022, 257.562533)"><g><path d="M 1.65625 -1.90625 L 0.734375 -0.84375 L -5.625 -6.375 L -4.703125 -7.4375 Z M 1.65625 -1.90625 "/></g></g></g><g fill="#004aad" fill-opacity="1"><g transform="translate(271.437673, 251.392384)"><g><path d="M -1.796875 -9.734375 L -3.359375 -7.578125 L 2.4375 -3.40625 L 1.609375 -2.25 L -4.1875 -6.421875 L -5.734375 -4.265625 L -6.78125 -5.015625 L -2.84375 -10.484375 Z M -1.796875 -9.734375 "/></g></g></g><g fill="#004aad" fill-opacity="1"><g transform="translate(277.952899, 241.93286)"><g><path d="M -0.203125 -5.359375 L 2.234375 -3.984375 L 1.546875 -2.75 L -0.84375 -4.09375 L -7.34375 -4.140625 L -6.640625 -5.375 L -1.890625 -5.46875 L -4.3125 -9.53125 L -3.59375 -10.796875 Z M -0.203125 -5.359375 "/></g></g></g></svg>