<svg xmlns="http://www.w3.org/2000/svg" xmlns:xlink="http://www.w3.org/1999/xlink" width="2000" zoomAndPan="magnify" viewBox="0 0 1500 1499.999933" height="2000" preserveAspectRatio="xMidYMid meet" version="1.0"><defs><g/><clipPath id="9ee8a6ab43"><path d="M 166.519531 412 L 488.269531 412 L 488.269531 943 L 166.519531 943 Z M 166.519531 412 " clip-rule="nonzero"/></clipPath><clipPath id="519616d3c0"><path d="M 189 626 L 421 626 L 421 856.742188 L 189 856.742188 Z M 189 626 " clip-rule="nonzero"/></clipPath></defs><g clip-path="url(#9ee8a6ab43)"><path fill="#200f05" d="M 418.035156 933.761719 C 467.632812 919.929688 488.355469 885.816406 488.355469 835.84375 L 488.355469 596.839844 C 488.355469 571.898438 482.472656 554.746094 469.941406 533.640625 C 463.921875 523.492188 457.691406 513.878906 453.070312 502.941406 C 452.113281 500.6875 451.265625 498.054688 450.511719 495.195312 C 456.816406 492.4375 461.804688 487.878906 462.140625 482.132812 C 462.523438 475.683594 455.273438 470.3125 452.410156 464.886719 C 465.691406 458.621094 464.433594 441.933594 446.09375 439.128906 C 446.148438 437.886719 446.183594 436.640625 446.183594 435.402344 C 446.183594 424.558594 443.925781 417.695312 432.398438 413.167969 C 428.738281 411.738281 412.3125 413.699219 408.09375 414.054688 C 392.25 415.386719 376.417969 416.273438 360.503906 416.488281 C 338.488281 416.785156 316.386719 416.785156 294.363281 416.488281 C 278.457031 416.273438 262.625 415.386719 246.769531 414.054688 C 242.554688 413.699219 226.136719 411.730469 222.476562 413.167969 C 210.949219 417.695312 208.691406 424.558594 208.691406 435.402344 C 208.691406 436.640625 208.726562 437.886719 208.78125 439.128906 C 190.433594 441.933594 189.1875 458.621094 202.464844 464.886719 C 199.601562 470.3125 192.351562 475.683594 192.734375 482.132812 C 193.070312 487.878906 198.050781 492.4375 204.363281 495.195312 C 203.601562 498.054688 202.761719 500.6875 201.804688 502.941406 C 197.183594 513.878906 190.957031 523.492188 184.925781 533.640625 C 172.394531 554.746094 166.519531 571.90625 166.519531 596.839844 L 166.519531 835.84375 C 166.519531 885.816406 187.234375 919.929688 236.832031 933.761719 C 249.996094 937.429688 264.535156 939.300781 278.125 940.566406 C 309.933594 943.53125 344.941406 943.53125 376.738281 940.566406 C 390.332031 939.300781 404.878906 937.429688 418.035156 933.761719 Z M 324.472656 925.46875 C 264.195312 925.5625 216.835938 922.511719 196.324219 888.570312 C 187.582031 874.097656 180.269531 853.546875 183 824.410156 C 183.425781 822.703125 185.203125 821.652344 186.949219 822.070312 C 188.699219 822.496094 189.777344 824.21875 189.339844 825.925781 C 187.347656 847.59375 191.796875 861.980469 200.453125 882.566406 C 206.898438 897.878906 223.992188 907.585938 243.988281 912.269531 C 272.074219 918.835938 305.902344 919.132812 323.976562 919.113281 C 325.78125 918.984375 327.351562 920.300781 327.480469 922.054688 C 327.621094 923.804688 326.273438 925.335938 324.472656 925.46875 Z M 433.953125 900.671875 C 480 885.027344 465.898438 788.5625 465.84375 746.015625 C 465.898438 744.074219 467.457031 742.550781 469.339844 742.609375 C 471.222656 742.664062 472.707031 744.273438 472.644531 746.214844 C 472.714844 794.542969 487.746094 889.742188 435.546875 907.492188 C 433.71875 907.941406 431.878906 906.78125 431.445312 904.902344 C 430.996094 903.019531 432.121094 901.121094 433.953125 900.671875 Z M 209.039062 537.417969 C 182.453125 580.703125 191.5 610.917969 191.257812 662.335938 C 191.234375 664.175781 189.722656 665.648438 187.882812 665.632812 C 186.046875 665.605469 184.578125 664.105469 184.597656 662.269531 C 184.855469 607.683594 175.464844 579.308594 203.59375 533.597656 C 204.640625 532.097656 206.722656 531.734375 208.226562 532.78125 C 209.726562 533.839844 210.089844 535.921875 209.039062 537.417969 Z M 360.597656 422.910156 C 400.261719 422.375 427.535156 418.160156 430.046875 419.148438 C 436.667969 421.75 439.746094 422.9375 439.746094 435.402344 L 439.761719 438.738281 C 438.480469 438.753906 437.152344 438.839844 435.773438 438.988281 C 358.246094 447.230469 296.621094 447.230469 219.101562 438.988281 C 217.722656 438.839844 216.394531 438.753906 215.113281 438.738281 L 215.121094 435.402344 C 215.121094 422.9375 218.199219 421.75 224.828125 419.148438 C 227.339844 418.160156 254.605469 422.375 294.277344 422.910156 C 316.328125 423.214844 338.546875 423.214844 360.597656 422.910156 Z M 436.449219 445.375 C 457.015625 441.46875 460.816406 456.433594 445.722656 461.296875 C 358.445312 469.835938 296.421875 469.835938 209.152344 461.296875 C 194.058594 456.433594 197.851562 441.46875 218.417969 445.375 C 263.3125 450.101562 297.121094 451.753906 331.253906 451.589844 C 362.984375 451.425781 394.996094 449.761719 436.449219 445.375 Z M 444.359375 466.871094 C 447.136719 471.890625 454.570312 476.050781 453.695312 481.777344 C 452.800781 487.679688 443.667969 490.269531 437.492188 490.859375 C 364.875 497.726562 290 497.726562 217.382812 490.859375 C 211.199219 490.269531 202.066406 487.679688 201.171875 481.777344 C 200.304688 476.050781 207.738281 471.890625 210.515625 466.871094 C 271.882812 476.195312 382.992188 476.195312 444.359375 466.871094 Z M 444.535156 496.640625 C 445.289062 500.117188 446.15625 503.105469 447.144531 505.4375 C 460.257812 536.476562 481.917969 551.632812 481.917969 596.839844 L 481.917969 835.84375 C 481.917969 881.457031 464.320312 914.183594 416.308594 927.574219 C 373.722656 939.449219 281.152344 939.449219 238.558594 927.574219 C 190.554688 914.175781 172.949219 881.457031 172.949219 835.84375 L 172.949219 596.839844 C 172.949219 551.625 194.617188 536.484375 207.730469 505.4375 C 208.71875 503.105469 209.578125 500.117188 210.339844 496.640625 C 297.46875 505.421875 357.398438 505.421875 444.535156 496.640625 " fill-opacity="1" fill-rule="evenodd"/></g><path fill="#ffffff" d="M 454.847656 735.886719 C 452.839844 736.179688 450.789062 736.335938 448.699219 736.335938 C 429.464844 736.335938 413.1875 723.777344 407.605469 706.429688 C 406.652344 703.464844 404.226562 701.183594 401.160156 700.597656 C 369.222656 694.527344 345.070312 666.539062 345.070312 632.890625 C 345.070312 618.757812 349.34375 605.628906 356.652344 594.695312 C 358.390625 592.09375 356.941406 588.632812 353.871094 588.027344 C 345.4375 586.359375 336.722656 585.476562 327.796875 585.476562 C 253.871094 585.476562 193.941406 645.300781 193.941406 719.09375 C 193.941406 792.886719 253.871094 852.710938 327.796875 852.710938 C 394.421875 852.710938 449.515625 804.300781 459.875 740.699219 C 460.347656 737.8125 457.742188 735.460938 454.847656 735.886719 Z M 454.847656 735.886719 " fill-opacity="1" fill-rule="nonzero"/><path fill="#000000" d="M 284.617188 675.992188 C 284.617188 676.554688 284.589844 677.121094 284.535156 677.679688 C 284.480469 678.242188 284.394531 678.800781 284.285156 679.355469 C 284.175781 679.910156 284.039062 680.457031 283.875 680.996094 C 283.710938 681.535156 283.519531 682.066406 283.304688 682.589844 C 283.085938 683.109375 282.84375 683.621094 282.578125 684.117188 C 282.3125 684.617188 282.023438 685.097656 281.707031 685.570312 C 281.394531 686.039062 281.058594 686.492188 280.699219 686.929688 C 280.339844 687.363281 279.960938 687.78125 279.558594 688.179688 C 279.160156 688.582031 278.742188 688.960938 278.304688 689.316406 C 277.867188 689.675781 277.414062 690.011719 276.941406 690.324219 C 276.472656 690.640625 275.988281 690.929688 275.488281 691.195312 C 274.992188 691.460938 274.480469 691.703125 273.957031 691.917969 C 273.433594 692.132812 272.902344 692.324219 272.363281 692.488281 C 271.820312 692.652344 271.273438 692.789062 270.71875 692.898438 C 270.164062 693.007812 269.605469 693.09375 269.042969 693.148438 C 268.476562 693.203125 267.914062 693.230469 267.347656 693.230469 C 266.78125 693.230469 266.21875 693.203125 265.65625 693.148438 C 265.09375 693.09375 264.535156 693.007812 263.980469 692.898438 C 263.425781 692.789062 262.875 692.652344 262.335938 692.488281 C 261.792969 692.324219 261.261719 692.132812 260.738281 691.917969 C 260.21875 691.703125 259.707031 691.460938 259.207031 691.195312 C 258.710938 690.929688 258.222656 690.640625 257.753906 690.324219 C 257.285156 690.011719 256.832031 689.675781 256.394531 689.316406 C 255.957031 688.960938 255.539062 688.582031 255.136719 688.179688 C 254.738281 687.78125 254.359375 687.363281 254 686.929688 C 253.640625 686.492188 253.304688 686.039062 252.988281 685.570312 C 252.675781 685.097656 252.386719 684.617188 252.117188 684.117188 C 251.851562 683.621094 251.609375 683.109375 251.394531 682.589844 C 251.175781 682.066406 250.988281 681.535156 250.824219 680.996094 C 250.660156 680.457031 250.519531 679.910156 250.410156 679.355469 C 250.300781 678.800781 250.21875 678.242188 250.164062 677.679688 C 250.105469 677.121094 250.078125 676.554688 250.078125 675.992188 C 250.078125 675.425781 250.105469 674.863281 250.164062 674.300781 C 250.21875 673.742188 250.300781 673.183594 250.410156 672.628906 C 250.519531 672.074219 250.660156 671.527344 250.824219 670.988281 C 250.988281 670.449219 251.175781 669.917969 251.394531 669.394531 C 251.609375 668.875 251.851562 668.363281 252.117188 667.867188 C 252.386719 667.367188 252.675781 666.882812 252.988281 666.414062 C 253.304688 665.945312 253.640625 665.492188 254 665.054688 C 254.359375 664.621094 254.738281 664.203125 255.136719 663.800781 C 255.539062 663.402344 255.957031 663.023438 256.394531 662.667969 C 256.832031 662.308594 257.285156 661.972656 257.753906 661.660156 C 258.222656 661.34375 258.710938 661.054688 259.207031 660.789062 C 259.707031 660.523438 260.21875 660.28125 260.738281 660.066406 C 261.261719 659.847656 261.792969 659.660156 262.335938 659.496094 C 262.875 659.332031 263.425781 659.195312 263.980469 659.085938 C 264.535156 658.972656 265.09375 658.890625 265.65625 658.835938 C 266.21875 658.78125 266.78125 658.753906 267.347656 658.753906 C 267.914062 658.753906 268.476562 658.78125 269.042969 658.835938 C 269.605469 658.890625 270.164062 658.972656 270.71875 659.085938 C 271.273438 659.195312 271.820312 659.332031 272.363281 659.496094 C 272.902344 659.660156 273.433594 659.847656 273.957031 660.066406 C 274.480469 660.28125 274.992188 660.523438 275.488281 660.789062 C 275.988281 661.054688 276.472656 661.34375 276.941406 661.660156 C 277.414062 661.972656 277.867188 662.308594 278.304688 662.667969 C 278.742188 663.023438 279.160156 663.402344 279.558594 663.800781 C 279.960938 664.203125 280.339844 664.621094 280.699219 665.054688 C 281.058594 665.492188 281.394531 665.945312 281.707031 666.414062 C 282.023438 666.882812 282.3125 667.367188 282.578125 667.867188 C 282.84375 668.363281 283.085938 668.875 283.304688 669.394531 C 283.519531 669.917969 283.710938 670.449219 283.875 670.988281 C 284.039062 671.527344 284.175781 672.074219 284.285156 672.628906 C 284.394531 673.183594 284.480469 673.742188 284.535156 674.300781 C 284.589844 674.863281 284.617188 675.425781 284.617188 675.992188 Z M 284.617188 675.992188 " fill-opacity="1" fill-rule="nonzero"/><path fill="#000000" d="M 288.9375 762.195312 C 288.9375 763.042969 288.855469 763.886719 288.6875 764.71875 C 288.523438 765.550781 288.277344 766.359375 287.949219 767.144531 C 287.625 767.929688 287.226562 768.671875 286.753906 769.378906 C 286.28125 770.085938 285.746094 770.738281 285.144531 771.339844 C 284.542969 771.9375 283.886719 772.476562 283.179688 772.945312 C 282.472656 773.417969 281.726562 773.816406 280.941406 774.140625 C 280.152344 774.46875 279.34375 774.710938 278.511719 774.878906 C 277.675781 775.042969 276.832031 775.125 275.984375 775.125 C 275.132812 775.125 274.289062 775.042969 273.457031 774.878906 C 272.621094 774.710938 271.8125 774.46875 271.023438 774.140625 C 270.238281 773.816406 269.492188 773.417969 268.785156 772.945312 C 268.078125 772.476562 267.421875 771.9375 266.824219 771.339844 C 266.222656 770.738281 265.683594 770.085938 265.210938 769.378906 C 264.738281 768.671875 264.339844 767.929688 264.015625 767.144531 C 263.6875 766.359375 263.441406 765.550781 263.277344 764.71875 C 263.109375 763.886719 263.027344 763.042969 263.027344 762.195312 C 263.027344 761.347656 263.109375 760.503906 263.277344 759.671875 C 263.441406 758.839844 263.6875 758.03125 264.015625 757.246094 C 264.339844 756.460938 264.738281 755.714844 265.210938 755.011719 C 265.683594 754.304688 266.222656 753.652344 266.824219 753.050781 C 267.421875 752.449219 268.078125 751.914062 268.785156 751.441406 C 269.492188 750.972656 270.238281 750.574219 271.023438 750.246094 C 271.8125 749.921875 272.621094 749.675781 273.457031 749.511719 C 274.289062 749.347656 275.132812 749.261719 275.984375 749.261719 C 276.832031 749.261719 277.675781 749.347656 278.511719 749.511719 C 279.34375 749.675781 280.152344 749.921875 280.941406 750.246094 C 281.726562 750.574219 282.472656 750.972656 283.179688 751.441406 C 283.886719 751.914062 284.542969 752.449219 285.144531 753.050781 C 285.746094 753.652344 286.28125 754.304688 286.753906 755.011719 C 287.226562 755.714844 287.625 756.460938 287.949219 757.246094 C 288.277344 758.03125 288.523438 758.839844 288.6875 759.671875 C 288.855469 760.503906 288.9375 761.347656 288.9375 762.195312 Z M 288.9375 762.195312 " fill-opacity="1" fill-rule="nonzero"/><path fill="#ffffff" d="M 383.402344 620.414062 L 382.160156 627.832031 C 381.144531 633.929688 384.59375 639.894531 390.390625 642.066406 L 401.359375 646.171875 C 408.601562 648.882812 416.597656 644.691406 418.472656 637.199219 L 422.382812 621.589844 C 424.820312 611.863281 415.714844 603.1875 406.09375 606.070312 L 392.453125 610.152344 C 387.726562 611.570312 384.210938 615.550781 383.402344 620.414062 Z M 383.402344 620.414062 " fill-opacity="1" fill-rule="nonzero"/><path fill="#ffffff" d="M 427.109375 667.371094 L 421.894531 669.972656 C 417.804688 672.015625 416.019531 676.886719 417.820312 681.082031 L 422.015625 690.851562 C 424.554688 696.769531 432.457031 697.917969 436.585938 692.976562 L 443.335938 684.890625 C 446.5 681.097656 445.835938 675.4375 441.882812 672.476562 L 436.152344 668.183594 C 433.535156 666.226562 430.035156 665.910156 427.109375 667.371094 Z M 427.109375 667.371094 " fill-opacity="1" fill-rule="nonzero"/><path fill="#ffffff" d="M 461.648438 641.507812 C 461.648438 642.074219 461.59375 642.636719 461.484375 643.191406 C 461.375 643.746094 461.210938 644.285156 460.992188 644.808594 C 460.777344 645.332031 460.511719 645.828125 460.195312 646.296875 C 459.878906 646.769531 459.523438 647.203125 459.121094 647.605469 C 458.71875 648.003906 458.285156 648.363281 457.8125 648.675781 C 457.339844 648.992188 456.84375 649.253906 456.320312 649.472656 C 455.796875 649.6875 455.257812 649.851562 454.699219 649.964844 C 454.144531 650.074219 453.582031 650.128906 453.015625 650.128906 C 452.449219 650.128906 451.886719 650.074219 451.332031 649.964844 C 450.773438 649.851562 450.234375 649.6875 449.710938 649.472656 C 449.1875 649.257812 448.691406 648.992188 448.21875 648.675781 C 447.746094 648.363281 447.3125 648.003906 446.910156 647.605469 C 446.507812 647.203125 446.152344 646.769531 445.835938 646.296875 C 445.519531 645.828125 445.253906 645.332031 445.039062 644.808594 C 444.820312 644.285156 444.65625 643.746094 444.546875 643.191406 C 444.4375 642.636719 444.382812 642.074219 444.382812 641.507812 C 444.382812 640.941406 444.4375 640.382812 444.546875 639.828125 C 444.65625 639.273438 444.820312 638.734375 445.039062 638.210938 C 445.253906 637.6875 445.519531 637.191406 445.835938 636.71875 C 446.152344 636.25 446.507812 635.816406 446.910156 635.414062 C 447.3125 635.015625 447.746094 634.65625 448.21875 634.34375 C 448.691406 634.027344 449.1875 633.761719 449.710938 633.546875 C 450.234375 633.328125 450.773438 633.164062 451.332031 633.054688 C 451.886719 632.945312 452.449219 632.890625 453.015625 632.890625 C 453.582031 632.890625 454.144531 632.945312 454.699219 633.054688 C 455.257812 633.164062 455.796875 633.328125 456.320312 633.546875 C 456.84375 633.761719 457.339844 634.027344 457.8125 634.34375 C 458.285156 634.65625 458.71875 635.015625 459.121094 635.414062 C 459.523438 635.816406 459.878906 636.25 460.195312 636.71875 C 460.511719 637.191406 460.777344 637.6875 460.992188 638.210938 C 461.210938 638.734375 461.375 639.273438 461.484375 639.828125 C 461.59375 640.382812 461.648438 640.941406 461.648438 641.507812 Z M 461.648438 641.507812 " fill-opacity="1" fill-rule="nonzero"/><path fill="#ffffff" d="M 343.988281 836.546875 C 270.0625 836.546875 210.136719 776.726562 210.136719 702.929688 C 210.136719 670.148438 221.980469 640.140625 241.609375 616.894531 C 212.472656 641.402344 193.945312 678.082031 193.945312 719.09375 C 193.945312 792.886719 253.871094 852.710938 327.796875 852.710938 C 368.910156 852.710938 405.613281 834.261719 430.140625 805.203125 C 406.875 824.761719 376.84375 836.546875 343.988281 836.546875 Z M 343.988281 836.546875 " fill-opacity="1" fill-rule="nonzero"/><path fill="#ffffff" d="M 403.277344 636.167969 C 396.035156 633.457031 391.730469 626.007812 393 618.390625 L 394.476562 609.546875 L 392.457031 610.152344 C 387.726562 611.570312 384.210938 615.550781 383.402344 620.414062 L 382.160156 627.832031 C 381.144531 633.929688 384.59375 639.894531 390.390625 642.066406 L 401.359375 646.171875 C 407.175781 648.347656 413.417969 646.03125 416.648438 641.171875 Z M 403.277344 636.167969 " fill-opacity="1" fill-rule="nonzero"/><path fill="#ffffff" d="M 431.226562 685.296875 L 426.476562 674.230469 C 425.582031 672.152344 425.507812 669.9375 426.050781 667.898438 L 421.894531 669.972656 C 417.804688 672.015625 416.019531 676.882812 417.820312 681.078125 L 422.015625 690.851562 C 424.554688 696.765625 432.457031 697.917969 436.585938 692.972656 L 438.261719 690.964844 C 435.296875 690.359375 432.582031 688.453125 431.226562 685.296875 Z M 431.226562 685.296875 " fill-opacity="1" fill-rule="nonzero"/><path fill="#000000" d="M 276.523438 684.074219 C 266.984375 684.074219 259.25 676.355469 259.25 666.832031 C 259.25 664.449219 259.738281 662.175781 260.613281 660.113281 C 254.421875 662.730469 250.074219 668.855469 250.074219 675.992188 C 250.074219 685.511719 257.808594 693.234375 267.347656 693.234375 C 274.496094 693.234375 280.632812 688.894531 283.257812 682.714844 C 281.1875 683.589844 278.910156 684.074219 276.523438 684.074219 Z M 276.523438 684.074219 " fill-opacity="1" fill-rule="nonzero"/><path fill="#000000" d="M 282.730469 768.390625 C 275.574219 768.390625 269.777344 762.601562 269.777344 755.460938 C 269.777344 753.636719 270.164062 751.90625 270.847656 750.332031 C 266.25 752.320312 263.03125 756.878906 263.03125 762.195312 C 263.03125 769.339844 268.828125 775.128906 275.984375 775.128906 C 281.308594 775.128906 285.878906 771.914062 287.867188 767.324219 C 286.289062 768.003906 284.558594 768.390625 282.730469 768.390625 Z M 282.730469 768.390625 " fill-opacity="1" fill-rule="nonzero"/><path fill="#000000" d="M 375.292969 775.125 C 375.292969 775.691406 375.265625 776.253906 375.210938 776.816406 C 375.15625 777.378906 375.074219 777.933594 374.960938 778.488281 C 374.851562 779.042969 374.714844 779.589844 374.550781 780.128906 C 374.386719 780.671875 374.195312 781.203125 373.980469 781.722656 C 373.761719 782.246094 373.519531 782.753906 373.253906 783.253906 C 372.988281 783.75 372.699219 784.234375 372.382812 784.703125 C 372.070312 785.171875 371.734375 785.625 371.375 786.0625 C 371.015625 786.5 370.636719 786.917969 370.234375 787.316406 C 369.835938 787.714844 369.417969 788.09375 368.980469 788.453125 C 368.542969 788.808594 368.089844 789.144531 367.617188 789.460938 C 367.148438 789.773438 366.664062 790.0625 366.164062 790.328125 C 365.667969 790.59375 365.15625 790.835938 364.632812 791.050781 C 364.109375 791.269531 363.578125 791.457031 363.039062 791.621094 C 362.496094 791.785156 361.949219 791.921875 361.394531 792.035156 C 360.839844 792.144531 360.28125 792.226562 359.71875 792.28125 C 359.15625 792.335938 358.589844 792.363281 358.023438 792.363281 C 357.457031 792.363281 356.894531 792.335938 356.332031 792.28125 C 355.769531 792.226562 355.210938 792.144531 354.65625 792.035156 C 354.101562 791.921875 353.554688 791.785156 353.011719 791.621094 C 352.46875 791.457031 351.9375 791.269531 351.414062 791.050781 C 350.894531 790.835938 350.382812 790.59375 349.882812 790.328125 C 349.386719 790.0625 348.902344 789.773438 348.429688 789.460938 C 347.960938 789.144531 347.507812 788.808594 347.070312 788.453125 C 346.632812 788.09375 346.214844 787.714844 345.8125 787.316406 C 345.414062 786.917969 345.035156 786.5 344.675781 786.0625 C 344.316406 785.625 343.980469 785.171875 343.664062 784.703125 C 343.351562 784.234375 343.0625 783.75 342.792969 783.253906 C 342.527344 782.753906 342.285156 782.246094 342.070312 781.722656 C 341.851562 781.203125 341.664062 780.671875 341.5 780.128906 C 341.335938 779.589844 341.199219 779.042969 341.085938 778.488281 C 340.976562 777.933594 340.894531 777.378906 340.839844 776.816406 C 340.78125 776.253906 340.753906 775.691406 340.753906 775.125 C 340.753906 774.5625 340.78125 774 340.839844 773.4375 C 340.894531 772.875 340.976562 772.316406 341.085938 771.761719 C 341.199219 771.210938 341.335938 770.664062 341.5 770.121094 C 341.664062 769.582031 341.851562 769.050781 342.070312 768.527344 C 342.285156 768.007812 342.527344 767.496094 342.792969 767 C 343.0625 766.5 343.351562 766.019531 343.664062 765.546875 C 343.980469 765.078125 344.316406 764.625 344.675781 764.191406 C 345.035156 763.753906 345.414062 763.335938 345.8125 762.9375 C 346.214844 762.539062 346.632812 762.160156 347.070312 761.800781 C 347.507812 761.441406 347.960938 761.105469 348.429688 760.792969 C 348.902344 760.480469 349.386719 760.1875 349.882812 759.921875 C 350.382812 759.65625 350.894531 759.414062 351.414062 759.199219 C 351.9375 758.984375 352.46875 758.792969 353.011719 758.628906 C 353.554688 758.464844 354.101562 758.328125 354.65625 758.21875 C 355.210938 758.109375 355.769531 758.027344 356.332031 757.96875 C 356.894531 757.914062 357.457031 757.886719 358.023438 757.886719 C 358.589844 757.886719 359.15625 757.914062 359.71875 757.96875 C 360.28125 758.027344 360.839844 758.109375 361.394531 758.21875 C 361.949219 758.328125 362.496094 758.464844 363.039062 758.628906 C 363.578125 758.792969 364.109375 758.984375 364.632812 759.199219 C 365.15625 759.414062 365.667969 759.65625 366.164062 759.921875 C 366.664062 760.1875 367.148438 760.480469 367.617188 760.792969 C 368.089844 761.105469 368.542969 761.441406 368.980469 761.800781 C 369.417969 762.160156 369.835938 762.539062 370.234375 762.9375 C 370.636719 763.335938 371.015625 763.753906 371.375 764.191406 C 371.734375 764.625 372.070312 765.078125 372.382812 765.546875 C 372.699219 766.019531 372.988281 766.5 373.253906 767 C 373.519531 767.496094 373.761719 768.007812 373.980469 768.527344 C 374.195312 769.050781 374.386719 769.582031 374.550781 770.121094 C 374.714844 770.664062 374.851562 771.210938 374.960938 771.761719 C 375.074219 772.316406 375.15625 772.875 375.210938 773.4375 C 375.265625 774 375.292969 774.5625 375.292969 775.125 Z M 375.292969 775.125 " fill-opacity="1" fill-rule="nonzero"/><path fill="#000000" d="M 367.199219 783.207031 C 357.660156 783.207031 349.925781 775.488281 349.925781 765.96875 C 349.925781 763.582031 350.414062 761.3125 351.289062 759.246094 C 345.097656 761.867188 340.75 767.988281 340.75 775.125 C 340.75 784.648438 348.484375 792.367188 358.023438 792.367188 C 365.171875 792.367188 371.308594 788.03125 373.929688 781.847656 C 371.863281 782.722656 369.585938 783.207031 367.199219 783.207031 Z M 367.199219 783.207031 " fill-opacity="1" fill-rule="nonzero"/><path fill="#000000" d="M 331.933594 697.542969 C 331.933594 698.109375 331.878906 698.667969 331.765625 699.222656 C 331.65625 699.777344 331.492188 700.316406 331.273438 700.839844 C 331.058594 701.363281 330.792969 701.859375 330.476562 702.332031 C 330.164062 702.800781 329.804688 703.238281 329.402344 703.636719 C 329.003906 704.039062 328.566406 704.394531 328.09375 704.710938 C 327.625 705.023438 327.125 705.289062 326.601562 705.507812 C 326.078125 705.722656 325.539062 705.886719 324.984375 705.996094 C 324.425781 706.105469 323.863281 706.160156 323.296875 706.160156 C 322.730469 706.160156 322.167969 706.105469 321.613281 705.996094 C 321.058594 705.886719 320.515625 705.722656 319.992188 705.507812 C 319.46875 705.289062 318.972656 705.023438 318.5 704.710938 C 318.03125 704.394531 317.59375 704.039062 317.191406 703.636719 C 316.792969 703.238281 316.433594 702.800781 316.117188 702.332031 C 315.804688 701.859375 315.539062 701.363281 315.320312 700.839844 C 315.105469 700.316406 314.941406 699.777344 314.828125 699.222656 C 314.71875 698.667969 314.664062 698.109375 314.664062 697.542969 C 314.664062 696.976562 314.71875 696.417969 314.828125 695.859375 C 314.941406 695.304688 315.105469 694.765625 315.320312 694.246094 C 315.539062 693.722656 315.804688 693.226562 316.117188 692.753906 C 316.433594 692.285156 316.792969 691.847656 317.191406 691.449219 C 317.59375 691.046875 318.03125 690.691406 318.5 690.375 C 318.972656 690.0625 319.46875 689.796875 319.992188 689.578125 C 320.515625 689.363281 321.058594 689.199219 321.613281 689.089844 C 322.167969 688.980469 322.730469 688.921875 323.296875 688.921875 C 323.863281 688.921875 324.425781 688.980469 324.984375 689.089844 C 325.539062 689.199219 326.078125 689.363281 326.601562 689.578125 C 327.125 689.796875 327.625 690.0625 328.09375 690.375 C 328.566406 690.691406 329.003906 691.046875 329.402344 691.449219 C 329.804688 691.847656 330.164062 692.285156 330.476562 692.753906 C 330.792969 693.226562 331.058594 693.722656 331.273438 694.246094 C 331.492188 694.765625 331.65625 695.304688 331.765625 695.859375 C 331.878906 696.417969 331.933594 696.976562 331.933594 697.542969 Z M 331.933594 697.542969 " fill-opacity="1" fill-rule="nonzero"/><path fill="#200f05" d="M 267.347656 654.71875 C 255.597656 654.71875 246.035156 664.261719 246.035156 675.992188 C 246.035156 687.722656 255.597656 697.265625 267.347656 697.265625 C 279.097656 697.265625 288.660156 687.722656 288.660156 675.992188 C 288.660156 664.261719 279.097656 654.71875 267.347656 654.71875 Z M 267.347656 689.199219 C 260.050781 689.199219 254.117188 683.273438 254.117188 675.992188 C 254.117188 668.710938 260.050781 662.785156 267.347656 662.785156 C 274.644531 662.785156 280.578125 668.710938 280.578125 675.992188 C 280.578125 683.273438 274.644531 689.199219 267.347656 689.199219 Z M 267.347656 689.199219 " fill-opacity="1" fill-rule="nonzero"/><path fill="#200f05" d="M 336.710938 775.128906 C 336.710938 786.859375 346.273438 796.402344 358.023438 796.402344 C 369.773438 796.402344 379.332031 786.855469 379.332031 775.128906 C 379.332031 763.398438 369.773438 753.855469 358.023438 753.855469 C 346.273438 753.855469 336.710938 763.398438 336.710938 775.128906 Z M 358.023438 761.917969 C 365.320312 761.917969 371.253906 767.84375 371.253906 775.125 C 371.253906 782.410156 365.320312 788.335938 358.023438 788.335938 C 350.726562 788.335938 344.792969 782.410156 344.792969 775.125 C 344.792969 767.84375 350.726562 761.917969 358.023438 761.917969 Z M 358.023438 761.917969 " fill-opacity="1" fill-rule="nonzero"/><path fill="#200f05" d="M 275.984375 745.234375 C 266.613281 745.234375 258.988281 752.84375 258.988281 762.195312 C 258.988281 771.550781 266.613281 779.160156 275.984375 779.160156 C 285.351562 779.160156 292.976562 771.550781 292.976562 762.195312 C 292.976562 752.84375 285.351562 745.234375 275.984375 745.234375 Z M 275.984375 771.09375 C 271.066406 771.09375 267.070312 767.101562 267.070312 762.195312 C 267.070312 757.289062 271.066406 753.296875 275.984375 753.296875 C 280.898438 753.296875 284.898438 757.289062 284.898438 762.195312 C 284.898438 767.101562 280.898438 771.09375 275.984375 771.09375 Z M 275.984375 771.09375 " fill-opacity="1" fill-rule="nonzero"/><path fill="#200f05" d="M 310.804688 697.542969 C 310.804688 704.519531 316.492188 710.195312 323.480469 710.195312 C 330.46875 710.195312 336.15625 704.519531 336.15625 697.542969 C 336.15625 690.566406 330.46875 684.890625 323.480469 684.890625 C 316.492188 684.890625 310.804688 690.566406 310.804688 697.542969 Z M 323.480469 692.953125 C 326.015625 692.953125 328.074219 695.011719 328.074219 697.542969 C 328.074219 700.070312 326.015625 702.128906 323.480469 702.128906 C 320.945312 702.128906 318.882812 700.070312 318.882812 697.542969 C 318.882812 695.011719 320.945312 692.953125 323.480469 692.953125 Z M 323.480469 692.953125 " fill-opacity="1" fill-rule="nonzero"/><path fill="#200f05" d="M 405.523438 761.917969 C 406.128906 761.917969 406.746094 761.78125 407.328125 761.492188 C 409.320312 760.496094 410.132812 758.074219 409.132812 756.082031 L 404.816406 747.460938 C 403.816406 745.46875 401.390625 744.660156 399.394531 745.65625 C 397.398438 746.652344 396.589844 749.074219 397.589844 751.066406 L 401.90625 759.6875 C 402.613281 761.101562 404.042969 761.917969 405.523438 761.917969 Z M 405.523438 761.917969 " fill-opacity="1" fill-rule="nonzero"/><path fill="#200f05" d="M 358.027344 736.058594 C 358.632812 736.058594 359.25 735.921875 359.828125 735.632812 L 368.464844 731.320312 C 370.460938 730.324219 371.269531 727.902344 370.273438 725.910156 C 369.273438 723.917969 366.847656 723.109375 364.851562 724.109375 L 356.214844 728.417969 C 354.21875 729.414062 353.410156 731.835938 354.410156 733.828125 C 355.117188 735.242188 356.542969 736.058594 358.027344 736.058594 Z M 358.027344 736.058594 " fill-opacity="1" fill-rule="nonzero"/><path fill="#200f05" d="M 237.828125 725.207031 C 238.535156 726.621094 239.960938 727.4375 241.441406 727.4375 C 242.050781 727.4375 242.667969 727.300781 243.246094 727.011719 C 245.242188 726.015625 246.050781 723.59375 245.054688 721.601562 L 240.734375 712.980469 C 239.738281 710.988281 237.3125 710.179688 235.316406 711.175781 C 233.320312 712.171875 232.511719 714.59375 233.507812 716.585938 Z M 237.828125 725.207031 " fill-opacity="1" fill-rule="nonzero"/><path fill="#200f05" d="M 304.402344 793.070312 L 295.765625 797.378906 C 293.769531 798.375 292.960938 800.800781 293.960938 802.789062 C 294.667969 804.203125 296.09375 805.019531 297.578125 805.019531 C 298.183594 805.019531 298.800781 804.882812 299.378906 804.59375 L 308.015625 800.285156 C 310.011719 799.289062 310.820312 796.867188 309.820312 794.875 C 308.824219 792.882812 306.398438 792.074219 304.402344 793.070312 Z M 304.402344 793.070312 " fill-opacity="1" fill-rule="nonzero"/><path fill="#200f05" d="M 309.066406 630.039062 L 304.746094 625.726562 C 303.171875 624.152344 300.613281 624.152344 299.035156 625.726562 C 297.457031 627.300781 297.457031 629.855469 299.035156 631.429688 L 303.351562 635.742188 C 304.140625 636.527344 305.175781 636.921875 306.210938 636.921875 C 307.242188 636.921875 308.277344 636.527344 309.066406 635.742188 C 310.644531 634.167969 310.644531 631.613281 309.066406 630.039062 Z M 309.066406 630.039062 " fill-opacity="1" fill-rule="nonzero"/><path fill="#200f05" d="M 290.398438 724.863281 C 288.820312 726.4375 288.820312 728.992188 290.398438 730.566406 L 294.714844 734.875 C 295.503906 735.664062 296.539062 736.058594 297.574219 736.058594 C 298.605469 736.058594 299.640625 735.664062 300.429688 734.875 C 302.007812 733.300781 302.007812 730.746094 300.429688 729.171875 L 296.109375 724.863281 C 294.535156 723.289062 291.976562 723.289062 290.398438 724.863281 Z M 290.398438 724.863281 " fill-opacity="1" fill-rule="nonzero"/><path fill="#200f05" d="M 341.03125 818.230469 L 341.03125 822.539062 C 341.03125 824.765625 342.839844 826.570312 345.070312 826.570312 C 347.300781 826.570312 349.109375 824.765625 349.109375 822.539062 L 349.109375 818.230469 C 349.109375 816 347.300781 814.195312 345.070312 814.195312 C 342.839844 814.195312 341.03125 816 341.03125 818.230469 Z M 341.03125 818.230469 " fill-opacity="1" fill-rule="nonzero"/><path fill="#200f05" d="M 322.019531 661.601562 L 326.335938 657.292969 C 327.914062 655.71875 327.914062 653.164062 326.335938 651.589844 C 324.757812 650.015625 322.199219 650.015625 320.625 651.589844 L 316.304688 655.898438 C 314.726562 657.472656 314.726562 660.027344 316.304688 661.601562 C 317.09375 662.390625 318.128906 662.785156 319.164062 662.785156 C 320.195312 662.785156 321.230469 662.390625 322.019531 661.601562 Z M 322.019531 661.601562 " fill-opacity="1" fill-rule="nonzero"/><path fill="#200f05" d="M 388.972656 645.839844 L 399.941406 649.945312 C 401.867188 650.667969 403.886719 651.027344 405.902344 651.027344 C 408.628906 651.027344 411.347656 650.371094 413.808594 649.082031 C 418.089844 646.835938 421.21875 642.863281 422.394531 638.175781 L 426.300781 622.566406 C 427.804688 616.574219 426.027344 610.449219 421.550781 606.183594 C 417.074219 601.917969 410.859375 600.429688 404.933594 602.207031 L 391.292969 606.289062 C 385.136719 608.132812 380.472656 613.417969 379.414062 619.75 L 378.175781 627.167969 C 376.84375 635.148438 381.386719 643 388.972656 645.839844 Z M 386.148438 628.496094 L 387.386719 621.074219 C 387.941406 617.753906 390.386719 614.984375 393.617188 614.015625 L 407.253906 609.929688 C 408.117188 609.671875 408.992188 609.546875 409.859375 609.546875 C 412.105469 609.546875 414.273438 610.402344 415.972656 612.019531 C 418.320312 614.253906 419.25 617.46875 418.464844 620.613281 L 414.554688 636.222656 C 413.929688 638.714844 412.332031 640.746094 410.050781 641.941406 C 407.769531 643.136719 405.1875 643.296875 402.777344 642.394531 L 391.808594 638.289062 C 387.828125 636.800781 385.449219 632.679688 386.148438 628.496094 Z M 386.148438 628.496094 " fill-opacity="1" fill-rule="nonzero"/><path fill="#200f05" d="M 420.085938 666.367188 C 414.09375 669.359375 411.464844 676.519531 414.105469 682.667969 L 418.300781 692.441406 C 420.050781 696.519531 423.722656 699.335938 428.121094 699.976562 C 428.746094 700.066406 429.371094 700.113281 429.988281 700.113281 C 433.71875 700.113281 437.246094 698.480469 439.6875 695.554688 L 446.4375 687.472656 C 448.683594 684.78125 449.699219 681.382812 449.289062 677.902344 C 448.882812 674.425781 447.113281 671.351562 444.304688 669.25 L 438.578125 664.960938 C 434.710938 662.066406 429.625 661.605469 425.300781 663.765625 Z M 428.917969 670.976562 C 429.570312 670.652344 430.277344 670.488281 430.976562 670.488281 C 431.949219 670.488281 432.914062 670.800781 433.730469 671.410156 L 439.457031 675.699219 C 440.476562 676.460938 441.117188 677.578125 441.265625 678.839844 C 441.414062 680.101562 441.046875 681.332031 440.230469 682.308594 L 433.480469 690.394531 C 432.433594 691.648438 430.90625 692.230469 429.289062 691.996094 C 427.667969 691.757812 426.371094 690.761719 425.726562 689.261719 L 421.53125 679.492188 C 420.574219 677.261719 421.527344 674.664062 423.699219 673.582031 L 428.917969 670.976562 C 428.914062 670.976562 428.914062 670.976562 428.917969 670.976562 Z M 428.917969 670.976562 " fill-opacity="1" fill-rule="nonzero"/><path fill="#200f05" d="M 453.015625 654.164062 C 460.007812 654.164062 465.691406 648.488281 465.691406 641.511719 C 465.691406 634.53125 460.003906 628.855469 453.015625 628.855469 C 446.027344 628.855469 440.339844 634.535156 440.339844 641.511719 C 440.339844 648.488281 446.027344 654.164062 453.015625 654.164062 Z M 453.015625 636.921875 C 455.550781 636.921875 457.613281 638.980469 457.613281 641.511719 C 457.613281 644.039062 455.550781 646.097656 453.015625 646.097656 C 450.484375 646.097656 448.421875 644.039062 448.421875 641.511719 C 448.421875 638.980469 450.480469 636.921875 453.015625 636.921875 Z M 453.015625 636.921875 " fill-opacity="1" fill-rule="nonzero"/><path fill="#200f05" d="M 454.257812 731.894531 C 452.414062 732.164062 450.542969 732.300781 448.699219 732.300781 C 431.636719 732.300781 416.671875 721.410156 411.453125 705.195312 C 410.027344 700.761719 406.371094 697.484375 401.917969 696.636719 C 371.316406 690.820312 349.109375 664.011719 349.109375 632.886719 C 349.109375 620.035156 352.878906 607.601562 360.015625 596.933594 C 361.578125 594.59375 361.871094 591.652344 360.800781 589.074219 C 359.722656 586.488281 357.425781 584.617188 354.65625 584.070312 C 340.910156 581.351562 326.808594 580.742188 312.742188 582.253906 C 284.589844 585.277344 258.355469 596.867188 236.863281 615.773438 C 235.191406 617.242188 235.03125 619.792969 236.503906 621.464844 C 237.980469 623.132812 240.535156 623.296875 242.207031 621.824219 C 262.4375 604.027344 287.125 593.117188 313.605469 590.273438 C 326.859375 588.847656 340.144531 589.421875 353.085938 591.980469 C 353.179688 592 353.285156 592.035156 353.335938 592.164062 C 353.386719 592.289062 353.347656 592.378906 353.292969 592.457031 C 345.269531 604.457031 341.03125 618.4375 341.03125 632.890625 C 341.03125 667.878906 366 698.023438 400.40625 704.558594 C 401.953125 704.855469 403.238281 706.042969 403.761719 707.664062 C 410.054688 727.222656 428.117188 740.367188 448.699219 740.367188 C 450.9375 740.367188 453.203125 740.199219 455.433594 739.875 C 455.730469 739.828125 455.882812 740.003906 455.890625 740.050781 C 451.996094 763.957031 441.414062 786.273438 425.292969 804.589844 C 423.820312 806.261719 423.984375 808.8125 425.660156 810.28125 C 426.425781 810.953125 427.378906 811.285156 428.324219 811.285156 C 429.445312 811.285156 430.5625 810.820312 431.359375 809.914062 C 448.488281 790.457031 459.726562 766.75 463.863281 741.34375 C 464.285156 738.761719 463.46875 736.207031 461.621094 734.335938 C 459.722656 732.410156 456.96875 731.496094 454.257812 731.894531 Z M 454.257812 731.894531 " fill-opacity="1" fill-rule="nonzero"/><g clip-path="url(#519616d3c0)"><path fill="#200f05" d="M 413.449219 816.417969 C 389.761719 837.222656 359.34375 848.675781 327.796875 848.675781 C 309.613281 848.675781 292.027344 845 275.527344 837.746094 C 259.585938 830.738281 245.410156 820.746094 233.398438 808.046875 C 221.40625 795.367188 212.238281 780.699219 206.15625 764.449219 C 199.828125 747.550781 197.152344 729.71875 198.203125 711.453125 C 199.835938 682.980469 211.257812 655.351562 230.363281 633.660156 C 231.835938 631.984375 231.671875 629.4375 229.996094 627.96875 C 228.324219 626.496094 225.769531 626.660156 224.296875 628.332031 C 204.003906 651.375 191.875 680.730469 190.136719 710.992188 C 189.023438 730.382812 191.867188 749.320312 198.585938 767.273438 C 205.050781 784.535156 214.785156 800.117188 227.523438 813.582031 C 240.28125 827.070312 255.335938 837.683594 272.269531 845.125 C 289.804688 852.835938 308.484375 856.742188 327.796875 856.742188 C 361.308594 856.742188 393.621094 844.570312 418.785156 822.472656 C 420.460938 821.003906 420.625 818.457031 419.148438 816.78125 C 417.675781 815.109375 415.125 814.949219 413.449219 816.417969 Z M 413.449219 816.417969 " fill-opacity="1" fill-rule="nonzero"/></g><g fill="#200f05" fill-opacity="1"><g transform="translate(535.156619, 842.1218)"><g><path d="M 54.21875 -200.671875 C 69.539062 -200.671875 80.84375 -196.128906 88.125 -187.046875 C 95.414062 -177.960938 99.0625 -165.851562 99.0625 -150.71875 L 99.0625 -132.84375 L 78.0625 -132.84375 L 78.0625 -151.859375 C 78.0625 -160.941406 76.210938 -167.988281 72.515625 -173 C 68.828125 -178.019531 62.914062 -180.53125 54.78125 -180.53125 C 46.832031 -180.53125 40.960938 -178.019531 37.171875 -173 C 33.390625 -167.988281 31.5 -160.941406 31.5 -151.859375 L 31.5 -46.828125 C 31.5 -37.742188 33.390625 -30.695312 37.171875 -25.6875 C 40.960938 -20.675781 46.832031 -18.171875 54.78125 -18.171875 C 62.914062 -18.171875 68.828125 -20.675781 72.515625 -25.6875 C 76.210938 -30.695312 78.0625 -37.742188 78.0625 -46.828125 L 78.0625 -72.65625 L 99.0625 -72.65625 L 99.0625 -47.96875 C 99.0625 -32.832031 95.414062 -20.722656 88.125 -11.640625 C 80.84375 -2.554688 69.539062 1.984375 54.21875 1.984375 C 39.070312 1.984375 27.859375 -2.554688 20.578125 -11.640625 C 13.296875 -20.722656 9.65625 -32.832031 9.65625 -47.96875 L 9.65625 -150.71875 C 9.65625 -158.289062 10.550781 -165.148438 12.34375 -171.296875 C 14.144531 -177.453125 16.890625 -182.703125 20.578125 -187.046875 C 24.265625 -191.398438 28.898438 -194.757812 34.484375 -197.125 C 40.066406 -199.488281 46.644531 -200.671875 54.21875 -200.671875 Z M 54.21875 -200.671875 "/></g></g></g><g fill="#200f05" fill-opacity="1"><g transform="translate(643.015632, 842.1218)"><g><path d="M 9.65625 -150.71875 C 9.65625 -166.050781 13.390625 -178.207031 20.859375 -187.1875 C 28.335938 -196.175781 39.738281 -200.671875 55.0625 -200.671875 C 70.394531 -200.671875 81.84375 -196.175781 89.40625 -187.1875 C 96.976562 -178.207031 100.765625 -166.050781 100.765625 -150.71875 L 100.765625 -47.96875 C 100.765625 -32.832031 96.976562 -20.722656 89.40625 -11.640625 C 81.84375 -2.554688 70.394531 1.984375 55.0625 1.984375 C 39.738281 1.984375 28.335938 -2.554688 20.859375 -11.640625 C 13.390625 -20.722656 9.65625 -32.832031 9.65625 -47.96875 Z M 31.5 -46.828125 C 31.5 -37.742188 33.4375 -30.695312 37.3125 -25.6875 C 41.195312 -20.675781 47.113281 -18.171875 55.0625 -18.171875 C 63.195312 -18.171875 69.15625 -20.675781 72.9375 -25.6875 C 76.726562 -30.695312 78.625 -37.742188 78.625 -46.828125 L 78.625 -151.859375 C 78.625 -160.941406 76.726562 -167.988281 72.9375 -173 C 69.15625 -178.019531 63.195312 -180.53125 55.0625 -180.53125 C 47.113281 -180.53125 41.195312 -178.019531 37.3125 -173 C 33.4375 -167.988281 31.5 -160.941406 31.5 -151.859375 Z M 31.5 -46.828125 "/></g></g></g><g fill="#200f05" fill-opacity="1"><g transform="translate(753.429153, 842.1218)"><g><path d="M 9.65625 -150.71875 C 9.65625 -166.050781 13.390625 -178.207031 20.859375 -187.1875 C 28.335938 -196.175781 39.738281 -200.671875 55.0625 -200.671875 C 70.394531 -200.671875 81.84375 -196.175781 89.40625 -187.1875 C 96.976562 -178.207031 100.765625 -166.050781 100.765625 -150.71875 L 100.765625 -47.96875 C 100.765625 -32.832031 96.976562 -20.722656 89.40625 -11.640625 C 81.84375 -2.554688 70.394531 1.984375 55.0625 1.984375 C 39.738281 1.984375 28.335938 -2.554688 20.859375 -11.640625 C 13.390625 -20.722656 9.65625 -32.832031 9.65625 -47.96875 Z M 31.5 -46.828125 C 31.5 -37.742188 33.4375 -30.695312 37.3125 -25.6875 C 41.195312 -20.675781 47.113281 -18.171875 55.0625 -18.171875 C 63.195312 -18.171875 69.15625 -20.675781 72.9375 -25.6875 C 76.726562 -30.695312 78.625 -37.742188 78.625 -46.828125 L 78.625 -151.859375 C 78.625 -160.941406 76.726562 -167.988281 72.9375 -173 C 69.15625 -178.019531 63.195312 -180.53125 55.0625 -180.53125 C 47.113281 -180.53125 41.195312 -178.019531 37.3125 -173 C 33.4375 -167.988281 31.5 -160.941406 31.5 -151.859375 Z M 31.5 -46.828125 "/></g></g></g><g fill="#200f05" fill-opacity="1"><g transform="translate(863.842674, 842.1218)"><g><path d="M 45.125 -86.28125 L 33.5 -66.703125 L 33.5 0 L 11.359375 0 L 11.359375 -198.6875 L 33.5 -198.6875 L 33.5 -102.75 L 86.28125 -198.6875 L 108.71875 -198.6875 L 58.46875 -108.140625 L 110.421875 0 L 87.703125 0 Z M 45.125 -86.28125 "/></g></g></g><g fill="#200f05" fill-opacity="1"><g transform="translate(979.932986, 842.1218)"><g><path d="M 33.5 -198.6875 L 33.5 0 L 11.359375 0 L 11.359375 -198.6875 Z M 33.5 -198.6875 "/></g></g></g><g fill="#200f05" fill-opacity="1"><g transform="translate(1024.779642, 842.1218)"><g><path d="M 5.671875 -20.15625 C 7.566406 -19.96875 9.457031 -19.875 11.34375 -19.875 C 13.238281 -19.875 15.039062 -19.875 16.75 -19.875 C 23.9375 -20.25 29.609375 -22.46875 33.765625 -26.53125 C 37.929688 -30.601562 40.015625 -37.65625 40.015625 -47.6875 L 40.015625 -198.6875 L 61.875 -198.6875 L 61.875 -49.109375 C 61.875 -39.835938 60.785156 -32.078125 58.609375 -25.828125 C 56.429688 -19.585938 53.453125 -14.523438 49.671875 -10.640625 C 45.890625 -6.765625 41.394531 -4.019531 36.1875 -2.40625 C 30.988281 -0.800781 25.453125 0.09375 19.578125 0.28125 C 16.929688 0.28125 14.566406 0.328125 12.484375 0.421875 C 10.398438 0.515625 8.128906 0.375 5.671875 0 Z M 5.671875 -20.15625 "/></g></g></g><g fill="#200f05" fill-opacity="1"><g transform="translate(1097.158701, 842.1218)"><g><path d="M 33.78125 -40.015625 L 26.109375 0 L 5.671875 0 L 43.71875 -198.6875 L 75.78125 -198.6875 L 113.828125 0 L 91.6875 0 L 84.015625 -40.015625 Z M 36.609375 -59.046875 L 80.890625 -59.046875 L 58.46875 -173.71875 Z M 36.609375 -59.046875 "/></g></g></g><g fill="#200f05" fill-opacity="1"><g transform="translate(1216.938908, 842.1218)"><g><path d="M 55.640625 -198.6875 C 71.335938 -198.6875 82.640625 -194.804688 89.546875 -187.046875 C 96.453125 -179.296875 99.90625 -168.039062 99.90625 -153.28125 L 99.90625 -137.09375 C 99.90625 -126.125 97.914062 -117.234375 93.9375 -110.421875 C 89.96875 -103.609375 83.726562 -98.875 75.21875 -96.21875 C 84.300781 -93.570312 90.734375 -88.703125 94.515625 -81.609375 C 98.304688 -74.515625 100.203125 -65.570312 100.203125 -54.78125 L 100.203125 -23.84375 C 100.203125 -19.488281 100.390625 -15.273438 100.765625 -11.203125 C 101.140625 -7.140625 102.273438 -3.40625 104.171875 0 L 81.75 0 C 80.425781 -2.832031 79.476562 -5.90625 78.90625 -9.21875 C 78.34375 -12.53125 78.0625 -17.5 78.0625 -24.125 L 78.0625 -55.34375 C 78.0625 -66.507812 75.550781 -74.222656 70.53125 -78.484375 C 65.519531 -82.742188 58.378906 -84.875 49.109375 -84.875 L 33.5 -84.875 L 33.5 0 L 11.359375 0 L 11.359375 -198.6875 Z M 49.953125 -105.015625 C 58.847656 -105.015625 65.753906 -106.859375 70.671875 -110.546875 C 75.597656 -114.242188 78.0625 -121.484375 78.0625 -132.265625 L 78.0625 -151.28125 C 78.0625 -160.363281 76.3125 -167.175781 72.8125 -171.71875 C 69.3125 -176.257812 63.394531 -178.53125 55.0625 -178.53125 L 33.5 -178.53125 L 33.5 -105.015625 Z M 49.953125 -105.015625 "/></g></g></g><g fill="#ffbd59" fill-opacity="1"><g transform="translate(539.089667, 934.126154)"><g><path d="M 37.265625 0 L 29.625 0 L 24.515625 -13.328125 C 24.066406 -14.554688 23.375 -15.414062 22.4375 -15.90625 C 21.5 -16.394531 20.28125 -16.640625 18.78125 -16.640625 L 11.53125 -16.640625 L 11.53125 0 L 4.328125 0 L 4.328125 -40.03125 L 21.46875 -40.03125 C 26.007812 -40.03125 29.457031 -39.035156 31.8125 -37.046875 C 34.175781 -35.054688 35.359375 -32.207031 35.359375 -28.5 C 35.359375 -25.84375 34.65625 -23.585938 33.25 -21.734375 C 31.84375 -19.878906 29.847656 -18.554688 27.265625 -17.765625 C 29.628906 -17.273438 31.332031 -15.625 32.375 -12.8125 Z M 20.46875 -22.265625 C 23.195312 -22.265625 25.21875 -22.769531 26.53125 -23.78125 C 27.84375 -24.789062 28.5 -26.328125 28.5 -28.390625 C 28.5 -30.410156 27.851562 -31.914062 26.5625 -32.90625 C 25.269531 -33.90625 23.238281 -34.40625 20.46875 -34.40625 L 11.40625 -34.40625 L 11.40625 -22.265625 Z M 20.46875 -22.265625 "/></g></g></g><g fill="#ffbd59" fill-opacity="1"><g transform="translate(578.557417, 934.126154)"><g><path d="M 4.328125 0 L 4.328125 -40.03125 L 31.09375 -40.03125 L 31.09375 -34.296875 L 11.40625 -34.296875 L 11.40625 -23.21875 L 29.90625 -23.21875 L 29.90625 -17.484375 L 11.40625 -17.484375 L 11.40625 -5.734375 L 31.09375 -5.734375 L 31.09375 0 Z M 4.328125 0 "/></g></g></g><g fill="#ffbd59" fill-opacity="1"><g transform="translate(612.009426, 934.126154)"><g><path d="M 54.703125 -40.03125 L 61.671875 -40.03125 L 47.5 0 L 41.609375 0 L 31.53125 -28.78125 L 21.359375 0 L 15.453125 0 L 1.34375 -40.03125 L 8.71875 -40.03125 L 18.71875 -10.171875 L 29.125 -40.03125 L 34.296875 -40.03125 L 44.46875 -9.953125 Z M 54.703125 -40.03125 "/></g></g></g><g fill="#ffbd59" fill-opacity="1"><g transform="translate(674.977904, 934.126154)"><g><path d="M 34.90625 0 L 30.921875 -9.390625 L 11.359375 -9.390625 L 7.3125 0 L 0 0 L 18.109375 -40.03125 L 24 -40.03125 L 42.171875 0 Z M 13.78125 -15.015625 L 28.5 -15.015625 L 21.140625 -32.15625 Z M 13.78125 -15.015625 "/></g></g></g><g fill="#ffbd59" fill-opacity="1"><g transform="translate(717.144304, 934.126154)"><g><path d="M 37.265625 0 L 29.625 0 L 24.515625 -13.328125 C 24.066406 -14.554688 23.375 -15.414062 22.4375 -15.90625 C 21.5 -16.394531 20.28125 -16.640625 18.78125 -16.640625 L 11.53125 -16.640625 L 11.53125 0 L 4.328125 0 L 4.328125 -40.03125 L 21.46875 -40.03125 C 26.007812 -40.03125 29.457031 -39.035156 31.8125 -37.046875 C 34.175781 -35.054688 35.359375 -32.207031 35.359375 -28.5 C 35.359375 -25.84375 34.65625 -23.585938 33.25 -21.734375 C 31.84375 -19.878906 29.847656 -18.554688 27.265625 -17.765625 C 29.628906 -17.273438 31.332031 -15.625 32.375 -12.8125 Z M 20.46875 -22.265625 C 23.195312 -22.265625 25.21875 -22.769531 26.53125 -23.78125 C 27.84375 -24.789062 28.5 -26.328125 28.5 -28.390625 C 28.5 -30.410156 27.851562 -31.914062 26.5625 -32.90625 C 25.269531 -33.90625 23.238281 -34.40625 20.46875 -34.40625 L 11.40625 -34.40625 L 11.40625 -22.265625 Z M 20.46875 -22.265625 "/></g></g></g><g fill="#ffbd59" fill-opacity="1"><g transform="translate(756.612055, 934.126154)"><g><path d="M 4.328125 -40.03125 L 19.0625 -40.03125 C 25.613281 -40.03125 30.695312 -38.285156 34.3125 -34.796875 C 37.9375 -31.316406 39.75 -26.40625 39.75 -20.0625 C 39.75 -13.695312 37.9375 -8.757812 34.3125 -5.25 C 30.695312 -1.75 25.613281 0 19.0625 0 L 4.328125 0 Z M 18.609375 -5.90625 C 27.828125 -5.90625 32.4375 -10.625 32.4375 -20.0625 C 32.4375 -29.4375 27.828125 -34.125 18.609375 -34.125 L 11.578125 -34.125 L 11.578125 -5.90625 Z M 18.609375 -5.90625 "/></g></g></g><g fill="#ffbd59" fill-opacity="1"><g transform="translate(799.453132, 934.126154)"><g><path d="M 4.328125 0 L 4.328125 -40.03125 L 11.578125 -40.03125 L 11.578125 0 Z M 4.328125 0 "/></g></g></g><g fill="#ffbd59" fill-opacity="1"><g transform="translate(815.363921, 934.126154)"><g><path d="M 31.25 -40.03125 L 38.0625 -40.03125 L 38.0625 0 L 32.65625 0 L 11.078125 -28.046875 L 11.078125 0 L 4.328125 0 L 4.328125 -40.03125 L 9.71875 -40.03125 L 31.25 -12.03125 Z M 31.25 -40.03125 "/></g></g></g><g fill="#ffbd59" fill-opacity="1"><g transform="translate(857.811427, 934.126154)"><g><path d="M 37.71875 -21.640625 L 37.71875 -2.421875 C 35.882812 -1.515625 33.671875 -0.800781 31.078125 -0.28125 C 28.492188 0.238281 25.851562 0.5 23.15625 0.5 C 19.039062 0.5 15.460938 -0.320312 12.421875 -1.96875 C 9.390625 -3.613281 7.066406 -5.972656 5.453125 -9.046875 C 3.835938 -12.117188 3.03125 -15.789062 3.03125 -20.0625 C 3.03125 -24.257812 3.835938 -27.894531 5.453125 -30.96875 C 7.066406 -34.050781 9.363281 -36.414062 12.34375 -38.0625 C 15.320312 -39.707031 18.816406 -40.53125 22.828125 -40.53125 C 25.640625 -40.53125 28.269531 -40.117188 30.71875 -39.296875 C 33.175781 -38.472656 35.226562 -37.3125 36.875 -35.8125 L 34.40625 -30.53125 C 32.53125 -31.988281 30.691406 -33.035156 28.890625 -33.671875 C 27.097656 -34.304688 25.132812 -34.625 23 -34.625 C 18.875 -34.625 15.75 -33.382812 13.625 -30.90625 C 11.507812 -28.4375 10.453125 -24.820312 10.453125 -20.0625 C 10.453125 -15.15625 11.539062 -11.457031 13.71875 -8.96875 C 15.894531 -6.476562 19.132812 -5.234375 23.4375 -5.234375 C 26.0625 -5.234375 28.648438 -5.585938 31.203125 -6.296875 L 31.203125 -16.421875 L 22.546875 -16.421875 L 22.546875 -21.640625 Z M 37.71875 -21.640625 "/></g></g></g><g fill="#ffbd59" fill-opacity="1"><g transform="translate(899.359382, 934.126154)"><g/></g></g><g fill="#ffbd59" fill-opacity="1"><g transform="translate(914.764162, 934.126154)"><g><path d="M 4.328125 -40.03125 L 21.703125 -40.03125 C 26.015625 -40.03125 29.367188 -38.988281 31.765625 -36.90625 C 34.160156 -34.820312 35.359375 -31.984375 35.359375 -28.390625 C 35.359375 -24.796875 34.148438 -21.945312 31.734375 -19.84375 C 29.316406 -17.75 25.972656 -16.703125 21.703125 -16.703125 L 11.578125 -16.703125 L 11.578125 0 L 4.328125 0 Z M 20.859375 -22.3125 C 23.367188 -22.3125 25.269531 -22.828125 26.5625 -23.859375 C 27.851562 -24.890625 28.5 -26.378906 28.5 -28.328125 C 28.5 -30.316406 27.863281 -31.828125 26.59375 -32.859375 C 25.320312 -33.890625 23.410156 -34.40625 20.859375 -34.40625 L 11.578125 -34.40625 L 11.578125 -22.3125 Z M 20.859375 -22.3125 "/></g></g></g><g fill="#ffbd59" fill-opacity="1"><g transform="translate(952.207911, 934.126154)"><g><path d="M 37.265625 0 L 29.625 0 L 24.515625 -13.328125 C 24.066406 -14.554688 23.375 -15.414062 22.4375 -15.90625 C 21.5 -16.394531 20.28125 -16.640625 18.78125 -16.640625 L 11.53125 -16.640625 L 11.53125 0 L 4.328125 0 L 4.328125 -40.03125 L 21.46875 -40.03125 C 26.007812 -40.03125 29.457031 -39.035156 31.8125 -37.046875 C 34.175781 -35.054688 35.359375 -32.207031 35.359375 -28.5 C 35.359375 -25.84375 34.65625 -23.585938 33.25 -21.734375 C 31.84375 -19.878906 29.847656 -18.554688 27.265625 -17.765625 C 29.628906 -17.273438 31.332031 -15.625 32.375 -12.8125 Z M 20.46875 -22.265625 C 23.195312 -22.265625 25.21875 -22.769531 26.53125 -23.78125 C 27.84375 -24.789062 28.5 -26.328125 28.5 -28.390625 C 28.5 -30.410156 27.851562 -31.914062 26.5625 -32.90625 C 25.269531 -33.90625 23.238281 -34.40625 20.46875 -34.40625 L 11.40625 -34.40625 L 11.40625 -22.265625 Z M 20.46875 -22.265625 "/></g></g></g><g fill="#ffbd59" fill-opacity="1"><g transform="translate(991.675662, 934.126154)"><g><path d="M 22.09375 0.5 C 18.226562 0.5 14.863281 -0.332031 12 -2 C 9.132812 -3.664062 6.921875 -6.046875 5.359375 -9.140625 C 3.804688 -12.234375 3.03125 -15.875 3.03125 -20.0625 C 3.03125 -24.226562 3.796875 -27.859375 5.328125 -30.953125 C 6.867188 -34.046875 9.070312 -36.414062 11.9375 -38.0625 C 14.8125 -39.707031 18.195312 -40.53125 22.09375 -40.53125 C 25.988281 -40.53125 29.367188 -39.707031 32.234375 -38.0625 C 35.109375 -36.414062 37.300781 -34.046875 38.8125 -30.953125 C 40.332031 -27.859375 41.09375 -24.226562 41.09375 -20.0625 C 41.09375 -15.875 40.320312 -12.234375 38.78125 -9.140625 C 37.25 -6.046875 35.054688 -3.664062 32.203125 -2 C 29.359375 -0.332031 25.988281 0.5 22.09375 0.5 Z M 22.09375 -5.28125 C 25.800781 -5.28125 28.6875 -6.554688 30.75 -9.109375 C 32.8125 -11.660156 33.84375 -15.3125 33.84375 -20.0625 C 33.84375 -24.789062 32.8125 -28.421875 30.75 -30.953125 C 28.6875 -33.484375 25.800781 -34.75 22.09375 -34.75 C 18.382812 -34.75 15.5 -33.488281 13.4375 -30.96875 C 11.375 -28.457031 10.34375 -24.820312 10.34375 -20.0625 C 10.34375 -15.3125 11.375 -11.660156 13.4375 -9.109375 C 15.5 -6.554688 18.382812 -5.28125 22.09375 -5.28125 Z M 22.09375 -5.28125 "/></g></g></g><g fill="#ffbd59" fill-opacity="1"><g transform="translate(1035.866032, 934.126154)"><g><path d="M 4.328125 -40.03125 L 19.0625 -40.03125 C 25.613281 -40.03125 30.695312 -38.285156 34.3125 -34.796875 C 37.9375 -31.316406 39.75 -26.40625 39.75 -20.0625 C 39.75 -13.695312 37.9375 -8.757812 34.3125 -5.25 C 30.695312 -1.75 25.613281 0 19.0625 0 L 4.328125 0 Z M 18.609375 -5.90625 C 27.828125 -5.90625 32.4375 -10.625 32.4375 -20.0625 C 32.4375 -29.4375 27.828125 -34.125 18.609375 -34.125 L 11.578125 -34.125 L 11.578125 -5.90625 Z M 18.609375 -5.90625 "/></g></g></g><g fill="#ffbd59" fill-opacity="1"><g transform="translate(1078.707079, 934.126154)"><g><path d="M 20.859375 0.5 C 15.347656 0.5 11.175781 -0.910156 8.34375 -3.734375 C 5.519531 -6.566406 4.109375 -10.71875 4.109375 -16.1875 L 4.109375 -40.03125 L 11.25 -40.03125 L 11.25 -15.796875 C 11.25 -12.347656 12.050781 -9.734375 13.65625 -7.953125 C 15.269531 -6.171875 17.671875 -5.28125 20.859375 -5.28125 C 23.960938 -5.28125 26.332031 -6.179688 27.96875 -7.984375 C 29.601562 -9.785156 30.421875 -12.390625 30.421875 -15.796875 L 30.421875 -40.03125 L 37.546875 -40.03125 L 37.546875 -16.1875 C 37.546875 -10.757812 36.125 -6.617188 33.28125 -3.765625 C 30.4375 -0.921875 26.296875 0.5 20.859375 0.5 Z M 20.859375 0.5 "/></g></g></g><g fill="#ffbd59" fill-opacity="1"><g transform="translate(1120.311237, 934.126154)"><g><path d="M 22.484375 0.5 C 18.546875 0.5 15.109375 -0.335938 12.171875 -2.015625 C 9.234375 -3.703125 6.972656 -6.09375 5.390625 -9.1875 C 3.816406 -12.28125 3.03125 -15.90625 3.03125 -20.0625 C 3.03125 -24.1875 3.816406 -27.796875 5.390625 -30.890625 C 6.972656 -33.984375 9.234375 -36.363281 12.171875 -38.03125 C 15.109375 -39.695312 18.546875 -40.53125 22.484375 -40.53125 C 25.179688 -40.53125 27.71875 -40.109375 30.09375 -39.265625 C 32.476562 -38.421875 34.457031 -37.25 36.03125 -35.75 L 33.671875 -30.46875 C 31.878906 -31.925781 30.09375 -32.984375 28.3125 -33.640625 C 26.53125 -34.296875 24.625 -34.625 22.59375 -34.625 C 18.738281 -34.625 15.75 -33.367188 13.625 -30.859375 C 11.507812 -28.347656 10.453125 -24.75 10.453125 -20.0625 C 10.453125 -15.34375 11.5 -11.71875 13.59375 -9.1875 C 15.695312 -6.65625 18.695312 -5.390625 22.59375 -5.390625 C 24.625 -5.390625 26.53125 -5.71875 28.3125 -6.375 C 30.09375 -7.03125 31.878906 -8.09375 33.671875 -9.5625 L 36.03125 -4.265625 C 34.457031 -2.773438 32.476562 -1.609375 30.09375 -0.765625 C 27.71875 0.078125 25.179688 0.5 22.484375 0.5 Z M 22.484375 0.5 "/></g></g></g><g fill="#ffbd59" fill-opacity="1"><g transform="translate(1158.823204, 934.126154)"><g><path d="M 13.71875 0 L 13.71875 -34.0625 L 0.671875 -34.0625 L 0.671875 -40.03125 L 34.125 -40.03125 L 34.125 -34.0625 L 21.03125 -34.0625 L 21.03125 0 Z M 13.71875 0 "/></g></g></g><g fill="#ffbd59" fill-opacity="1"><g transform="translate(1193.624506, 934.126154)"><g><path d="M 4.328125 0 L 4.328125 -40.03125 L 11.578125 -40.03125 L 11.578125 0 Z M 4.328125 0 "/></g></g></g><g fill="#ffbd59" fill-opacity="1"><g transform="translate(1209.535326, 934.126154)"><g><path d="M 33.671875 -40.03125 L 41.046875 -40.03125 L 23.21875 0 L 17.3125 0 L -0.5 -40.03125 L 7.03125 -40.03125 L 20.34375 -9.109375 Z M 33.671875 -40.03125 "/></g></g></g><g fill="#ffbd59" fill-opacity="1"><g transform="translate(1250.071265, 934.126154)"><g><path d="M 4.328125 0 L 4.328125 -40.03125 L 11.578125 -40.03125 L 11.578125 0 Z M 4.328125 0 "/></g></g></g><g fill="#ffbd59" fill-opacity="1"><g transform="translate(1265.982085, 934.126154)"><g><path d="M 13.71875 0 L 13.71875 -34.0625 L 0.671875 -34.0625 L 0.671875 -40.03125 L 34.125 -40.03125 L 34.125 -34.0625 L 21.03125 -34.0625 L 21.03125 0 Z M 13.71875 0 "/></g></g></g><g fill="#ffbd59" fill-opacity="1"><g transform="translate(1300.783386, 934.126154)"><g><path d="M 37.546875 -40.03125 L 21.3125 -15.859375 L 21.3125 0 L 14.0625 0 L 14.0625 -15.859375 L -2.1875 -40.03125 L 6.078125 -40.03125 L 17.65625 -21.921875 L 29.296875 -40.03125 Z M 37.546875 -40.03125 "/></g></g></g></svg>