<svg xmlns="http://www.w3.org/2000/svg" xmlns:xlink="http://www.w3.org/1999/xlink" width="1579" zoomAndPan="magnify" viewBox="0 0 1184.25 416.250001" height="555" preserveAspectRatio="xMidYMid meet" version="1.0"><defs><g/><clipPath id="4afaa40b06"><path d="M 84 38.074219 L 312 38.074219 L 312 267 L 84 267 Z M 84 38.074219 " clip-rule="nonzero"/></clipPath><clipPath id="a727d4ffa9"><path d="M 39 83 L 268 83 L 268 311.332031 L 39 311.332031 Z M 39 83 " clip-rule="nonzero"/></clipPath></defs><path fill="#ffffff" d="M 302.03125 191.671875 C 300.046875 191.964844 298.015625 192.117188 295.945312 192.117188 C 276.902344 192.117188 260.789062 179.683594 255.261719 162.507812 C 254.316406 159.574219 251.914062 157.3125 248.878906 156.738281 C 217.253906 150.726562 193.339844 123.015625 193.339844 89.699219 C 193.339844 75.707031 197.574219 62.710938 204.8125 51.886719 C 206.53125 49.3125 205.09375 45.882812 202.054688 45.28125 C 193.703125 43.632812 185.074219 42.757812 176.238281 42.757812 C 103.042969 42.757812 43.707031 101.984375 43.707031 175.046875 C 43.707031 248.109375 103.042969 307.335938 176.238281 307.335938 C 242.207031 307.335938 296.753906 259.40625 307.015625 196.4375 C 307.480469 193.578125 304.902344 191.25 302.03125 191.671875 Z M 302.03125 191.671875 " fill-opacity="1" fill-rule="nonzero"/><path fill="#000000" d="M 133.488281 132.375 C 133.488281 132.933594 133.460938 133.492188 133.40625 134.046875 C 133.347656 134.601562 133.265625 135.15625 133.160156 135.703125 C 133.050781 136.25 132.914062 136.792969 132.75 137.328125 C 132.589844 137.863281 132.398438 138.390625 132.183594 138.90625 C 131.972656 139.421875 131.730469 139.925781 131.46875 140.417969 C 131.203125 140.914062 130.917969 141.390625 130.605469 141.855469 C 130.292969 142.320312 129.960938 142.769531 129.605469 143.203125 C 129.25 143.632812 128.875 144.046875 128.480469 144.441406 C 128.082031 144.835938 127.667969 145.210938 127.234375 145.566406 C 126.800781 145.921875 126.351562 146.253906 125.886719 146.566406 C 125.421875 146.875 124.941406 147.164062 124.449219 147.425781 C 123.953125 147.691406 123.449219 147.929688 122.929688 148.140625 C 122.414062 148.355469 121.886719 148.542969 121.351562 148.707031 C 120.816406 148.867188 120.273438 149.003906 119.722656 149.113281 C 119.175781 149.222656 118.621094 149.304688 118.0625 149.359375 C 117.507812 149.414062 116.949219 149.441406 116.386719 149.441406 C 115.828125 149.441406 115.269531 149.414062 114.710938 149.359375 C 114.15625 149.304688 113.601562 149.222656 113.050781 149.113281 C 112.503906 149.003906 111.960938 148.867188 111.425781 148.707031 C 110.890625 148.542969 110.363281 148.355469 109.84375 148.140625 C 109.328125 147.929688 108.820312 147.691406 108.328125 147.425781 C 107.835938 147.164062 107.355469 146.875 106.886719 146.566406 C 106.421875 146.253906 105.972656 145.921875 105.539062 145.566406 C 105.109375 145.210938 104.695312 144.835938 104.296875 144.441406 C 103.902344 144.046875 103.527344 143.632812 103.171875 143.203125 C 102.816406 142.769531 102.480469 142.320312 102.171875 141.855469 C 101.859375 141.390625 101.574219 140.914062 101.308594 140.417969 C 101.042969 139.925781 100.804688 139.421875 100.589844 138.90625 C 100.375 138.390625 100.1875 137.863281 100.027344 137.328125 C 99.863281 136.792969 99.726562 136.25 99.617188 135.703125 C 99.507812 135.15625 99.425781 134.601562 99.371094 134.046875 C 99.316406 133.492188 99.289062 132.933594 99.289062 132.375 C 99.289062 131.816406 99.316406 131.257812 99.371094 130.699219 C 99.425781 130.144531 99.507812 129.59375 99.617188 129.042969 C 99.726562 128.496094 99.863281 127.953125 100.027344 127.417969 C 100.1875 126.882812 100.375 126.359375 100.589844 125.84375 C 100.804688 125.328125 101.042969 124.820312 101.308594 124.328125 C 101.574219 123.835938 101.859375 123.355469 102.171875 122.890625 C 102.480469 122.425781 102.816406 121.980469 103.171875 121.546875 C 103.527344 121.113281 103.902344 120.699219 104.296875 120.304688 C 104.695312 119.910156 105.109375 119.535156 105.539062 119.179688 C 105.972656 118.828125 106.421875 118.492188 106.886719 118.183594 C 107.355469 117.871094 107.835938 117.585938 108.328125 117.320312 C 108.820312 117.058594 109.328125 116.820312 109.84375 116.605469 C 110.363281 116.390625 110.890625 116.203125 111.425781 116.042969 C 111.960938 115.878906 112.503906 115.742188 113.050781 115.632812 C 113.601562 115.527344 114.15625 115.445312 114.710938 115.390625 C 115.269531 115.335938 115.828125 115.308594 116.386719 115.308594 C 116.949219 115.308594 117.507812 115.335938 118.0625 115.390625 C 118.621094 115.445312 119.175781 115.527344 119.722656 115.632812 C 120.273438 115.742188 120.816406 115.878906 121.351562 116.042969 C 121.886719 116.203125 122.414062 116.390625 122.929688 116.605469 C 123.449219 116.820312 123.953125 117.058594 124.449219 117.320312 C 124.941406 117.585938 125.421875 117.871094 125.886719 118.183594 C 126.351562 118.492188 126.800781 118.828125 127.234375 119.179688 C 127.667969 119.535156 128.082031 119.910156 128.480469 120.304688 C 128.875 120.699219 129.25 121.113281 129.605469 121.546875 C 129.960938 121.980469 130.292969 122.425781 130.605469 122.890625 C 130.917969 123.355469 131.203125 123.835938 131.46875 124.328125 C 131.730469 124.820312 131.972656 125.328125 132.183594 125.84375 C 132.398438 126.359375 132.589844 126.882812 132.75 127.417969 C 132.914062 127.953125 133.050781 128.496094 133.160156 129.042969 C 133.265625 129.59375 133.347656 130.144531 133.40625 130.699219 C 133.460938 131.257812 133.488281 131.816406 133.488281 132.375 Z M 133.488281 132.375 " fill-opacity="1" fill-rule="nonzero"/><path fill="#000000" d="M 137.761719 217.71875 C 137.761719 218.5625 137.679688 219.394531 137.515625 220.21875 C 137.351562 221.042969 137.109375 221.84375 136.789062 222.621094 C 136.464844 223.398438 136.070312 224.132812 135.601562 224.832031 C 135.132812 225.53125 134.601562 226.179688 134.007812 226.773438 C 133.410156 227.367188 132.761719 227.898438 132.0625 228.367188 C 131.363281 228.832031 130.625 229.226562 129.84375 229.550781 C 129.066406 229.871094 128.265625 230.113281 127.4375 230.277344 C 126.613281 230.441406 125.777344 230.523438 124.9375 230.523438 C 124.09375 230.523438 123.261719 230.441406 122.433594 230.277344 C 121.609375 230.113281 120.804688 229.871094 120.027344 229.550781 C 119.25 229.226562 118.511719 228.832031 117.8125 228.367188 C 117.109375 227.898438 116.460938 227.367188 115.867188 226.773438 C 115.273438 226.179688 114.738281 225.53125 114.273438 224.832031 C 113.804688 224.132812 113.410156 223.398438 113.085938 222.621094 C 112.765625 221.84375 112.519531 221.042969 112.355469 220.21875 C 112.191406 219.394531 112.109375 218.5625 112.109375 217.71875 C 112.109375 216.878906 112.191406 216.046875 112.355469 215.222656 C 112.519531 214.398438 112.765625 213.597656 113.085938 212.820312 C 113.410156 212.042969 113.804688 211.304688 114.273438 210.609375 C 114.738281 209.910156 115.273438 209.261719 115.867188 208.667969 C 116.460938 208.074219 117.109375 207.542969 117.8125 207.074219 C 118.511719 206.609375 119.25 206.214844 120.027344 205.890625 C 120.804688 205.570312 121.609375 205.328125 122.433594 205.164062 C 123.261719 205 124.09375 204.917969 124.9375 204.917969 C 125.777344 204.917969 126.613281 205 127.4375 205.164062 C 128.265625 205.328125 129.066406 205.570312 129.84375 205.890625 C 130.625 206.214844 131.363281 206.609375 132.0625 207.074219 C 132.761719 207.542969 133.410156 208.074219 134.007812 208.667969 C 134.601562 209.261719 135.132812 209.910156 135.601562 210.609375 C 136.070312 211.304688 136.464844 212.042969 136.789062 212.820312 C 137.109375 213.597656 137.351562 214.398438 137.515625 215.222656 C 137.679688 216.046875 137.761719 216.878906 137.761719 217.71875 Z M 137.761719 217.71875 " fill-opacity="1" fill-rule="nonzero"/><path fill="#ffffff" d="M 231.292969 77.347656 L 230.066406 84.691406 C 229.058594 90.730469 232.472656 96.636719 238.214844 98.785156 L 249.074219 102.851562 C 256.246094 105.535156 264.164062 101.386719 266.019531 93.96875 L 269.890625 78.511719 C 272.300781 68.882812 263.289062 60.292969 253.761719 63.144531 L 240.257812 67.1875 C 235.574219 68.59375 232.097656 72.53125 231.292969 77.347656 Z M 231.292969 77.347656 " fill-opacity="1" fill-rule="nonzero"/><path fill="#ffffff" d="M 274.570312 123.839844 L 269.40625 126.417969 C 265.355469 128.4375 263.589844 133.257812 265.371094 137.414062 L 269.527344 147.085938 C 272.042969 152.945312 279.867188 154.082031 283.953125 149.1875 L 290.636719 141.183594 C 293.769531 137.429688 293.113281 131.824219 289.199219 128.890625 L 283.523438 124.644531 C 280.933594 122.707031 277.464844 122.394531 274.570312 123.839844 Z M 274.570312 123.839844 " fill-opacity="1" fill-rule="nonzero"/><path fill="#ffffff" d="M 308.769531 98.234375 C 308.769531 98.792969 308.714844 99.347656 308.605469 99.898438 C 308.496094 100.449219 308.335938 100.980469 308.121094 101.5 C 307.90625 102.015625 307.640625 102.507812 307.328125 102.976562 C 307.015625 103.441406 306.664062 103.871094 306.265625 104.269531 C 305.867188 104.664062 305.4375 105.019531 304.96875 105.328125 C 304.503906 105.640625 304.011719 105.902344 303.492188 106.117188 C 302.972656 106.332031 302.4375 106.496094 301.886719 106.605469 C 301.339844 106.714844 300.78125 106.769531 300.222656 106.769531 C 299.660156 106.769531 299.101562 106.714844 298.554688 106.605469 C 298.003906 106.496094 297.46875 106.332031 296.949219 106.117188 C 296.429688 105.902344 295.9375 105.640625 295.472656 105.328125 C 295.003906 105.019531 294.574219 104.664062 294.175781 104.269531 C 293.777344 103.871094 293.425781 103.441406 293.113281 102.976562 C 292.800781 102.507812 292.535156 102.015625 292.320312 101.5 C 292.105469 100.980469 291.945312 100.449219 291.835938 99.898438 C 291.726562 99.347656 291.671875 98.792969 291.671875 98.234375 C 291.671875 97.671875 291.726562 97.117188 291.835938 96.570312 C 291.945312 96.019531 292.105469 95.484375 292.320312 94.96875 C 292.535156 94.449219 292.800781 93.957031 293.113281 93.492188 C 293.425781 93.027344 293.777344 92.597656 294.175781 92.199219 C 294.574219 91.804688 295.003906 91.449219 295.472656 91.136719 C 295.9375 90.828125 296.429688 90.566406 296.949219 90.351562 C 297.46875 90.136719 298.003906 89.972656 298.554688 89.863281 C 299.101562 89.753906 299.660156 89.699219 300.222656 89.699219 C 300.78125 89.699219 301.339844 89.753906 301.886719 89.863281 C 302.4375 89.972656 302.972656 90.136719 303.492188 90.351562 C 304.011719 90.566406 304.503906 90.828125 304.96875 91.136719 C 305.4375 91.449219 305.867188 91.804688 306.265625 92.199219 C 306.664062 92.597656 307.015625 93.027344 307.328125 93.492188 C 307.640625 93.957031 307.90625 94.449219 308.121094 94.96875 C 308.335938 95.484375 308.496094 96.019531 308.605469 96.570312 C 308.714844 97.117188 308.769531 97.671875 308.769531 98.234375 Z M 308.769531 98.234375 " fill-opacity="1" fill-rule="nonzero"/><path fill="#ffffff" d="M 192.273438 291.335938 C 119.078125 291.335938 59.742188 232.105469 59.742188 159.046875 C 59.742188 126.589844 71.46875 96.878906 90.902344 73.863281 C 62.054688 98.128906 43.707031 134.441406 43.707031 175.046875 C 43.707031 248.109375 103.042969 307.335938 176.242188 307.335938 C 216.945312 307.335938 253.285156 289.070312 277.570312 260.300781 C 254.539062 279.664062 224.800781 291.335938 192.273438 291.335938 Z M 192.273438 291.335938 " fill-opacity="1" fill-rule="nonzero"/><path fill="#ffffff" d="M 250.976562 92.945312 C 243.804688 90.261719 239.539062 82.886719 240.796875 75.34375 L 242.261719 66.589844 L 240.257812 67.191406 C 235.574219 68.59375 232.097656 72.53125 231.292969 77.347656 L 230.066406 84.695312 C 229.058594 90.730469 232.472656 96.636719 238.214844 98.785156 L 249.074219 102.851562 C 254.832031 105.003906 261.015625 102.710938 264.210938 97.902344 Z M 250.976562 92.945312 " fill-opacity="1" fill-rule="nonzero"/><path fill="#ffffff" d="M 278.648438 141.585938 L 273.945312 130.628906 C 273.058594 128.570312 272.984375 126.378906 273.523438 124.363281 L 269.40625 126.414062 C 265.359375 128.4375 263.589844 133.257812 265.371094 137.410156 L 269.527344 147.085938 C 272.042969 152.941406 279.867188 154.082031 283.953125 149.1875 L 285.613281 147.199219 C 282.675781 146.601562 279.988281 144.710938 278.648438 141.585938 Z M 278.648438 141.585938 " fill-opacity="1" fill-rule="nonzero"/><path fill="#000000" d="M 125.472656 140.375 C 116.027344 140.375 108.371094 132.734375 108.371094 123.304688 C 108.371094 120.945312 108.851562 118.695312 109.71875 116.652344 C 103.589844 119.246094 99.285156 125.308594 99.285156 132.375 C 99.285156 141.800781 106.941406 149.445312 116.386719 149.445312 C 123.464844 149.445312 129.539062 145.148438 132.136719 139.027344 C 130.089844 139.894531 127.835938 140.375 125.472656 140.375 Z M 125.472656 140.375 " fill-opacity="1" fill-rule="nonzero"/><path fill="#000000" d="M 131.617188 223.855469 C 124.535156 223.855469 118.792969 218.125 118.792969 211.054688 C 118.792969 209.25 119.175781 207.535156 119.851562 205.976562 C 115.300781 207.945312 112.113281 212.457031 112.113281 217.722656 C 112.113281 224.792969 117.855469 230.523438 124.9375 230.523438 C 130.210938 230.523438 134.734375 227.339844 136.703125 222.800781 C 135.144531 223.472656 133.425781 223.855469 131.617188 223.855469 Z M 131.617188 223.855469 " fill-opacity="1" fill-rule="nonzero"/><path fill="#000000" d="M 223.265625 230.523438 C 223.265625 231.082031 223.238281 231.640625 223.183594 232.195312 C 223.128906 232.753906 223.046875 233.304688 222.9375 233.851562 C 222.828125 234.402344 222.691406 234.941406 222.53125 235.476562 C 222.367188 236.011719 222.179688 236.539062 221.964844 237.054688 C 221.75 237.570312 221.511719 238.074219 221.246094 238.570312 C 220.984375 239.0625 220.695312 239.539062 220.386719 240.003906 C 220.074219 240.46875 219.742188 240.917969 219.386719 241.351562 C 219.03125 241.78125 218.65625 242.195312 218.257812 242.589844 C 217.863281 242.988281 217.449219 243.363281 217.015625 243.714844 C 216.582031 244.070312 216.132812 244.402344 215.667969 244.714844 C 215.203125 245.023438 214.722656 245.3125 214.226562 245.574219 C 213.734375 245.839844 213.230469 246.078125 212.710938 246.292969 C 212.195312 246.503906 211.667969 246.691406 211.132812 246.855469 C 210.597656 247.019531 210.054688 247.152344 209.503906 247.261719 C 208.953125 247.371094 208.402344 247.453125 207.84375 247.507812 C 207.285156 247.5625 206.726562 247.589844 206.167969 247.589844 C 205.609375 247.589844 205.050781 247.5625 204.492188 247.507812 C 203.933594 247.453125 203.382812 247.371094 202.832031 247.261719 C 202.28125 247.152344 201.742188 247.019531 201.203125 246.855469 C 200.667969 246.691406 200.140625 246.503906 199.625 246.292969 C 199.109375 246.078125 198.601562 245.839844 198.109375 245.574219 C 197.613281 245.3125 197.132812 245.023438 196.667969 244.714844 C 196.203125 244.402344 195.753906 244.070312 195.320312 243.714844 C 194.886719 243.363281 194.472656 242.988281 194.078125 242.589844 C 193.679688 242.195312 193.304688 241.78125 192.949219 241.351562 C 192.59375 240.917969 192.261719 240.46875 191.953125 240.003906 C 191.640625 239.539062 191.351562 239.0625 191.089844 238.570312 C 190.824219 238.074219 190.585938 237.570312 190.371094 237.054688 C 190.15625 236.539062 189.96875 236.011719 189.804688 235.476562 C 189.644531 234.941406 189.507812 234.402344 189.398438 233.851562 C 189.289062 233.304688 189.207031 232.753906 189.152344 232.195312 C 189.097656 231.640625 189.070312 231.082031 189.070312 230.523438 C 189.070312 229.964844 189.097656 229.40625 189.152344 228.851562 C 189.207031 228.292969 189.289062 227.742188 189.398438 227.195312 C 189.507812 226.644531 189.644531 226.105469 189.804688 225.570312 C 189.96875 225.035156 190.15625 224.507812 190.371094 223.992188 C 190.585938 223.476562 190.824219 222.96875 191.089844 222.476562 C 191.351562 221.984375 191.640625 221.503906 191.953125 221.042969 C 192.261719 220.578125 192.59375 220.128906 192.949219 219.695312 C 193.304688 219.265625 193.679688 218.851562 194.078125 218.453125 C 194.472656 218.058594 194.886719 217.683594 195.320312 217.328125 C 195.753906 216.976562 196.203125 216.644531 196.667969 216.332031 C 197.132812 216.023438 197.613281 215.734375 198.109375 215.472656 C 198.601562 215.207031 199.109375 214.96875 199.625 214.753906 C 200.140625 214.542969 200.667969 214.351562 201.203125 214.191406 C 201.742188 214.027344 202.28125 213.894531 202.832031 213.785156 C 203.382812 213.675781 203.933594 213.59375 204.492188 213.539062 C 205.050781 213.484375 205.609375 213.457031 206.167969 213.457031 C 206.726562 213.457031 207.285156 213.484375 207.84375 213.539062 C 208.402344 213.59375 208.953125 213.675781 209.503906 213.785156 C 210.054688 213.894531 210.597656 214.027344 211.132812 214.191406 C 211.667969 214.351562 212.195312 214.542969 212.710938 214.753906 C 213.230469 214.96875 213.734375 215.207031 214.226562 215.472656 C 214.722656 215.734375 215.203125 216.023438 215.667969 216.332031 C 216.132812 216.644531 216.582031 216.976562 217.015625 217.328125 C 217.449219 217.683594 217.863281 218.058594 218.257812 218.453125 C 218.65625 218.851562 219.03125 219.265625 219.386719 219.695312 C 219.742188 220.128906 220.074219 220.578125 220.386719 221.042969 C 220.695312 221.503906 220.984375 221.984375 221.246094 222.476562 C 221.511719 222.96875 221.75 223.476562 221.964844 223.992188 C 222.179688 224.507812 222.367188 225.035156 222.53125 225.570312 C 222.691406 226.105469 222.828125 226.644531 222.9375 227.195312 C 223.046875 227.742188 223.128906 228.292969 223.183594 228.851562 C 223.238281 229.40625 223.265625 229.964844 223.265625 230.523438 Z M 223.265625 230.523438 " fill-opacity="1" fill-rule="nonzero"/><path fill="#000000" d="M 215.25 238.523438 C 205.804688 238.523438 198.152344 230.882812 198.152344 221.457031 C 198.152344 219.09375 198.632812 216.847656 199.5 214.800781 C 193.367188 217.394531 189.066406 223.457031 189.066406 230.523438 C 189.066406 239.949219 196.722656 247.59375 206.167969 247.59375 C 213.246094 247.59375 219.320312 243.296875 221.917969 237.179688 C 219.871094 238.042969 217.617188 238.523438 215.25 238.523438 Z M 215.25 238.523438 " fill-opacity="1" fill-rule="nonzero"/><path fill="#000000" d="M 180.335938 153.710938 C 180.335938 154.269531 180.28125 154.824219 180.167969 155.375 C 180.058594 155.925781 179.898438 156.457031 179.683594 156.976562 C 179.46875 157.492188 179.207031 157.984375 178.894531 158.453125 C 178.582031 158.917969 178.226562 159.347656 177.828125 159.746094 C 177.433594 160.140625 177 160.496094 176.535156 160.804688 C 176.066406 161.117188 175.574219 161.378906 175.054688 161.59375 C 174.539062 161.808594 174.003906 161.972656 173.453125 162.082031 C 172.902344 162.191406 172.347656 162.246094 171.785156 162.246094 C 171.222656 162.246094 170.667969 162.191406 170.117188 162.082031 C 169.566406 161.972656 169.03125 161.808594 168.511719 161.59375 C 167.996094 161.378906 167.5 161.117188 167.035156 160.804688 C 166.566406 160.496094 166.136719 160.140625 165.738281 159.746094 C 165.34375 159.347656 164.988281 158.917969 164.675781 158.453125 C 164.363281 157.984375 164.101562 157.492188 163.886719 156.976562 C 163.671875 156.457031 163.507812 155.925781 163.398438 155.375 C 163.289062 154.824219 163.234375 154.269531 163.234375 153.710938 C 163.234375 153.152344 163.289062 152.59375 163.398438 152.046875 C 163.507812 151.496094 163.671875 150.960938 163.886719 150.445312 C 164.101562 149.925781 164.363281 149.4375 164.675781 148.96875 C 164.988281 148.503906 165.34375 148.074219 165.738281 147.675781 C 166.136719 147.28125 166.566406 146.925781 167.035156 146.617188 C 167.5 146.304688 167.996094 146.042969 168.511719 145.828125 C 169.03125 145.613281 169.566406 145.449219 170.117188 145.339844 C 170.667969 145.230469 171.222656 145.175781 171.785156 145.175781 C 172.347656 145.175781 172.902344 145.230469 173.453125 145.339844 C 174.003906 145.449219 174.539062 145.613281 175.054688 145.828125 C 175.574219 146.042969 176.066406 146.304688 176.535156 146.617188 C 177 146.925781 177.433594 147.28125 177.828125 147.675781 C 178.226562 148.074219 178.582031 148.503906 178.894531 148.96875 C 179.207031 149.4375 179.46875 149.925781 179.683594 150.445312 C 179.898438 150.960938 180.058594 151.496094 180.167969 152.046875 C 180.28125 152.59375 180.335938 153.152344 180.335938 153.710938 Z M 180.335938 153.710938 " fill-opacity="1" fill-rule="nonzero"/><path fill="#200f05" d="M 116.386719 111.3125 C 104.75 111.3125 95.285156 120.761719 95.285156 132.375 C 95.285156 143.988281 104.753906 153.433594 116.386719 153.433594 C 128.023438 153.433594 137.488281 143.988281 137.488281 132.375 C 137.488281 120.761719 128.023438 111.3125 116.386719 111.3125 Z M 116.386719 145.449219 C 109.164062 145.449219 103.285156 139.585938 103.285156 132.375 C 103.285156 125.164062 109.164062 119.296875 116.386719 119.296875 C 123.609375 119.296875 129.488281 125.164062 129.488281 132.375 C 129.488281 139.585938 123.609375 145.449219 116.386719 145.449219 Z M 116.386719 145.449219 " fill-opacity="1" fill-rule="nonzero"/><path fill="#200f05" d="M 185.066406 230.523438 C 185.066406 242.136719 194.53125 251.585938 206.167969 251.585938 C 217.800781 251.585938 227.265625 242.136719 227.265625 230.523438 C 227.265625 218.910156 217.800781 209.460938 206.167969 209.460938 C 194.53125 209.460938 185.066406 218.910156 185.066406 230.523438 Z M 206.167969 217.445312 C 213.390625 217.445312 219.265625 223.3125 219.265625 230.523438 C 219.265625 237.734375 213.390625 243.601562 206.167969 243.601562 C 198.941406 243.601562 193.066406 237.734375 193.066406 230.523438 C 193.066406 223.3125 198.941406 217.445312 206.167969 217.445312 Z M 206.167969 217.445312 " fill-opacity="1" fill-rule="nonzero"/><path fill="#200f05" d="M 124.9375 200.925781 C 115.660156 200.925781 108.113281 208.460938 108.113281 217.722656 C 108.113281 226.984375 115.660156 234.515625 124.9375 234.515625 C 134.214844 234.515625 141.761719 226.984375 141.761719 217.722656 C 141.761719 208.460938 134.214844 200.925781 124.9375 200.925781 Z M 124.9375 226.53125 C 120.070312 226.53125 116.113281 222.578125 116.113281 217.722656 C 116.113281 212.863281 120.070312 208.914062 124.9375 208.914062 C 129.804688 208.914062 133.761719 212.863281 133.761719 217.722656 C 133.761719 222.578125 129.804688 226.53125 124.9375 226.53125 Z M 124.9375 226.53125 " fill-opacity="1" fill-rule="nonzero"/><path fill="#200f05" d="M 159.414062 153.710938 C 159.414062 160.617188 165.046875 166.238281 171.964844 166.238281 C 178.886719 166.238281 184.515625 160.617188 184.515625 153.710938 C 184.515625 146.804688 178.886719 141.183594 171.964844 141.183594 C 165.046875 141.183594 159.414062 146.804688 159.414062 153.710938 Z M 171.964844 149.167969 C 174.472656 149.167969 176.515625 151.207031 176.515625 153.710938 C 176.515625 156.214844 174.472656 158.253906 171.964844 158.253906 C 169.457031 158.253906 167.414062 156.214844 167.414062 153.710938 C 167.414062 151.207031 169.457031 149.167969 171.964844 149.167969 Z M 171.964844 149.167969 " fill-opacity="1" fill-rule="nonzero"/><path fill="#200f05" d="M 253.199219 217.449219 C 253.796875 217.449219 254.410156 217.3125 254.984375 217.027344 C 256.957031 216.039062 257.761719 213.640625 256.773438 211.667969 L 252.496094 203.132812 C 251.507812 201.160156 249.105469 200.359375 247.128906 201.347656 C 245.152344 202.332031 244.351562 204.730469 245.339844 206.703125 L 249.617188 215.238281 C 250.316406 216.640625 251.730469 217.449219 253.199219 217.449219 Z M 253.199219 217.449219 " fill-opacity="1" fill-rule="nonzero"/><path fill="#200f05" d="M 206.167969 191.84375 C 206.769531 191.84375 207.382812 191.707031 207.957031 191.421875 L 216.503906 187.152344 C 218.480469 186.167969 219.28125 183.769531 218.292969 181.796875 C 217.304688 179.824219 214.90625 179.023438 212.929688 180.011719 L 204.378906 184.277344 C 202.402344 185.265625 201.601562 187.664062 202.589844 189.636719 C 203.289062 191.035156 204.703125 191.84375 206.167969 191.84375 Z M 206.167969 191.84375 " fill-opacity="1" fill-rule="nonzero"/><path fill="#200f05" d="M 87.15625 181.101562 C 87.859375 182.5 89.269531 183.308594 90.738281 183.308594 C 91.339844 183.308594 91.949219 183.171875 92.523438 182.886719 C 94.5 181.898438 95.300781 179.5 94.3125 177.53125 L 90.039062 168.996094 C 89.050781 167.023438 86.648438 166.222656 84.671875 167.210938 C 82.695312 168.195312 81.894531 170.59375 82.882812 172.566406 Z M 87.15625 181.101562 " fill-opacity="1" fill-rule="nonzero"/><path fill="#200f05" d="M 153.074219 248.289062 L 144.523438 252.558594 C 142.550781 253.542969 141.75 255.941406 142.738281 257.914062 C 143.4375 259.3125 144.847656 260.121094 146.316406 260.121094 C 146.917969 260.121094 147.527344 259.984375 148.101562 259.699219 L 156.652344 255.429688 C 158.628906 254.445312 159.429688 252.046875 158.441406 250.074219 C 157.453125 248.101562 155.050781 247.304688 153.074219 248.289062 Z M 153.074219 248.289062 " fill-opacity="1" fill-rule="nonzero"/><path fill="#200f05" d="M 157.691406 86.875 L 153.417969 82.609375 C 151.855469 81.050781 149.324219 81.050781 147.761719 82.609375 C 146.199219 84.167969 146.199219 86.695312 147.761719 88.253906 L 152.035156 92.523438 C 152.816406 93.304688 153.839844 93.691406 154.863281 93.691406 C 155.886719 93.691406 156.914062 93.304688 157.691406 92.523438 C 159.253906 90.964844 159.253906 88.4375 157.691406 86.875 Z M 157.691406 86.875 " fill-opacity="1" fill-rule="nonzero"/><path fill="#200f05" d="M 139.210938 180.757812 C 137.648438 182.320312 137.648438 184.847656 139.210938 186.40625 L 143.484375 190.671875 C 144.265625 191.453125 145.289062 191.84375 146.3125 191.84375 C 147.335938 191.84375 148.359375 191.453125 149.140625 190.671875 C 150.703125 189.113281 150.703125 186.585938 149.140625 185.027344 L 144.867188 180.757812 C 143.304688 179.199219 140.773438 179.199219 139.210938 180.757812 Z M 139.210938 180.757812 " fill-opacity="1" fill-rule="nonzero"/><path fill="#200f05" d="M 189.339844 273.199219 L 189.339844 277.464844 C 189.339844 279.671875 191.132812 281.457031 193.339844 281.457031 C 195.550781 281.457031 197.339844 279.671875 197.339844 277.464844 L 197.339844 273.199219 C 197.339844 270.992188 195.550781 269.207031 193.339844 269.207031 C 191.132812 269.207031 189.339844 270.992188 189.339844 273.199219 Z M 189.339844 273.199219 " fill-opacity="1" fill-rule="nonzero"/><path fill="#200f05" d="M 170.519531 118.128906 L 174.792969 113.859375 C 176.355469 112.300781 176.355469 109.773438 174.792969 108.214844 C 173.230469 106.65625 170.699219 106.65625 169.136719 108.214844 L 164.863281 112.480469 C 163.300781 114.039062 163.300781 116.570312 164.863281 118.128906 C 165.640625 118.90625 166.667969 119.296875 167.691406 119.296875 C 168.714844 119.296875 169.738281 118.90625 170.519531 118.128906 Z M 170.519531 118.128906 " fill-opacity="1" fill-rule="nonzero"/><path fill="#200f05" d="M 236.808594 102.523438 L 247.667969 106.585938 C 249.578125 107.300781 251.578125 107.65625 253.574219 107.65625 C 256.273438 107.65625 258.960938 107.007812 261.398438 105.730469 C 265.640625 103.507812 268.738281 99.574219 269.898438 94.9375 L 273.769531 79.480469 C 275.257812 73.546875 273.5 67.484375 269.066406 63.257812 C 264.632812 59.035156 258.480469 57.5625 252.613281 59.320312 L 239.109375 63.363281 C 233.011719 65.191406 228.394531 70.421875 227.347656 76.691406 L 226.121094 84.035156 C 224.800781 91.9375 229.296875 99.710938 236.808594 102.523438 Z M 234.011719 85.347656 L 235.238281 78.003906 C 235.789062 74.714844 238.210938 71.972656 241.410156 71.015625 L 254.910156 66.96875 C 255.765625 66.714844 256.632812 66.589844 257.488281 66.589844 C 259.714844 66.589844 261.863281 67.4375 263.542969 69.035156 C 265.867188 71.25 266.789062 74.433594 266.011719 77.542969 L 262.140625 93 C 261.519531 95.46875 259.9375 97.480469 257.679688 98.664062 C 255.421875 99.84375 252.867188 100.003906 250.476562 99.113281 L 239.621094 95.046875 C 235.679688 93.570312 233.320312 89.492188 234.011719 85.347656 Z M 234.011719 85.347656 " fill-opacity="1" fill-rule="nonzero"/><path fill="#200f05" d="M 267.617188 122.84375 C 261.683594 125.808594 259.082031 132.894531 261.695312 138.984375 L 265.847656 148.660156 C 267.582031 152.695312 271.21875 155.484375 275.574219 156.121094 C 276.191406 156.210938 276.808594 156.253906 277.417969 156.253906 C 281.113281 156.253906 284.609375 154.640625 287.027344 151.746094 L 293.707031 143.738281 C 295.933594 141.074219 296.9375 137.710938 296.53125 134.265625 C 296.128906 130.820312 294.378906 127.777344 291.597656 125.699219 L 285.925781 121.449219 C 282.097656 118.585938 277.0625 118.132812 272.78125 120.269531 Z M 276.359375 127.410156 C 277.007812 127.085938 277.707031 126.925781 278.398438 126.925781 C 279.363281 126.925781 280.316406 127.234375 281.125 127.839844 L 286.796875 132.085938 C 287.804688 132.839844 288.441406 133.945312 288.585938 135.191406 C 288.730469 136.441406 288.367188 137.660156 287.5625 138.628906 L 280.878906 146.632812 C 279.84375 147.875 278.328125 148.453125 276.726562 148.21875 C 275.125 147.984375 273.839844 147 273.203125 145.511719 L 269.046875 135.839844 C 268.101562 133.632812 269.042969 131.058594 271.195312 129.988281 Z M 276.359375 127.410156 " fill-opacity="1" fill-rule="nonzero"/><path fill="#200f05" d="M 300.222656 110.761719 C 307.140625 110.761719 312.773438 105.140625 312.773438 98.234375 C 312.773438 91.328125 307.140625 85.707031 300.222656 85.707031 C 293.300781 85.707031 287.671875 91.328125 287.671875 98.234375 C 287.671875 105.140625 293.300781 110.761719 300.222656 110.761719 Z M 300.222656 93.691406 C 302.730469 93.691406 304.773438 95.730469 304.773438 98.234375 C 304.773438 100.738281 302.730469 102.777344 300.222656 102.777344 C 297.714844 102.777344 295.671875 100.738281 295.671875 98.234375 C 295.671875 95.730469 297.710938 93.691406 300.222656 93.691406 Z M 300.222656 93.691406 " fill-opacity="1" fill-rule="nonzero"/><g clip-path="url(#4afaa40b06)"><path fill="#200f05" d="M 301.453125 187.722656 C 299.625 187.988281 297.773438 188.125 295.945312 188.125 C 279.054688 188.125 264.234375 177.339844 259.070312 161.289062 C 257.65625 156.898438 254.039062 153.652344 249.625 152.8125 C 219.332031 147.054688 197.339844 120.511719 197.339844 89.699219 C 197.339844 76.972656 201.074219 64.664062 208.136719 54.101562 C 209.6875 51.78125 209.976562 48.875 208.914062 46.320312 C 207.851562 43.757812 205.578125 41.90625 202.832031 41.363281 C 189.222656 38.675781 175.261719 38.070312 161.332031 39.566406 C 133.460938 42.5625 107.484375 54.035156 86.207031 72.753906 C 84.546875 74.210938 84.390625 76.734375 85.847656 78.386719 C 87.308594 80.042969 89.835938 80.199219 91.496094 78.742188 C 111.523438 61.125 135.96875 50.324219 162.1875 47.507812 C 175.3125 46.097656 188.464844 46.664062 201.277344 49.199219 C 201.371094 49.21875 201.472656 49.253906 201.527344 49.382812 C 201.578125 49.5 201.535156 49.589844 201.484375 49.667969 C 193.539062 61.550781 189.339844 75.390625 189.339844 89.699219 C 189.339844 124.34375 214.066406 154.183594 248.128906 160.660156 C 249.664062 160.949219 250.9375 162.125 251.453125 163.730469 C 257.6875 183.097656 275.566406 196.109375 295.945312 196.109375 C 298.160156 196.109375 300.40625 195.945312 302.613281 195.621094 C 302.910156 195.578125 303.058594 195.75 303.066406 195.796875 C 299.210938 219.464844 288.734375 241.558594 272.769531 259.695312 C 271.3125 261.351562 271.476562 263.875 273.136719 265.328125 C 273.894531 265.996094 274.835938 266.324219 275.773438 266.324219 C 276.886719 266.324219 277.988281 265.863281 278.78125 264.964844 C 295.738281 245.703125 306.863281 222.230469 310.960938 197.078125 C 311.378906 194.519531 310.570312 191.992188 308.742188 190.140625 C 306.859375 188.230469 304.136719 187.328125 301.453125 187.722656 Z M 301.453125 187.722656 " fill-opacity="1" fill-rule="nonzero"/></g><g clip-path="url(#a727d4ffa9)"><path fill="#200f05" d="M 261.042969 271.40625 C 237.589844 292.003906 207.472656 303.34375 176.238281 303.34375 C 158.234375 303.34375 140.824219 299.703125 124.484375 292.519531 C 108.703125 285.582031 94.667969 275.6875 82.773438 263.117188 C 70.898438 250.5625 61.824219 236.042969 55.800781 219.953125 C 49.535156 203.222656 46.886719 185.570312 47.925781 167.484375 C 49.542969 139.292969 60.851562 111.941406 79.769531 90.460938 C 81.226562 88.804688 81.066406 86.28125 79.40625 84.828125 C 77.746094 83.371094 75.21875 83.53125 73.761719 85.1875 C 53.671875 108 41.660156 137.0625 39.9375 167.027344 C 38.835938 186.226562 41.652344 204.972656 48.304688 222.746094 C 54.707031 239.839844 64.34375 255.265625 76.957031 268.597656 C 89.589844 281.949219 104.496094 292.457031 121.261719 299.828125 C 138.621094 307.460938 157.121094 311.328125 176.238281 311.328125 C 209.417969 311.328125 241.414062 299.28125 266.328125 277.402344 C 267.988281 275.945312 268.148438 273.421875 266.691406 271.765625 C 265.230469 270.109375 262.703125 269.949219 261.042969 271.40625 Z M 261.042969 271.40625 " fill-opacity="1" fill-rule="nonzero"/></g><g fill="#200f05" fill-opacity="1"><g transform="translate(332.00032, 277.62167)"><g><path d="M 54.109375 -200.3125 C 69.410156 -200.3125 80.695312 -195.773438 87.96875 -186.703125 C 95.238281 -177.640625 98.875 -165.554688 98.875 -150.453125 L 98.875 -132.59375 L 77.921875 -132.59375 L 77.921875 -151.578125 C 77.921875 -160.648438 76.078125 -167.6875 72.390625 -172.6875 C 68.703125 -177.695312 62.800781 -180.203125 54.6875 -180.203125 C 46.75 -180.203125 40.890625 -177.695312 37.109375 -172.6875 C 33.335938 -167.6875 31.453125 -160.648438 31.453125 -151.578125 L 31.453125 -46.75 C 31.453125 -37.6875 33.335938 -30.648438 37.109375 -25.640625 C 40.890625 -20.640625 46.75 -18.140625 54.6875 -18.140625 C 62.800781 -18.140625 68.703125 -20.640625 72.390625 -25.640625 C 76.078125 -30.648438 77.921875 -37.6875 77.921875 -46.75 L 77.921875 -72.53125 L 98.875 -72.53125 L 98.875 -47.875 C 98.875 -32.769531 95.238281 -20.679688 87.96875 -11.609375 C 80.695312 -2.546875 69.410156 1.984375 54.109375 1.984375 C 39.003906 1.984375 27.816406 -2.546875 20.546875 -11.609375 C 13.273438 -20.679688 9.640625 -32.769531 9.640625 -47.875 L 9.640625 -150.453125 C 9.640625 -158.003906 10.535156 -164.847656 12.328125 -170.984375 C 14.117188 -177.128906 16.851562 -182.375 20.53125 -186.71875 C 24.21875 -191.0625 28.847656 -194.410156 34.421875 -196.765625 C 39.992188 -199.128906 46.554688 -200.3125 54.109375 -200.3125 Z M 54.109375 -200.3125 "/></g></g></g><g fill="#200f05" fill-opacity="1"><g transform="translate(439.665347, 277.62167)"><g><path d="M 9.640625 -150.453125 C 9.640625 -165.742188 13.367188 -177.875 20.828125 -186.84375 C 28.285156 -195.820312 39.664062 -200.3125 54.96875 -200.3125 C 70.269531 -200.3125 81.695312 -195.820312 89.25 -186.84375 C 96.800781 -177.875 100.578125 -165.742188 100.578125 -150.453125 L 100.578125 -47.875 C 100.578125 -32.769531 96.800781 -20.679688 89.25 -11.609375 C 81.695312 -2.546875 70.269531 1.984375 54.96875 1.984375 C 39.664062 1.984375 28.285156 -2.546875 20.828125 -11.609375 C 13.367188 -20.679688 9.640625 -32.769531 9.640625 -47.875 Z M 31.453125 -46.75 C 31.453125 -37.6875 33.382812 -30.648438 37.25 -25.640625 C 41.125 -20.640625 47.03125 -18.140625 54.96875 -18.140625 C 63.09375 -18.140625 69.039062 -20.640625 72.8125 -25.640625 C 76.59375 -30.648438 78.484375 -37.6875 78.484375 -46.75 L 78.484375 -151.578125 C 78.484375 -160.648438 76.59375 -167.6875 72.8125 -172.6875 C 69.039062 -177.695312 63.09375 -180.203125 54.96875 -180.203125 C 47.03125 -180.203125 41.125 -177.695312 37.25 -172.6875 C 33.382812 -167.6875 31.453125 -160.648438 31.453125 -151.578125 Z M 31.453125 -46.75 "/></g></g></g><g fill="#200f05" fill-opacity="1"><g transform="translate(549.880288, 277.62167)"><g><path d="M 9.640625 -150.453125 C 9.640625 -165.742188 13.367188 -177.875 20.828125 -186.84375 C 28.285156 -195.820312 39.664062 -200.3125 54.96875 -200.3125 C 70.269531 -200.3125 81.695312 -195.820312 89.25 -186.84375 C 96.800781 -177.875 100.578125 -165.742188 100.578125 -150.453125 L 100.578125 -47.875 C 100.578125 -32.769531 96.800781 -20.679688 89.25 -11.609375 C 81.695312 -2.546875 70.269531 1.984375 54.96875 1.984375 C 39.664062 1.984375 28.285156 -2.546875 20.828125 -11.609375 C 13.367188 -20.679688 9.640625 -32.769531 9.640625 -47.875 Z M 31.453125 -46.75 C 31.453125 -37.6875 33.382812 -30.648438 37.25 -25.640625 C 41.125 -20.640625 47.03125 -18.140625 54.96875 -18.140625 C 63.09375 -18.140625 69.039062 -20.640625 72.8125 -25.640625 C 76.59375 -30.648438 78.484375 -37.6875 78.484375 -46.75 L 78.484375 -151.578125 C 78.484375 -160.648438 76.59375 -167.6875 72.8125 -172.6875 C 69.039062 -177.695312 63.09375 -180.203125 54.96875 -180.203125 C 47.03125 -180.203125 41.125 -177.695312 37.25 -172.6875 C 33.382812 -167.6875 31.453125 -160.648438 31.453125 -151.578125 Z M 31.453125 -46.75 "/></g></g></g><g fill="#200f05" fill-opacity="1"><g transform="translate(660.095228, 277.62167)"><g><path d="M 45.046875 -86.125 L 33.4375 -66.578125 L 33.4375 0 L 11.328125 0 L 11.328125 -198.328125 L 33.4375 -198.328125 L 33.4375 -102.5625 L 86.125 -198.328125 L 108.515625 -198.328125 L 58.359375 -107.953125 L 110.21875 0 L 87.546875 0 Z M 45.046875 -86.125 "/></g></g></g><g fill="#200f05" fill-opacity="1"><g transform="translate(775.97675, 277.62167)"><g><path d="M 33.4375 -198.328125 L 33.4375 0 L 11.328125 0 L 11.328125 -198.328125 Z M 33.4375 -198.328125 "/></g></g></g><g fill="#200f05" fill-opacity="1"><g transform="translate(820.742749, 277.62167)"><g><path d="M 5.671875 -20.109375 C 7.554688 -19.921875 9.441406 -19.828125 11.328125 -19.828125 C 13.222656 -19.828125 15.019531 -19.828125 16.71875 -19.828125 C 23.894531 -20.210938 29.5625 -22.429688 33.71875 -26.484375 C 37.875 -30.546875 39.953125 -37.582031 39.953125 -47.59375 L 39.953125 -198.328125 L 61.765625 -198.328125 L 61.765625 -49.015625 C 61.765625 -39.753906 60.675781 -32.007812 58.5 -25.78125 C 56.332031 -19.550781 53.359375 -14.5 49.578125 -10.625 C 45.804688 -6.75 41.320312 -4.007812 36.125 -2.40625 C 30.925781 -0.800781 25.398438 0.09375 19.546875 0.28125 C 16.898438 0.28125 14.535156 0.328125 12.453125 0.421875 C 10.378906 0.515625 8.117188 0.375 5.671875 0 Z M 5.671875 -20.109375 "/></g></g></g><g fill="#200f05" fill-opacity="1"><g transform="translate(892.991633, 277.62167)"><g><path d="M 33.71875 -39.953125 L 26.0625 0 L 5.671875 0 L 43.625 -198.328125 L 75.65625 -198.328125 L 113.609375 0 L 91.515625 0 L 83.859375 -39.953125 Z M 36.546875 -58.9375 L 80.75 -58.9375 L 58.359375 -173.390625 Z M 36.546875 -58.9375 "/></g></g></g><g fill="#200f05" fill-opacity="1"><g transform="translate(1012.556413, 277.62167)"><g><path d="M 55.53125 -198.328125 C 71.207031 -198.328125 82.492188 -194.453125 89.390625 -186.703125 C 96.285156 -178.960938 99.734375 -167.726562 99.734375 -153 L 99.734375 -136.84375 C 99.734375 -125.894531 97.75 -117.019531 93.78125 -110.21875 C 89.8125 -103.414062 83.578125 -98.691406 75.078125 -96.046875 C 84.148438 -93.398438 90.570312 -88.535156 94.34375 -81.453125 C 98.125 -74.367188 100.015625 -65.445312 100.015625 -54.6875 L 100.015625 -23.796875 C 100.015625 -19.453125 100.203125 -15.25 100.578125 -11.1875 C 100.953125 -7.125 102.085938 -3.394531 103.984375 0 L 81.59375 0 C 80.269531 -2.832031 79.328125 -5.898438 78.765625 -9.203125 C 78.203125 -12.515625 77.921875 -17.472656 77.921875 -24.078125 L 77.921875 -55.25 C 77.921875 -66.394531 75.414062 -74.09375 70.40625 -78.34375 C 65.40625 -82.59375 58.273438 -84.71875 49.015625 -84.71875 L 33.4375 -84.71875 L 33.4375 0 L 11.328125 0 L 11.328125 -198.328125 Z M 49.859375 -104.828125 C 58.742188 -104.828125 65.640625 -106.664062 70.546875 -110.34375 C 75.460938 -114.03125 77.921875 -121.257812 77.921875 -132.03125 L 77.921875 -151.015625 C 77.921875 -160.078125 76.171875 -166.875 72.671875 -171.40625 C 69.179688 -175.945312 63.28125 -178.21875 54.96875 -178.21875 L 33.4375 -178.21875 L 33.4375 -104.828125 Z M 49.859375 -104.828125 "/></g></g></g></svg>