<svg xmlns="http://www.w3.org/2000/svg" xmlns:xlink="http://www.w3.org/1999/xlink" width="1000" zoomAndPan="magnify" viewBox="0 0 1500 1499.999933" height="1000" preserveAspectRatio="xMidYMid meet" version="1.0"><defs><g/><clipPath id="ae30317fd4"><path d="M 287 602.140625 L 515 602.140625 L 515 831 L 287 831 Z M 287 602.140625 " clip-rule="nonzero"/></clipPath><clipPath id="af5ea50822"><path d="M 242 647 L 471 647 L 471 875.890625 L 242 875.890625 Z M 242 647 " clip-rule="nonzero"/></clipPath></defs><path fill="#ffffff" d="M 505.136719 756.015625 C 503.144531 756.308594 501.109375 756.464844 499.039062 756.464844 C 479.960938 756.464844 463.816406 744.007812 458.277344 726.800781 C 457.332031 723.863281 454.925781 721.597656 451.886719 721.019531 C 420.203125 715 396.246094 687.234375 396.246094 653.859375 C 396.246094 639.84375 400.488281 626.824219 407.738281 615.980469 C 409.460938 613.398438 408.023438 609.964844 404.976562 609.363281 C 396.613281 607.710938 387.96875 606.835938 379.117188 606.835938 C 305.789062 606.835938 246.34375 666.167969 246.34375 739.363281 C 246.34375 812.554688 305.789062 871.890625 379.117188 871.890625 C 445.203125 871.890625 499.847656 823.875 510.125 760.792969 C 510.59375 757.929688 508.011719 755.597656 505.136719 756.015625 Z M 505.136719 756.015625 " fill-opacity="1" fill-rule="nonzero"/><path fill="#000000" d="M 336.285156 696.613281 C 336.285156 697.171875 336.257812 697.730469 336.203125 698.289062 C 336.148438 698.84375 336.066406 699.398438 335.957031 699.949219 C 335.847656 700.496094 335.710938 701.039062 335.546875 701.574219 C 335.386719 702.113281 335.195312 702.636719 334.980469 703.15625 C 334.765625 703.671875 334.527344 704.179688 334.261719 704.671875 C 334 705.167969 333.710938 705.644531 333.398438 706.113281 C 333.085938 706.578125 332.753906 707.027344 332.398438 707.460938 C 332.042969 707.890625 331.664062 708.304688 331.269531 708.703125 C 330.871094 709.097656 330.457031 709.472656 330.023438 709.828125 C 329.589844 710.183594 329.140625 710.519531 328.671875 710.828125 C 328.207031 711.140625 327.726562 711.425781 327.230469 711.691406 C 326.734375 711.957031 326.230469 712.195312 325.710938 712.410156 C 325.191406 712.625 324.664062 712.8125 324.128906 712.972656 C 323.589844 713.136719 323.046875 713.273438 322.496094 713.382812 C 321.949219 713.492188 321.394531 713.574219 320.835938 713.628906 C 320.277344 713.683594 319.71875 713.710938 319.15625 713.710938 C 318.59375 713.710938 318.035156 713.683594 317.476562 713.628906 C 316.917969 713.574219 316.363281 713.492188 315.8125 713.382812 C 315.265625 713.273438 314.71875 713.136719 314.183594 712.972656 C 313.648438 712.8125 313.117188 712.625 312.601562 712.410156 C 312.082031 712.195312 311.574219 711.957031 311.082031 711.691406 C 310.585938 711.425781 310.105469 711.140625 309.640625 710.828125 C 309.171875 710.519531 308.722656 710.183594 308.289062 709.828125 C 307.855469 709.472656 307.441406 709.097656 307.042969 708.703125 C 306.648438 708.304688 306.269531 707.890625 305.914062 707.460938 C 305.558594 707.027344 305.226562 706.578125 304.914062 706.113281 C 304.601562 705.644531 304.3125 705.167969 304.050781 704.671875 C 303.785156 704.179688 303.546875 703.671875 303.332031 703.15625 C 303.117188 702.636719 302.925781 702.113281 302.765625 701.574219 C 302.601562 701.039062 302.464844 700.496094 302.355469 699.949219 C 302.246094 699.398438 302.164062 698.84375 302.109375 698.289062 C 302.054688 697.730469 302.027344 697.171875 302.027344 696.613281 C 302.027344 696.050781 302.054688 695.492188 302.109375 694.9375 C 302.164062 694.378906 302.246094 693.824219 302.355469 693.277344 C 302.464844 692.726562 302.601562 692.183594 302.765625 691.648438 C 302.925781 691.113281 303.117188 690.585938 303.332031 690.070312 C 303.546875 689.550781 303.785156 689.046875 304.050781 688.550781 C 304.3125 688.058594 304.601562 687.578125 304.914062 687.113281 C 305.226562 686.648438 305.558594 686.199219 305.914062 685.765625 C 306.269531 685.332031 306.648438 684.917969 307.042969 684.523438 C 307.441406 684.125 307.855469 683.75 308.289062 683.394531 C 308.722656 683.039062 309.171875 682.707031 309.640625 682.394531 C 310.105469 682.085938 310.585938 681.796875 311.082031 681.535156 C 311.574219 681.269531 312.082031 681.03125 312.601562 680.816406 C 313.117188 680.601562 313.648438 680.414062 314.183594 680.25 C 314.71875 680.089844 315.265625 679.953125 315.8125 679.84375 C 316.363281 679.734375 316.917969 679.652344 317.476562 679.597656 C 318.035156 679.542969 318.59375 679.515625 319.15625 679.515625 C 319.71875 679.515625 320.277344 679.542969 320.835938 679.597656 C 321.394531 679.652344 321.949219 679.734375 322.496094 679.84375 C 323.046875 679.953125 323.589844 680.089844 324.128906 680.25 C 324.664062 680.414062 325.191406 680.601562 325.710938 680.816406 C 326.230469 681.03125 326.734375 681.269531 327.230469 681.535156 C 327.726562 681.796875 328.207031 682.085938 328.671875 682.394531 C 329.140625 682.707031 329.589844 683.039062 330.023438 683.394531 C 330.457031 683.75 330.871094 684.125 331.269531 684.523438 C 331.664062 684.917969 332.042969 685.332031 332.398438 685.765625 C 332.753906 686.199219 333.085938 686.648438 333.398438 687.113281 C 333.710938 687.578125 334 688.058594 334.261719 688.550781 C 334.527344 689.046875 334.765625 689.550781 334.980469 690.070312 C 335.195312 690.585938 335.386719 691.113281 335.546875 691.648438 C 335.710938 692.183594 335.847656 692.726562 335.957031 693.277344 C 336.066406 693.824219 336.148438 694.378906 336.203125 694.9375 C 336.257812 695.492188 336.285156 696.050781 336.285156 696.613281 Z M 336.285156 696.613281 " fill-opacity="1" fill-rule="nonzero"/><path fill="#000000" d="M 340.570312 782.113281 C 340.570312 782.953125 340.488281 783.789062 340.324219 784.613281 C 340.160156 785.441406 339.914062 786.242188 339.589844 787.019531 C 339.269531 787.800781 338.871094 788.539062 338.40625 789.238281 C 337.9375 789.9375 337.402344 790.585938 336.804688 791.183594 C 336.210938 791.777344 335.5625 792.308594 334.859375 792.777344 C 334.15625 793.246094 333.417969 793.640625 332.636719 793.960938 C 331.859375 794.285156 331.054688 794.527344 330.226562 794.691406 C 329.398438 794.855469 328.5625 794.9375 327.71875 794.9375 C 326.875 794.9375 326.039062 794.855469 325.214844 794.691406 C 324.386719 794.527344 323.582031 794.285156 322.804688 793.960938 C 322.023438 793.640625 321.28125 793.246094 320.582031 792.777344 C 319.878906 792.308594 319.230469 791.777344 318.632812 791.183594 C 318.039062 790.585938 317.503906 789.9375 317.035156 789.238281 C 316.566406 788.539062 316.171875 787.800781 315.847656 787.019531 C 315.527344 786.242188 315.28125 785.441406 315.117188 784.613281 C 314.953125 783.789062 314.871094 782.953125 314.871094 782.113281 C 314.871094 781.269531 314.953125 780.4375 315.117188 779.609375 C 315.28125 778.785156 315.527344 777.984375 315.847656 777.203125 C 316.171875 776.425781 316.566406 775.6875 317.035156 774.988281 C 317.503906 774.285156 318.039062 773.640625 318.632812 773.042969 C 319.230469 772.449219 319.878906 771.917969 320.582031 771.449219 C 321.28125 770.980469 322.023438 770.585938 322.804688 770.261719 C 323.582031 769.941406 324.386719 769.699219 325.214844 769.53125 C 326.039062 769.367188 326.875 769.285156 327.71875 769.285156 C 328.5625 769.285156 329.398438 769.367188 330.226562 769.53125 C 331.054688 769.699219 331.859375 769.941406 332.636719 770.261719 C 333.417969 770.585938 334.15625 770.980469 334.859375 771.449219 C 335.5625 771.917969 336.210938 772.449219 336.804688 773.042969 C 337.402344 773.640625 337.933594 774.285156 338.402344 774.988281 C 338.871094 775.6875 339.269531 776.425781 339.589844 777.203125 C 339.914062 777.984375 340.160156 778.785156 340.324219 779.609375 C 340.488281 780.4375 340.570312 781.269531 340.570312 782.113281 Z M 340.570312 782.113281 " fill-opacity="1" fill-rule="nonzero"/><path fill="#ffffff" d="M 434.269531 641.488281 L 433.039062 648.84375 C 432.03125 654.894531 435.449219 660.808594 441.203125 662.964844 L 452.082031 667.035156 C 459.265625 669.722656 467.195312 665.566406 469.058594 658.136719 L 472.933594 642.65625 C 475.351562 633.003906 466.320312 624.402344 456.777344 627.257812 L 443.25 631.308594 C 438.558594 632.714844 435.074219 636.664062 434.269531 641.488281 Z M 434.269531 641.488281 " fill-opacity="1" fill-rule="nonzero"/><path fill="#ffffff" d="M 477.621094 688.0625 L 472.449219 690.644531 C 468.394531 692.667969 466.621094 697.5 468.40625 701.660156 L 472.570312 711.351562 C 475.089844 717.21875 482.929688 718.363281 487.023438 713.457031 L 493.71875 705.4375 C 496.855469 701.679688 496.199219 696.0625 492.277344 693.125 L 486.59375 688.871094 C 483.996094 686.925781 480.523438 686.613281 477.621094 688.0625 Z M 477.621094 688.0625 " fill-opacity="1" fill-rule="nonzero"/><path fill="#ffffff" d="M 511.882812 662.410156 C 511.882812 662.972656 511.828125 663.527344 511.71875 664.078125 C 511.609375 664.628906 511.449219 665.164062 511.234375 665.683594 C 511.015625 666.199219 510.753906 666.695312 510.441406 667.160156 C 510.128906 667.628906 509.773438 668.058594 509.375 668.457031 C 508.976562 668.851562 508.546875 669.207031 508.078125 669.519531 C 507.609375 669.832031 507.117188 670.09375 506.597656 670.308594 C 506.078125 670.523438 505.542969 670.6875 504.992188 670.796875 C 504.4375 670.90625 503.882812 670.960938 503.320312 670.960938 C 502.757812 670.960938 502.199219 670.90625 501.648438 670.796875 C 501.097656 670.6875 500.5625 670.523438 500.042969 670.308594 C 499.523438 670.09375 499.027344 669.832031 498.5625 669.519531 C 498.09375 669.207031 497.660156 668.851562 497.261719 668.457031 C 496.867188 668.058594 496.511719 667.628906 496.199219 667.160156 C 495.886719 666.695312 495.621094 666.203125 495.40625 665.683594 C 495.191406 665.164062 495.03125 664.628906 494.917969 664.078125 C 494.808594 663.527344 494.753906 662.972656 494.753906 662.410156 C 494.753906 661.851562 494.808594 661.292969 494.917969 660.742188 C 495.03125 660.191406 495.191406 659.65625 495.40625 659.140625 C 495.621094 658.621094 495.886719 658.128906 496.199219 657.660156 C 496.511719 657.195312 496.867188 656.761719 497.261719 656.367188 C 497.660156 655.96875 498.09375 655.613281 498.5625 655.304688 C 499.027344 654.992188 499.523438 654.726562 500.042969 654.511719 C 500.5625 654.296875 501.097656 654.136719 501.648438 654.027344 C 502.199219 653.917969 502.757812 653.863281 503.320312 653.863281 C 503.882812 653.863281 504.4375 653.917969 504.992188 654.027344 C 505.542969 654.136719 506.078125 654.296875 506.597656 654.511719 C 507.117188 654.726562 507.609375 654.992188 508.078125 655.304688 C 508.546875 655.613281 508.976562 655.96875 509.375 656.367188 C 509.773438 656.761719 510.128906 657.195312 510.441406 657.660156 C 510.753906 658.128906 511.015625 658.621094 511.234375 659.140625 C 511.449219 659.65625 511.609375 660.191406 511.71875 660.742188 C 511.828125 661.292969 511.882812 661.851562 511.882812 662.410156 Z M 511.882812 662.410156 " fill-opacity="1" fill-rule="nonzero"/><path fill="#ffffff" d="M 395.175781 855.859375 C 321.847656 855.859375 262.40625 796.523438 262.40625 723.332031 C 262.40625 690.816406 274.15625 661.054688 293.625 637.996094 C 264.722656 662.304688 246.34375 698.683594 246.34375 739.363281 C 246.34375 812.554688 305.789062 871.890625 379.117188 871.890625 C 419.894531 871.890625 456.300781 853.59375 480.628906 824.769531 C 457.554688 844.167969 427.761719 855.859375 395.175781 855.859375 Z M 395.175781 855.859375 " fill-opacity="1" fill-rule="nonzero"/><path fill="#ffffff" d="M 453.984375 657.113281 C 446.800781 654.425781 442.527344 647.035156 443.789062 639.480469 L 445.253906 630.710938 L 443.25 631.3125 C 438.558594 632.714844 435.074219 636.664062 434.269531 641.488281 L 433.039062 648.847656 C 432.03125 654.894531 435.449219 660.808594 441.203125 662.964844 L 452.082031 667.035156 C 457.851562 669.195312 464.042969 666.894531 467.246094 662.078125 Z M 453.984375 657.113281 " fill-opacity="1" fill-rule="nonzero"/><path fill="#ffffff" d="M 481.707031 705.84375 L 476.996094 694.867188 C 476.109375 692.804688 476.035156 690.609375 476.574219 688.585938 L 472.449219 690.644531 C 468.394531 692.667969 466.621094 697.496094 468.40625 701.660156 L 472.570312 711.351562 C 475.089844 717.21875 482.929688 718.359375 487.023438 713.457031 L 488.6875 711.464844 C 485.742188 710.863281 483.050781 708.972656 481.707031 705.84375 Z M 481.707031 705.84375 " fill-opacity="1" fill-rule="nonzero"/><path fill="#000000" d="M 328.257812 704.628906 C 318.792969 704.628906 311.125 696.972656 311.125 687.527344 C 311.125 685.164062 311.605469 682.910156 312.476562 680.863281 C 306.332031 683.460938 302.023438 689.535156 302.023438 696.613281 C 302.023438 706.054688 309.695312 713.710938 319.15625 713.710938 C 326.246094 713.710938 332.332031 709.410156 334.933594 703.277344 C 332.882812 704.148438 330.625 704.628906 328.257812 704.628906 Z M 328.257812 704.628906 " fill-opacity="1" fill-rule="nonzero"/><path fill="#000000" d="M 334.414062 788.257812 C 327.316406 788.257812 321.5625 782.515625 321.5625 775.433594 C 321.5625 773.625 321.949219 771.910156 322.625 770.347656 C 318.066406 772.320312 314.871094 776.839844 314.871094 782.113281 C 314.871094 789.199219 320.625 794.941406 327.71875 794.941406 C 333.003906 794.941406 337.535156 791.75 339.507812 787.199219 C 337.945312 787.875 336.226562 788.257812 334.414062 788.257812 Z M 334.414062 788.257812 " fill-opacity="1" fill-rule="nonzero"/><path fill="#000000" d="M 426.226562 794.9375 C 426.226562 795.5 426.199219 796.058594 426.144531 796.613281 C 426.089844 797.171875 426.007812 797.726562 425.898438 798.273438 C 425.789062 798.824219 425.652344 799.367188 425.488281 799.902344 C 425.328125 800.4375 425.136719 800.964844 424.921875 801.480469 C 424.707031 802 424.46875 802.503906 424.203125 803 C 423.941406 803.492188 423.652344 803.972656 423.339844 804.4375 C 423.027344 804.902344 422.695312 805.351562 422.339844 805.785156 C 421.984375 806.21875 421.605469 806.632812 421.210938 807.027344 C 420.8125 807.425781 420.398438 807.800781 419.964844 808.15625 C 419.53125 808.511719 419.082031 808.84375 418.613281 809.15625 C 418.148438 809.464844 417.667969 809.753906 417.171875 810.015625 C 416.675781 810.28125 416.171875 810.519531 415.652344 810.734375 C 415.132812 810.949219 414.605469 811.136719 414.070312 811.300781 C 413.535156 811.460938 412.988281 811.597656 412.441406 811.707031 C 411.890625 811.816406 411.335938 811.898438 410.777344 811.953125 C 410.21875 812.007812 409.660156 812.035156 409.097656 812.035156 C 408.535156 812.035156 407.976562 812.007812 407.417969 811.953125 C 406.859375 811.898438 406.304688 811.816406 405.757812 811.707031 C 405.207031 811.597656 404.664062 811.460938 404.125 811.300781 C 403.589844 811.136719 403.0625 810.949219 402.542969 810.734375 C 402.023438 810.519531 401.519531 810.28125 401.023438 810.015625 C 400.527344 809.753906 400.046875 809.464844 399.582031 809.15625 C 399.113281 808.84375 398.664062 808.511719 398.230469 808.15625 C 397.796875 807.800781 397.382812 807.425781 396.984375 807.027344 C 396.589844 806.632812 396.210938 806.21875 395.855469 805.785156 C 395.5 805.351562 395.167969 804.902344 394.855469 804.4375 C 394.542969 803.972656 394.253906 803.492188 393.992188 803 C 393.726562 802.503906 393.488281 802 393.273438 801.480469 C 393.058594 800.964844 392.867188 800.4375 392.707031 799.902344 C 392.542969 799.367188 392.40625 798.824219 392.296875 798.273438 C 392.1875 797.726562 392.105469 797.171875 392.050781 796.613281 C 391.996094 796.058594 391.96875 795.5 391.96875 794.9375 C 391.96875 794.378906 391.996094 793.820312 392.050781 793.261719 C 392.105469 792.707031 392.1875 792.152344 392.296875 791.601562 C 392.40625 791.054688 392.542969 790.511719 392.707031 789.976562 C 392.867188 789.4375 393.058594 788.914062 393.273438 788.394531 C 393.488281 787.878906 393.726562 787.371094 393.992188 786.878906 C 394.253906 786.382812 394.542969 785.90625 394.855469 785.4375 C 395.167969 784.972656 395.5 784.523438 395.855469 784.089844 C 396.210938 783.660156 396.589844 783.246094 396.984375 782.847656 C 397.382812 782.453125 397.796875 782.078125 398.230469 781.722656 C 398.664062 781.367188 399.113281 781.03125 399.582031 780.722656 C 400.046875 780.410156 400.527344 780.125 401.023438 779.859375 C 401.519531 779.59375 402.023438 779.355469 402.542969 779.140625 C 403.0625 778.925781 403.589844 778.738281 404.125 778.578125 C 404.664062 778.414062 405.207031 778.277344 405.757812 778.167969 C 406.304688 778.058594 406.859375 777.976562 407.417969 777.921875 C 407.976562 777.867188 408.535156 777.839844 409.097656 777.839844 C 409.660156 777.839844 410.21875 777.867188 410.777344 777.921875 C 411.335938 777.976562 411.890625 778.058594 412.441406 778.167969 C 412.988281 778.277344 413.535156 778.414062 414.070312 778.578125 C 414.605469 778.738281 415.132812 778.925781 415.652344 779.140625 C 416.171875 779.355469 416.679688 779.59375 417.171875 779.859375 C 417.667969 780.125 418.148438 780.410156 418.613281 780.722656 C 419.082031 781.03125 419.53125 781.367188 419.964844 781.722656 C 420.398438 782.078125 420.8125 782.453125 421.210938 782.847656 C 421.605469 783.246094 421.984375 783.660156 422.339844 784.089844 C 422.695312 784.523438 423.027344 784.972656 423.339844 785.4375 C 423.652344 785.90625 423.941406 786.382812 424.203125 786.878906 C 424.46875 787.371094 424.707031 787.878906 424.921875 788.394531 C 425.136719 788.914062 425.328125 789.4375 425.488281 789.976562 C 425.652344 790.511719 425.789062 791.054688 425.898438 791.601562 C 426.007812 792.152344 426.089844 792.707031 426.144531 793.261719 C 426.199219 793.820312 426.226562 794.378906 426.226562 794.9375 Z M 426.226562 794.9375 " fill-opacity="1" fill-rule="nonzero"/><path fill="#000000" d="M 418.199219 802.953125 C 408.734375 802.953125 401.066406 795.296875 401.066406 785.855469 C 401.066406 783.488281 401.546875 781.238281 402.417969 779.1875 C 396.273438 781.785156 391.964844 787.859375 391.964844 794.9375 C 391.964844 804.382812 399.636719 812.039062 409.097656 812.039062 C 416.1875 812.039062 422.273438 807.738281 424.875 801.605469 C 422.824219 802.472656 420.566406 802.953125 418.199219 802.953125 Z M 418.199219 802.953125 " fill-opacity="1" fill-rule="nonzero"/><path fill="#000000" d="M 383.21875 717.988281 C 383.21875 718.550781 383.164062 719.105469 383.050781 719.65625 C 382.941406 720.207031 382.78125 720.742188 382.566406 721.257812 C 382.351562 721.777344 382.085938 722.269531 381.773438 722.738281 C 381.460938 723.203125 381.105469 723.636719 380.707031 724.03125 C 380.3125 724.429688 379.878906 724.785156 379.410156 725.097656 C 378.941406 725.40625 378.449219 725.671875 377.929688 725.886719 C 377.410156 726.101562 376.875 726.261719 376.324219 726.371094 C 375.773438 726.480469 375.214844 726.535156 374.652344 726.535156 C 374.089844 726.535156 373.53125 726.480469 372.980469 726.371094 C 372.429688 726.261719 371.894531 726.101562 371.375 725.886719 C 370.855469 725.671875 370.363281 725.40625 369.894531 725.097656 C 369.425781 724.785156 368.992188 724.429688 368.597656 724.03125 C 368.199219 723.636719 367.84375 723.203125 367.53125 722.738281 C 367.21875 722.269531 366.953125 721.777344 366.738281 721.257812 C 366.523438 720.742188 366.363281 720.207031 366.253906 719.65625 C 366.140625 719.105469 366.085938 718.550781 366.085938 717.988281 C 366.085938 717.425781 366.140625 716.871094 366.253906 716.320312 C 366.363281 715.769531 366.523438 715.234375 366.738281 714.714844 C 366.953125 714.199219 367.21875 713.703125 367.53125 713.238281 C 367.84375 712.769531 368.199219 712.339844 368.597656 711.941406 C 368.992188 711.546875 369.425781 711.191406 369.894531 710.878906 C 370.363281 710.566406 370.855469 710.304688 371.375 710.089844 C 371.894531 709.875 372.429688 709.710938 372.980469 709.601562 C 373.53125 709.492188 374.089844 709.4375 374.652344 709.4375 C 375.214844 709.4375 375.773438 709.492188 376.324219 709.601562 C 376.875 709.710938 377.410156 709.875 377.929688 710.089844 C 378.449219 710.304688 378.941406 710.566406 379.410156 710.878906 C 379.878906 711.191406 380.3125 711.546875 380.707031 711.941406 C 381.105469 712.339844 381.460938 712.769531 381.773438 713.238281 C 382.085938 713.703125 382.351562 714.199219 382.566406 714.714844 C 382.78125 715.234375 382.941406 715.769531 383.050781 716.320312 C 383.164062 716.871094 383.21875 717.425781 383.21875 717.988281 Z M 383.21875 717.988281 " fill-opacity="1" fill-rule="nonzero"/><path fill="#200f05" d="M 319.15625 675.511719 C 307.5 675.511719 298.015625 684.976562 298.015625 696.613281 C 298.015625 708.246094 307.5 717.710938 319.15625 717.710938 C 330.8125 717.710938 340.292969 708.246094 340.292969 696.613281 C 340.292969 684.976562 330.808594 675.511719 319.15625 675.511719 Z M 319.15625 709.710938 C 311.917969 709.710938 306.03125 703.835938 306.03125 696.613281 C 306.03125 689.390625 311.917969 683.511719 319.15625 683.511719 C 326.390625 683.511719 332.28125 689.390625 332.28125 696.613281 C 332.28125 703.835938 326.390625 709.710938 319.15625 709.710938 Z M 319.15625 709.710938 " fill-opacity="1" fill-rule="nonzero"/><path fill="#200f05" d="M 387.957031 794.941406 C 387.957031 806.574219 397.441406 816.039062 409.09375 816.039062 C 420.75 816.039062 430.234375 806.574219 430.234375 794.941406 C 430.234375 783.304688 420.75 773.839844 409.09375 773.839844 C 397.441406 773.839844 387.957031 783.304688 387.957031 794.941406 Z M 409.097656 781.839844 C 416.332031 781.839844 422.21875 787.714844 422.21875 794.9375 C 422.21875 802.164062 416.332031 808.039062 409.097656 808.039062 C 401.859375 808.039062 395.972656 802.164062 395.972656 794.9375 C 395.972656 787.714844 401.859375 781.839844 409.097656 781.839844 Z M 409.097656 781.839844 " fill-opacity="1" fill-rule="nonzero"/><path fill="#200f05" d="M 327.71875 765.289062 C 318.425781 765.289062 310.863281 772.835938 310.863281 782.113281 C 310.863281 791.390625 318.425781 798.9375 327.71875 798.9375 C 337.015625 798.9375 344.578125 791.390625 344.578125 782.113281 C 344.578125 772.835938 337.015625 765.289062 327.71875 765.289062 Z M 327.71875 790.941406 C 322.84375 790.941406 318.878906 786.980469 318.878906 782.113281 C 318.878906 777.246094 322.84375 773.289062 327.71875 773.289062 C 332.59375 773.289062 336.5625 777.246094 336.5625 782.113281 C 336.5625 786.980469 332.59375 790.941406 327.71875 790.941406 Z M 327.71875 790.941406 " fill-opacity="1" fill-rule="nonzero"/><path fill="#200f05" d="M 362.261719 717.988281 C 362.261719 724.90625 367.902344 730.539062 374.832031 730.539062 C 381.765625 730.539062 387.40625 724.90625 387.40625 717.988281 C 387.40625 711.066406 381.765625 705.4375 374.832031 705.4375 C 367.902344 705.4375 362.261719 711.066406 362.261719 717.988281 Z M 374.832031 713.4375 C 377.347656 713.4375 379.390625 715.480469 379.390625 717.988281 C 379.390625 720.496094 377.347656 722.539062 374.832031 722.539062 C 372.320312 722.539062 370.273438 720.496094 370.273438 717.988281 C 370.273438 715.480469 372.320312 713.4375 374.832031 713.4375 Z M 374.832031 713.4375 " fill-opacity="1" fill-rule="nonzero"/><path fill="#200f05" d="M 456.210938 781.839844 C 456.8125 781.839844 457.425781 781.703125 458 781.417969 C 459.980469 780.429688 460.78125 778.027344 459.792969 776.050781 L 455.507812 767.5 C 454.519531 765.523438 452.113281 764.722656 450.132812 765.710938 C 448.152344 766.699219 447.351562 769.101562 448.339844 771.078125 L 452.625 779.628906 C 453.328125 781.03125 454.742188 781.839844 456.210938 781.839844 Z M 456.210938 781.839844 " fill-opacity="1" fill-rule="nonzero"/><path fill="#200f05" d="M 409.097656 756.1875 C 409.703125 756.1875 410.3125 756.054688 410.886719 755.765625 L 419.453125 751.492188 C 421.433594 750.503906 422.234375 748.101562 421.246094 746.125 C 420.257812 744.148438 417.851562 743.347656 415.871094 744.335938 L 407.304688 748.609375 C 405.324219 749.597656 404.523438 752 405.511719 753.976562 C 406.214844 755.378906 407.628906 756.1875 409.097656 756.1875 Z M 409.097656 756.1875 " fill-opacity="1" fill-rule="nonzero"/><path fill="#200f05" d="M 289.871094 745.425781 C 290.574219 746.828125 291.988281 747.636719 293.460938 747.636719 C 294.0625 747.636719 294.671875 747.503906 295.25 747.214844 C 297.230469 746.226562 298.03125 743.824219 297.042969 741.847656 L 292.757812 733.300781 C 291.769531 731.324219 289.363281 730.523438 287.382812 731.511719 C 285.402344 732.496094 284.601562 734.902344 285.589844 736.875 Z M 289.871094 745.425781 " fill-opacity="1" fill-rule="nonzero"/><path fill="#200f05" d="M 355.910156 812.738281 L 347.34375 817.011719 C 345.363281 818 344.5625 820.402344 345.550781 822.378906 C 346.253906 823.78125 347.667969 824.589844 349.140625 824.589844 C 349.742188 824.589844 350.351562 824.453125 350.925781 824.167969 L 359.492188 819.890625 C 361.472656 818.902344 362.277344 816.5 361.285156 814.527344 C 360.296875 812.550781 357.890625 811.75 355.910156 812.738281 Z M 355.910156 812.738281 " fill-opacity="1" fill-rule="nonzero"/><path fill="#200f05" d="M 360.535156 651.035156 L 356.25 646.757812 C 354.6875 645.195312 352.148438 645.195312 350.585938 646.757812 C 349.019531 648.320312 349.019531 650.851562 350.585938 652.414062 L 354.867188 656.691406 C 355.652344 657.472656 356.675781 657.859375 357.703125 657.859375 C 358.726562 657.859375 359.753906 657.472656 360.535156 656.691406 C 362.101562 655.128906 362.101562 652.597656 360.535156 651.035156 Z M 360.535156 651.035156 " fill-opacity="1" fill-rule="nonzero"/><path fill="#200f05" d="M 342.019531 745.085938 C 340.453125 746.648438 340.453125 749.179688 342.019531 750.742188 L 346.300781 755.015625 C 347.085938 755.796875 348.109375 756.1875 349.136719 756.1875 C 350.160156 756.1875 351.1875 755.796875 351.96875 755.015625 C 353.535156 753.453125 353.535156 750.921875 351.96875 749.359375 L 347.6875 745.085938 C 346.121094 743.523438 343.582031 743.523438 342.019531 745.085938 Z M 342.019531 745.085938 " fill-opacity="1" fill-rule="nonzero"/><path fill="#200f05" d="M 392.242188 837.691406 L 392.242188 841.964844 C 392.242188 844.175781 394.035156 845.964844 396.246094 845.964844 C 398.460938 845.964844 400.253906 844.175781 400.253906 841.964844 L 400.253906 837.691406 C 400.253906 835.480469 398.460938 833.691406 396.246094 833.691406 C 394.035156 833.691406 392.242188 835.480469 392.242188 837.691406 Z M 392.242188 837.691406 " fill-opacity="1" fill-rule="nonzero"/><path fill="#200f05" d="M 373.382812 682.339844 L 377.667969 678.066406 C 379.230469 676.503906 379.230469 673.96875 377.667969 672.410156 C 376.101562 670.847656 373.5625 670.847656 372 672.410156 L 367.714844 676.683594 C 366.152344 678.246094 366.152344 680.777344 367.714844 682.339844 C 368.5 683.121094 369.523438 683.511719 370.550781 683.511719 C 371.574219 683.511719 372.601562 683.121094 373.382812 682.339844 Z M 373.382812 682.339844 " fill-opacity="1" fill-rule="nonzero"/><path fill="#200f05" d="M 439.796875 666.707031 L 450.671875 670.78125 C 452.585938 671.496094 454.589844 671.847656 456.589844 671.847656 C 459.292969 671.847656 461.988281 671.203125 464.429688 669.921875 C 468.675781 667.695312 471.78125 663.753906 472.945312 659.105469 L 476.820312 643.625 C 478.3125 637.679688 476.550781 631.605469 472.109375 627.375 C 467.667969 623.140625 461.507812 621.667969 455.625 623.429688 L 442.097656 627.480469 C 435.988281 629.308594 431.363281 634.546875 430.316406 640.828125 L 429.085938 648.1875 C 427.765625 656.101562 432.269531 663.890625 439.796875 666.707031 Z M 436.992188 649.503906 L 438.222656 642.144531 C 438.769531 638.851562 441.195312 636.101562 444.402344 635.140625 L 457.929688 631.089844 C 458.785156 630.835938 459.652344 630.707031 460.511719 630.707031 C 462.738281 630.707031 464.890625 631.558594 466.574219 633.160156 C 468.902344 635.378906 469.828125 638.566406 469.046875 641.683594 L 465.171875 657.167969 C 464.550781 659.640625 462.964844 661.65625 460.703125 662.839844 C 458.441406 664.023438 455.878906 664.183594 453.488281 663.289062 L 442.609375 659.21875 C 438.660156 657.738281 436.300781 653.65625 436.992188 649.503906 Z M 436.992188 649.503906 " fill-opacity="1" fill-rule="nonzero"/><path fill="#200f05" d="M 470.660156 687.066406 C 464.710938 690.035156 462.105469 697.136719 464.726562 703.234375 L 468.886719 712.925781 C 470.625 716.972656 474.265625 719.765625 478.625 720.402344 C 479.246094 720.492188 479.863281 720.535156 480.476562 720.535156 C 484.179688 720.535156 487.679688 718.917969 490.101562 716.019531 L 496.796875 708 C 499.023438 705.328125 500.027344 701.957031 499.625 698.507812 C 499.222656 695.058594 497.464844 692.007812 494.679688 689.925781 L 488.996094 685.667969 C 485.164062 682.800781 480.117188 682.34375 475.832031 684.484375 Z M 479.414062 691.640625 C 480.066406 691.316406 480.765625 691.15625 481.457031 691.15625 C 482.421875 691.15625 483.378906 691.464844 484.1875 692.070312 L 489.871094 696.324219 C 490.882812 697.078125 491.519531 698.183594 491.664062 699.4375 C 491.8125 700.6875 491.445312 701.910156 490.640625 702.878906 L 483.945312 710.894531 C 482.90625 712.140625 481.390625 712.71875 479.785156 712.484375 C 478.179688 712.25 476.890625 711.261719 476.253906 709.773438 L 472.089844 700.082031 C 471.140625 697.871094 472.085938 695.296875 474.242188 694.21875 Z M 479.414062 691.640625 " fill-opacity="1" fill-rule="nonzero"/><path fill="#200f05" d="M 503.320312 674.960938 C 510.253906 674.960938 515.894531 669.332031 515.894531 662.410156 C 515.894531 655.492188 510.253906 649.863281 503.320312 649.863281 C 496.386719 649.863281 490.746094 655.492188 490.746094 662.410156 C 490.746094 669.332031 496.386719 674.960938 503.320312 674.960938 Z M 503.320312 657.863281 C 505.835938 657.863281 507.878906 659.902344 507.878906 662.410156 C 507.878906 664.921875 505.835938 666.960938 503.320312 666.960938 C 500.808594 666.960938 498.761719 664.921875 498.761719 662.410156 C 498.761719 659.902344 500.808594 657.863281 503.320312 657.863281 Z M 503.320312 657.863281 " fill-opacity="1" fill-rule="nonzero"/><g clip-path="url(#ae30317fd4)"><path fill="#200f05" d="M 504.554688 752.058594 C 502.722656 752.328125 500.867188 752.464844 499.039062 752.464844 C 482.117188 752.464844 467.269531 741.660156 462.09375 725.578125 C 460.679688 721.183594 457.054688 717.929688 452.632812 717.089844 C 422.285156 711.320312 400.253906 684.730469 400.253906 653.859375 C 400.253906 641.113281 403.996094 628.78125 411.070312 618.199219 C 412.625 615.875 412.914062 612.960938 411.851562 610.402344 C 410.785156 607.835938 408.503906 605.980469 405.753906 605.4375 C 392.121094 602.742188 378.132812 602.136719 364.179688 603.636719 C 336.257812 606.636719 310.234375 618.132812 288.917969 636.882812 C 287.257812 638.34375 287.097656 640.871094 288.5625 642.527344 C 290.023438 644.183594 292.558594 644.34375 294.21875 642.886719 C 314.285156 625.234375 338.773438 614.414062 365.039062 611.59375 C 378.1875 610.179688 391.363281 610.75 404.199219 613.285156 C 404.292969 613.304688 404.394531 613.34375 404.449219 613.46875 C 404.5 613.589844 404.457031 613.679688 404.40625 613.757812 C 396.445312 625.660156 392.242188 639.527344 392.242188 653.859375 C 392.242188 688.566406 417.007812 718.460938 451.136719 724.949219 C 452.671875 725.238281 453.945312 726.417969 454.464844 728.023438 C 460.707031 747.425781 478.621094 760.464844 499.039062 760.464844 C 501.257812 760.464844 503.503906 760.296875 505.71875 759.972656 C 506.011719 759.929688 506.164062 760.105469 506.171875 760.148438 C 502.308594 783.859375 491.8125 805.996094 475.820312 824.164062 C 474.359375 825.820312 474.523438 828.347656 476.183594 829.808594 C 476.945312 830.476562 477.890625 830.800781 478.828125 830.800781 C 479.941406 830.800781 481.046875 830.34375 481.839844 829.441406 C 498.828125 810.144531 509.976562 786.628906 514.082031 761.433594 C 514.5 758.871094 513.6875 756.339844 511.855469 754.480469 C 509.972656 752.570312 507.242188 751.664062 504.554688 752.058594 Z M 504.554688 752.058594 " fill-opacity="1" fill-rule="nonzero"/></g><g clip-path="url(#af5ea50822)"><path fill="#200f05" d="M 464.074219 835.894531 C 440.578125 856.527344 410.40625 867.890625 379.117188 867.890625 C 361.078125 867.890625 343.636719 864.242188 327.269531 857.046875 C 311.457031 850.097656 297.394531 840.183594 285.480469 827.589844 C 273.585938 815.015625 264.492188 800.464844 258.457031 784.347656 C 252.183594 767.585938 249.53125 749.902344 250.570312 731.785156 C 252.191406 703.542969 263.519531 676.140625 282.472656 654.625 C 283.933594 652.964844 283.769531 650.4375 282.109375 648.980469 C 280.445312 647.519531 277.914062 647.683594 276.453125 649.34375 C 256.324219 672.195312 244.292969 701.3125 242.570312 731.328125 C 241.464844 750.5625 244.285156 769.339844 250.953125 787.148438 C 257.363281 804.273438 267.019531 819.726562 279.652344 833.082031 C 292.308594 846.457031 307.242188 856.984375 324.039062 864.367188 C 341.429688 872.011719 359.960938 875.890625 379.117188 875.890625 C 412.355469 875.890625 444.40625 863.820312 469.367188 841.902344 C 471.027344 840.441406 471.191406 837.914062 469.726562 836.253906 C 468.265625 834.597656 465.734375 834.4375 464.074219 835.894531 Z M 464.074219 835.894531 " fill-opacity="1" fill-rule="nonzero"/></g><g fill="#200f05" fill-opacity="1"><g transform="translate(535.156619, 842.1218)"><g><path d="M 54.21875 -200.671875 C 69.539062 -200.671875 80.84375 -196.128906 88.125 -187.046875 C 95.414062 -177.960938 99.0625 -165.851562 99.0625 -150.71875 L 99.0625 -132.84375 L 78.0625 -132.84375 L 78.0625 -151.859375 C 78.0625 -160.941406 76.210938 -167.988281 72.515625 -173 C 68.828125 -178.019531 62.914062 -180.53125 54.78125 -180.53125 C 46.832031 -180.53125 40.960938 -178.019531 37.171875 -173 C 33.390625 -167.988281 31.5 -160.941406 31.5 -151.859375 L 31.5 -46.828125 C 31.5 -37.742188 33.390625 -30.695312 37.171875 -25.6875 C 40.960938 -20.675781 46.832031 -18.171875 54.78125 -18.171875 C 62.914062 -18.171875 68.828125 -20.675781 72.515625 -25.6875 C 76.210938 -30.695312 78.0625 -37.742188 78.0625 -46.828125 L 78.0625 -72.65625 L 99.0625 -72.65625 L 99.0625 -47.96875 C 99.0625 -32.832031 95.414062 -20.722656 88.125 -11.640625 C 80.84375 -2.554688 69.539062 1.984375 54.21875 1.984375 C 39.070312 1.984375 27.859375 -2.554688 20.578125 -11.640625 C 13.296875 -20.722656 9.65625 -32.832031 9.65625 -47.96875 L 9.65625 -150.71875 C 9.65625 -158.289062 10.550781 -165.148438 12.34375 -171.296875 C 14.144531 -177.453125 16.890625 -182.703125 20.578125 -187.046875 C 24.265625 -191.398438 28.898438 -194.757812 34.484375 -197.125 C 40.066406 -199.488281 46.644531 -200.671875 54.21875 -200.671875 Z M 54.21875 -200.671875 "/></g></g></g><g fill="#200f05" fill-opacity="1"><g transform="translate(643.015632, 842.1218)"><g><path d="M 9.65625 -150.71875 C 9.65625 -166.050781 13.390625 -178.207031 20.859375 -187.1875 C 28.335938 -196.175781 39.738281 -200.671875 55.0625 -200.671875 C 70.394531 -200.671875 81.84375 -196.175781 89.40625 -187.1875 C 96.976562 -178.207031 100.765625 -166.050781 100.765625 -150.71875 L 100.765625 -47.96875 C 100.765625 -32.832031 96.976562 -20.722656 89.40625 -11.640625 C 81.84375 -2.554688 70.394531 1.984375 55.0625 1.984375 C 39.738281 1.984375 28.335938 -2.554688 20.859375 -11.640625 C 13.390625 -20.722656 9.65625 -32.832031 9.65625 -47.96875 Z M 31.5 -46.828125 C 31.5 -37.742188 33.4375 -30.695312 37.3125 -25.6875 C 41.195312 -20.675781 47.113281 -18.171875 55.0625 -18.171875 C 63.195312 -18.171875 69.15625 -20.675781 72.9375 -25.6875 C 76.726562 -30.695312 78.625 -37.742188 78.625 -46.828125 L 78.625 -151.859375 C 78.625 -160.941406 76.726562 -167.988281 72.9375 -173 C 69.15625 -178.019531 63.195312 -180.53125 55.0625 -180.53125 C 47.113281 -180.53125 41.195312 -178.019531 37.3125 -173 C 33.4375 -167.988281 31.5 -160.941406 31.5 -151.859375 Z M 31.5 -46.828125 "/></g></g></g><g fill="#200f05" fill-opacity="1"><g transform="translate(753.429153, 842.1218)"><g><path d="M 9.65625 -150.71875 C 9.65625 -166.050781 13.390625 -178.207031 20.859375 -187.1875 C 28.335938 -196.175781 39.738281 -200.671875 55.0625 -200.671875 C 70.394531 -200.671875 81.84375 -196.175781 89.40625 -187.1875 C 96.976562 -178.207031 100.765625 -166.050781 100.765625 -150.71875 L 100.765625 -47.96875 C 100.765625 -32.832031 96.976562 -20.722656 89.40625 -11.640625 C 81.84375 -2.554688 70.394531 1.984375 55.0625 1.984375 C 39.738281 1.984375 28.335938 -2.554688 20.859375 -11.640625 C 13.390625 -20.722656 9.65625 -32.832031 9.65625 -47.96875 Z M 31.5 -46.828125 C 31.5 -37.742188 33.4375 -30.695312 37.3125 -25.6875 C 41.195312 -20.675781 47.113281 -18.171875 55.0625 -18.171875 C 63.195312 -18.171875 69.15625 -20.675781 72.9375 -25.6875 C 76.726562 -30.695312 78.625 -37.742188 78.625 -46.828125 L 78.625 -151.859375 C 78.625 -160.941406 76.726562 -167.988281 72.9375 -173 C 69.15625 -178.019531 63.195312 -180.53125 55.0625 -180.53125 C 47.113281 -180.53125 41.195312 -178.019531 37.3125 -173 C 33.4375 -167.988281 31.5 -160.941406 31.5 -151.859375 Z M 31.5 -46.828125 "/></g></g></g><g fill="#200f05" fill-opacity="1"><g transform="translate(863.842674, 842.1218)"><g><path d="M 45.125 -86.28125 L 33.5 -66.703125 L 33.5 0 L 11.359375 0 L 11.359375 -198.6875 L 33.5 -198.6875 L 33.5 -102.75 L 86.28125 -198.6875 L 108.71875 -198.6875 L 58.46875 -108.140625 L 110.421875 0 L 87.703125 0 Z M 45.125 -86.28125 "/></g></g></g><g fill="#200f05" fill-opacity="1"><g transform="translate(979.932986, 842.1218)"><g><path d="M 33.5 -198.6875 L 33.5 0 L 11.359375 0 L 11.359375 -198.6875 Z M 33.5 -198.6875 "/></g></g></g><g fill="#200f05" fill-opacity="1"><g transform="translate(1024.779642, 842.1218)"><g><path d="M 5.671875 -20.15625 C 7.566406 -19.96875 9.457031 -19.875 11.34375 -19.875 C 13.238281 -19.875 15.039062 -19.875 16.75 -19.875 C 23.9375 -20.25 29.609375 -22.46875 33.765625 -26.53125 C 37.929688 -30.601562 40.015625 -37.65625 40.015625 -47.6875 L 40.015625 -198.6875 L 61.875 -198.6875 L 61.875 -49.109375 C 61.875 -39.835938 60.785156 -32.078125 58.609375 -25.828125 C 56.429688 -19.585938 53.453125 -14.523438 49.671875 -10.640625 C 45.890625 -6.765625 41.394531 -4.019531 36.1875 -2.40625 C 30.988281 -0.800781 25.453125 0.09375 19.578125 0.28125 C 16.929688 0.28125 14.566406 0.328125 12.484375 0.421875 C 10.398438 0.515625 8.128906 0.375 5.671875 0 Z M 5.671875 -20.15625 "/></g></g></g><g fill="#200f05" fill-opacity="1"><g transform="translate(1097.158701, 842.1218)"><g><path d="M 33.78125 -40.015625 L 26.109375 0 L 5.671875 0 L 43.71875 -198.6875 L 75.78125 -198.6875 L 113.828125 0 L 91.6875 0 L 84.015625 -40.015625 Z M 36.609375 -59.046875 L 80.890625 -59.046875 L 58.46875 -173.71875 Z M 36.609375 -59.046875 "/></g></g></g><g fill="#200f05" fill-opacity="1"><g transform="translate(1216.938908, 842.1218)"><g><path d="M 55.640625 -198.6875 C 71.335938 -198.6875 82.640625 -194.804688 89.546875 -187.046875 C 96.453125 -179.296875 99.90625 -168.039062 99.90625 -153.28125 L 99.90625 -137.09375 C 99.90625 -126.125 97.914062 -117.234375 93.9375 -110.421875 C 89.96875 -103.609375 83.726562 -98.875 75.21875 -96.21875 C 84.300781 -93.570312 90.734375 -88.703125 94.515625 -81.609375 C 98.304688 -74.515625 100.203125 -65.570312 100.203125 -54.78125 L 100.203125 -23.84375 C 100.203125 -19.488281 100.390625 -15.273438 100.765625 -11.203125 C 101.140625 -7.140625 102.273438 -3.40625 104.171875 0 L 81.75 0 C 80.425781 -2.832031 79.476562 -5.90625 78.90625 -9.21875 C 78.34375 -12.53125 78.0625 -17.5 78.0625 -24.125 L 78.0625 -55.34375 C 78.0625 -66.507812 75.550781 -74.222656 70.53125 -78.484375 C 65.519531 -82.742188 58.378906 -84.875 49.109375 -84.875 L 33.5 -84.875 L 33.5 0 L 11.359375 0 L 11.359375 -198.6875 Z M 49.953125 -105.015625 C 58.847656 -105.015625 65.753906 -106.859375 70.671875 -110.546875 C 75.597656 -114.242188 78.0625 -121.484375 78.0625 -132.265625 L 78.0625 -151.28125 C 78.0625 -160.363281 76.3125 -167.175781 72.8125 -171.71875 C 69.3125 -176.257812 63.394531 -178.53125 55.0625 -178.53125 L 33.5 -178.53125 L 33.5 -105.015625 Z M 49.953125 -105.015625 "/></g></g></g></svg>